<?xml version="1.0" encoding="UTF-8"?>
<!DOCTYPE svg PUBLIC "-//W3C//DTD SVG 1.1//EN" "http://www.w3.org/Graphics/SVG/1.1/DTD/svg11.dtd">
<!-- Creator: CorelDRAW 2020 (64 Bit) -->
<svg xmlns="http://www.w3.org/2000/svg" xml:space="preserve" width="200mm" height="20.24mm" version="1.1" style="shape-rendering:geometricPrecision; text-rendering:geometricPrecision; image-rendering:optimizeQuality; fill-rule:evenodd; clip-rule:evenodd"
viewBox="0 0 20000 2024"
 xmlns:xlink="http://www.w3.org/1999/xlink"
 xmlns:xodm="http://www.corel.com/coreldraw/odm/2003">
 <defs>
  <style type="text/css">
   <![CDATA[
    .str0 {stroke:#CCCCCC;stroke-width:7.62;stroke-miterlimit:22.9256}
    .fil2 {fill:none;fill-rule:nonzero}
    .fil0 {fill:#4D4D4D}
    .fil1 {fill:#CCCCCC;fill-rule:nonzero}
   ]]>
  </style>
 </defs>
 <g id="Camada_x0020_1">
  <metadata id="CorelCorpID_0Corel-Layer"/>
  <g id="_2275690392496">
   <rect class="fil0" x="-7.6" y="1" width="20000" height="2024"/>
   <polygon class="fil1" points="367.87,332.89 581.61,332.89 581.61,1693.09 367.87,1693.09 "/>
   <path id="1" class="fil1" d="M1351.44 1712.52c-103.64,0 -182.66,-29.47 -237.06,-88.41 -54.41,-58.94 -81.62,-143.47 -81.62,-253.58l0 -715.08c0,-110.11 27.21,-194.63 81.62,-253.58 54.4,-58.94 133.42,-88.41 237.06,-88.41 103.63,0 182.65,29.47 237.06,88.41 54.41,58.95 81.61,143.47 81.61,253.58l0 116.59 -202.08 0 0 -130.19c0,-89.38 -36.92,-134.08 -110.76,-134.08 -73.84,0 -110.76,44.7 -110.76,134.08l0 744.22c0,88.09 36.92,132.14 110.76,132.14 73.84,0 110.76,-44.05 110.76,-132.14l0 -266.21 -106.88 0 0 -194.31 308.96 0 0 444.98c0,110.11 -27.2,194.64 -81.61,253.58 -54.41,58.94 -133.43,88.41 -237.06,88.41z"/>
   <path id="2" class="fil1" d="M2115.44 332.89l316.73 0c110.11,0 190.43,25.59 240.95,76.76 50.52,51.17 75.78,129.86 75.78,236.09l0 83.55c0,141.2 -46.63,230.59 -139.9,268.16l0 3.88c51.81,15.55 88.41,47.29 109.78,95.22 21.38,47.93 32.07,112.05 32.07,192.37l0 239c0,38.87 1.29,70.28 3.88,94.25 2.59,23.96 9.07,47.6 19.43,70.92l-217.63 0c-7.77,-22.02 -12.95,-42.75 -15.54,-62.18 -2.59,-19.43 -3.89,-54.41 -3.89,-104.93l0 -248.72c0,-62.18 -10.04,-105.58 -30.12,-130.19 -20.08,-24.62 -54.73,-36.92 -103.96,-36.92l-73.84 0 0 582.94 -213.74 0 0 -1360.2zm291.47 582.94c42.75,0 74.81,-11.01 96.19,-33.03 21.37,-22.02 32.06,-58.94 32.06,-110.76l0 -104.93c0,-49.22 -8.75,-84.85 -26.24,-106.87 -17.48,-22.02 -45.01,-33.03 -82.58,-33.03l-97.16 0 0 388.62 77.73 0z"/>
   <polygon id="3" class="fil1" points="3205.89,332.89 3788.83,332.89 3788.83,527.21 3419.63,527.21 3419.63,886.69 3713.05,886.69 3713.05,1081 3419.63,1081 3419.63,1498.78 3788.83,1498.78 3788.83,1693.09 3205.89,1693.09 "/>
   <path id="4" class="fil1" d="M4269.13 1700.86c-38.86,0 -71.9,-2.59 -99.1,-7.77l0 -194.31c20.73,5.18 44.04,7.77 69.95,7.77 42.75,0 74.49,-10.69 95.22,-32.06 20.72,-21.38 31.09,-54.09 31.09,-98.13l0 -1043.47 213.74 0 0 1037.64c0,111.41 -25.58,194.31 -76.75,248.72 -51.17,54.41 -129.22,81.61 -234.15,81.61z"/>
   <path id="5" class="fil1" d="M5206.07 332.89l289.52 0 221.52 1360.2 -213.74 0 -38.87 -270.1 0 3.89 -242.89 0 -38.86 266.21 -198.2 0 221.52 -1360.2zm233.17 909.39l-95.21 -672.32 -3.89 0 -93.27 672.32 192.37 0z"/>
   <polygon id="6" class="fil1" points="6438.36,332.89 7021.3,332.89 7021.3,527.21 6652.1,527.21 6652.1,886.69 6945.52,886.69 6945.52,1081 6652.1,1081 6652.1,1498.78 7021.3,1498.78 7021.3,1693.09 6438.36,1693.09 "/>
   <polygon id="7" class="fil1" points="7451.08,332.89 7756.15,332.89 7892.17,1306.41 7896.06,1306.41 8032.08,332.89 8337.15,332.89 8337.15,1693.09 8135.06,1693.09 8135.06,663.23 8131.18,663.23 7975.73,1693.09 7796.96,1693.09 7641.51,663.23 7637.62,663.23 7637.62,1693.09 7451.08,1693.09 "/>
   <path id="8" class="fil1" d="M9415.94 1712.52c-102.34,0 -180.39,-29.15 -234.15,-87.44 -53.76,-58.29 -80.64,-140.55 -80.64,-246.78l0 -730.62c0,-106.22 26.88,-188.48 80.64,-246.78 53.76,-58.29 131.81,-87.44 234.15,-87.44 102.33,0 180.38,29.15 234.14,87.44 53.76,58.3 80.64,140.56 80.64,246.78l0 143.79 -202.08 0 0 -157.39c0,-84.2 -35.63,-126.31 -106.88,-126.31 -71.24,0 -106.87,42.11 -106.87,126.31l0 759.77c0,82.9 35.63,124.36 106.87,124.36 71.25,0 106.88,-41.46 106.88,-124.36l0 -207.92 202.08 0 0 192.37c0,106.23 -26.88,188.49 -80.64,246.78 -53.76,58.29 -131.81,87.44 -234.14,87.44z"/>
   <path id="9" class="fil1" d="M10331.5 332.89l289.52 0 221.52 1360.2 -213.74 0 -38.87 -270.1 0 3.89 -242.89 0 -38.86 266.21 -198.2 0 221.52 -1360.2zm233.17 909.39l-95.21 -672.32 -3.89 0 -93.27 672.32 192.37 0z"/>
   <polygon id="10" class="fil1" points="11252.89,332.89 11521.04,332.89 11728.96,1147.07 11732.84,1147.07 11732.84,332.89 11923.27,332.89 11923.27,1693.09 11703.7,1693.09 11447.2,700.15 11443.32,700.15 11443.32,1693.09 11252.89,1693.09 "/>
   <path id="11" class="fil1" d="M12555.14 332.89l289.52 0 221.52 1360.2 -213.74 0 -38.87 -270.1 0 3.89 -242.89 0 -38.86 266.21 -198.2 0 221.52 -1360.2zm233.17 909.39l-95.21 -672.32 -3.89 0 -93.27 672.32 192.37 0z"/>
   <polygon id="12" class="fil1" points="13365.77,332.89 13581.46,332.89 13721.36,1388.02 13725.25,1388.02 13865.15,332.89 14061.41,332.89 13855.44,1693.09 13571.74,1693.09 "/>
   <polygon id="13" class="fil1" points="14471.76,332.89 14685.5,332.89 14685.5,1693.09 14471.76,1693.09 "/>
   <polygon id="14" class="fil1" points="15152.2,332.89 15735.14,332.89 15735.14,527.21 15365.94,527.21 15365.94,886.69 15659.36,886.69 15659.36,1081 15365.94,1081 15365.94,1498.78 15735.14,1498.78 15735.14,1693.09 15152.2,1693.09 "/>
   <polygon id="15" class="fil1" points="16164.92,332.89 16378.66,332.89 16378.66,1693.09 16164.92,1693.09 "/>
   <path id="16" class="fil1" d="M16845.36 332.89l316.73 0c110.11,0 190.43,25.59 240.95,76.76 50.52,51.17 75.78,129.86 75.78,236.09l0 83.55c0,141.2 -46.63,230.59 -139.9,268.16l0 3.88c51.81,15.55 88.41,47.29 109.78,95.22 21.38,47.93 32.07,112.05 32.07,192.37l0 239c0,38.87 1.29,70.28 3.88,94.25 2.59,23.96 9.07,47.6 19.43,70.92l-217.63 0c-7.77,-22.02 -12.95,-42.75 -15.54,-62.18 -2.59,-19.43 -3.89,-54.41 -3.89,-104.93l0 -248.72c0,-62.18 -10.04,-105.58 -30.12,-130.19 -20.08,-24.62 -54.73,-36.92 -103.96,-36.92l-73.84 0 0 582.94 -213.74 0 0 -1360.2zm291.47 582.94c42.75,0 74.81,-11.01 96.19,-33.03 21.37,-22.02 32.06,-58.94 32.06,-110.76l0 -104.93c0,-49.22 -8.75,-84.85 -26.24,-106.87 -17.48,-22.02 -45.01,-33.03 -82.58,-33.03l-97.16 0 0 388.62 77.73 0z"/>
   <path id="17" class="fil1" d="M18100.98 332.89l289.52 0 221.52 1360.2 -213.74 0 -38.87 -270.1 0 3.89 -242.89 0 -38.86 266.21 -198.2 0 221.52 -1360.2zm233.17 909.39l-95.21 -672.32 -3.89 0 -93.27 672.32 192.37 0z"/>
   <path id="18" class="fil1" d="M19294.41 1712.52c-103.64,0 -182.01,-29.47 -235.12,-88.41 -53.11,-58.94 -79.67,-143.47 -79.67,-253.58l0 -77.73 202.09 0 0 93.27c0,88.09 36.92,132.14 110.75,132.14 36.28,0 63.8,-10.69 82.59,-32.06 18.78,-21.38 28.17,-56.03 28.17,-103.96 0,-57 -12.95,-107.2 -38.86,-150.6 -25.91,-43.39 -73.84,-95.53 -143.79,-156.42 -88.09,-77.72 -149.62,-148 -184.6,-210.83 -34.98,-62.83 -52.46,-133.75 -52.46,-212.77 0,-107.52 27.2,-190.75 81.61,-249.7 54.41,-58.94 133.43,-88.41 237.06,-88.41 102.34,0 179.74,29.47 232.21,88.41 52.46,58.95 78.69,143.47 78.69,253.58l0 56.35 -202.08 0 0 -69.95c0,-46.63 -9.07,-80.64 -27.21,-102.01 -18.13,-21.38 -44.69,-32.07 -79.67,-32.07 -71.25,0 -106.87,43.4 -106.87,130.2 0,49.22 13.28,95.21 39.84,137.96 26.55,42.75 74.81,94.56 144.76,155.45 89.38,77.72 150.92,148.33 184.6,211.8 33.68,63.48 50.52,137.96 50.52,223.46 0,111.41 -27.53,196.91 -82.58,256.5 -55.06,59.59 -135.05,89.38 -239.98,89.38z"/>
   <polygon id="19" class="fil2 str0" points="367.87,332.89 581.61,332.89 581.61,1693.09 367.87,1693.09 "/>
   <path id="20" class="fil2 str0" d="M1351.44 1712.52c-103.64,0 -182.66,-29.47 -237.06,-88.41 -54.41,-58.94 -81.62,-143.47 -81.62,-253.58l0 -715.08c0,-110.11 27.21,-194.63 81.62,-253.58 54.4,-58.94 133.42,-88.41 237.06,-88.41 103.63,0 182.65,29.47 237.06,88.41 54.41,58.95 81.61,143.47 81.61,253.58l0 116.59 -202.08 0 0 -130.19c0,-89.38 -36.92,-134.08 -110.76,-134.08 -73.84,0 -110.76,44.7 -110.76,134.08l0 744.22c0,88.09 36.92,132.14 110.76,132.14 73.84,0 110.76,-44.05 110.76,-132.14l0 -266.21 -106.88 0 0 -194.31 308.96 0 0 444.98c0,110.11 -27.2,194.64 -81.61,253.58 -54.41,58.94 -133.43,88.41 -237.06,88.41z"/>
   <path id="21" class="fil2 str0" d="M2115.44 332.89l316.73 0c110.11,0 190.43,25.59 240.95,76.76 50.52,51.17 75.78,129.86 75.78,236.09l0 83.55c0,141.2 -46.63,230.59 -139.9,268.16l0 3.88c51.81,15.55 88.41,47.29 109.78,95.22 21.38,47.93 32.07,112.05 32.07,192.37l0 239c0,38.87 1.29,70.28 3.88,94.25 2.59,23.96 9.07,47.6 19.43,70.92l-217.63 0c-7.77,-22.02 -12.95,-42.75 -15.54,-62.18 -2.59,-19.43 -3.89,-54.41 -3.89,-104.93l0 -248.72c0,-62.18 -10.04,-105.58 -30.12,-130.19 -20.08,-24.62 -54.73,-36.92 -103.96,-36.92l-73.84 0 0 582.94 -213.74 0 0 -1360.2zm291.47 582.94c42.75,0 74.81,-11.01 96.19,-33.03 21.37,-22.02 32.06,-58.94 32.06,-110.76l0 -104.93c0,-49.22 -8.75,-84.85 -26.24,-106.87 -17.48,-22.02 -45.01,-33.03 -82.58,-33.03l-97.16 0 0 388.62 77.73 0z"/>
   <polygon id="22" class="fil2 str0" points="3205.89,332.89 3788.83,332.89 3788.83,527.21 3419.63,527.21 3419.63,886.69 3713.05,886.69 3713.05,1081 3419.63,1081 3419.63,1498.78 3788.83,1498.78 3788.83,1693.09 3205.89,1693.09 "/>
   <path id="23" class="fil2 str0" d="M4269.13 1700.86c-38.86,0 -71.9,-2.59 -99.1,-7.77l0 -194.31c20.73,5.18 44.04,7.77 69.95,7.77 42.75,0 74.49,-10.69 95.22,-32.06 20.72,-21.38 31.09,-54.09 31.09,-98.13l0 -1043.47 213.74 0 0 1037.64c0,111.41 -25.58,194.31 -76.75,248.72 -51.17,54.41 -129.22,81.61 -234.15,81.61z"/>
   <path id="24" class="fil2 str0" d="M5206.07 332.89l289.52 0 221.52 1360.2 -213.74 0 -38.87 -270.1 0 3.89 -242.89 0 -38.86 266.21 -198.2 0 221.52 -1360.2zm233.17 909.39l-95.21 -672.32 -3.89 0 -93.27 672.32 192.37 0z"/>
   <polygon id="25" class="fil2 str0" points="6438.36,332.89 7021.3,332.89 7021.3,527.21 6652.1,527.21 6652.1,886.69 6945.52,886.69 6945.52,1081 6652.1,1081 6652.1,1498.78 7021.3,1498.78 7021.3,1693.09 6438.36,1693.09 "/>
   <polygon id="26" class="fil2 str0" points="7451.08,332.89 7756.15,332.89 7892.17,1306.41 7896.06,1306.41 8032.08,332.89 8337.15,332.89 8337.15,1693.09 8135.06,1693.09 8135.06,663.23 8131.18,663.23 7975.73,1693.09 7796.96,1693.09 7641.51,663.23 7637.62,663.23 7637.62,1693.09 7451.08,1693.09 "/>
   <path id="27" class="fil2 str0" d="M9415.94 1712.52c-102.34,0 -180.39,-29.15 -234.15,-87.44 -53.76,-58.29 -80.64,-140.55 -80.64,-246.78l0 -730.62c0,-106.22 26.88,-188.48 80.64,-246.78 53.76,-58.29 131.81,-87.44 234.15,-87.44 102.33,0 180.38,29.15 234.14,87.44 53.76,58.3 80.64,140.56 80.64,246.78l0 143.79 -202.08 0 0 -157.39c0,-84.2 -35.63,-126.31 -106.88,-126.31 -71.24,0 -106.87,42.11 -106.87,126.31l0 759.77c0,82.9 35.63,124.36 106.87,124.36 71.25,0 106.88,-41.46 106.88,-124.36l0 -207.92 202.08 0 0 192.37c0,106.23 -26.88,188.49 -80.64,246.78 -53.76,58.29 -131.81,87.44 -234.14,87.44z"/>
   <path id="28" class="fil2 str0" d="M10331.5 332.89l289.52 0 221.52 1360.2 -213.74 0 -38.87 -270.1 0 3.89 -242.89 0 -38.86 266.21 -198.2 0 221.52 -1360.2zm233.17 909.39l-95.21 -672.32 -3.89 0 -93.27 672.32 192.37 0z"/>
   <polygon id="29" class="fil2 str0" points="11252.89,332.89 11521.04,332.89 11728.96,1147.07 11732.84,1147.07 11732.84,332.89 11923.27,332.89 11923.27,1693.09 11703.7,1693.09 11447.2,700.15 11443.32,700.15 11443.32,1693.09 11252.89,1693.09 "/>
   <path id="30" class="fil2 str0" d="M12555.14 332.89l289.52 0 221.52 1360.2 -213.74 0 -38.87 -270.1 0 3.89 -242.89 0 -38.86 266.21 -198.2 0 221.52 -1360.2zm233.17 909.39l-95.21 -672.32 -3.89 0 -93.27 672.32 192.37 0z"/>
   <polygon id="31" class="fil2 str0" points="13365.77,332.89 13581.46,332.89 13721.36,1388.02 13725.25,1388.02 13865.15,332.89 14061.41,332.89 13855.44,1693.09 13571.74,1693.09 "/>
   <polygon id="32" class="fil2 str0" points="14471.76,332.89 14685.5,332.89 14685.5,1693.09 14471.76,1693.09 "/>
   <polygon id="33" class="fil2 str0" points="15152.2,332.89 15735.14,332.89 15735.14,527.21 15365.94,527.21 15365.94,886.69 15659.36,886.69 15659.36,1081 15365.94,1081 15365.94,1498.78 15735.14,1498.78 15735.14,1693.09 15152.2,1693.09 "/>
   <polygon id="34" class="fil2 str0" points="16164.92,332.89 16378.66,332.89 16378.66,1693.09 16164.92,1693.09 "/>
   <path id="35" class="fil2 str0" d="M16845.36 332.89l316.73 0c110.11,0 190.43,25.59 240.95,76.76 50.52,51.17 75.78,129.86 75.78,236.09l0 83.55c0,141.2 -46.63,230.59 -139.9,268.16l0 3.88c51.81,15.55 88.41,47.29 109.78,95.22 21.38,47.93 32.07,112.05 32.07,192.37l0 239c0,38.87 1.29,70.28 3.88,94.25 2.59,23.96 9.07,47.6 19.43,70.92l-217.63 0c-7.77,-22.02 -12.95,-42.75 -15.54,-62.18 -2.59,-19.43 -3.89,-54.41 -3.89,-104.93l0 -248.72c0,-62.18 -10.04,-105.58 -30.12,-130.19 -20.08,-24.62 -54.73,-36.92 -103.96,-36.92l-73.84 0 0 582.94 -213.74 0 0 -1360.2zm291.47 582.94c42.75,0 74.81,-11.01 96.19,-33.03 21.37,-22.02 32.06,-58.94 32.06,-110.76l0 -104.93c0,-49.22 -8.75,-84.85 -26.24,-106.87 -17.48,-22.02 -45.01,-33.03 -82.58,-33.03l-97.16 0 0 388.62 77.73 0z"/>
   <path id="36" class="fil2 str0" d="M18100.98 332.89l289.52 0 221.52 1360.2 -213.74 0 -38.87 -270.1 0 3.89 -242.89 0 -38.86 266.21 -198.2 0 221.52 -1360.2zm233.17 909.39l-95.21 -672.32 -3.89 0 -93.27 672.32 192.37 0z"/>
   <path id="37" class="fil2 str0" d="M19294.41 1712.52c-103.64,0 -182.01,-29.47 -235.12,-88.41 -53.11,-58.94 -79.67,-143.47 -79.67,-253.58l0 -77.73 202.09 0 0 93.27c0,88.09 36.92,132.14 110.75,132.14 36.28,0 63.8,-10.69 82.59,-32.06 18.78,-21.38 28.17,-56.03 28.17,-103.96 0,-57 -12.95,-107.2 -38.86,-150.6 -25.91,-43.39 -73.84,-95.53 -143.79,-156.42 -88.09,-77.72 -149.62,-148 -184.6,-210.83 -34.98,-62.83 -52.46,-133.75 -52.46,-212.77 0,-107.52 27.2,-190.75 81.61,-249.7 54.41,-58.94 133.43,-88.41 237.06,-88.41 102.34,0 179.74,29.47 232.21,88.41 52.46,58.95 78.69,143.47 78.69,253.58l0 56.35 -202.08 0 0 -69.95c0,-46.63 -9.07,-80.64 -27.21,-102.01 -18.13,-21.38 -44.69,-32.07 -79.67,-32.07 -71.25,0 -106.87,43.4 -106.87,130.2 0,49.22 13.28,95.21 39.84,137.96 26.55,42.75 74.81,94.56 144.76,155.45 89.38,77.72 150.92,148.33 184.6,211.8 33.68,63.48 50.52,137.96 50.52,223.46 0,111.41 -27.53,196.91 -82.58,256.5 -55.06,59.59 -135.05,89.38 -239.98,89.38z"/>
  </g>
 </g>
</svg>
