<?xml version="1.0" encoding="UTF-8"?>
<!DOCTYPE svg PUBLIC "-//W3C//DTD SVG 1.1//EN" "http://www.w3.org/Graphics/SVG/1.1/DTD/svg11.dtd">
<!-- Creator: CorelDRAW 2020 (64 Bit) -->
<svg xmlns="http://www.w3.org/2000/svg" xml:space="preserve" width="200mm" height="104.12mm" version="1.1" style="shape-rendering:geometricPrecision; text-rendering:geometricPrecision; image-rendering:optimizeQuality; fill-rule:evenodd; clip-rule:evenodd"
viewBox="0 0 20000 10412"
 xmlns:xlink="http://www.w3.org/1999/xlink"
 xmlns:xodm="http://www.corel.com/coreldraw/odm/2003">
 <defs>
  <style type="text/css">
   <![CDATA[
    .str0 {stroke:#4D4D4D;stroke-width:7.62;stroke-miterlimit:22.9256}
    .fil3 {fill:none;fill-rule:nonzero}
    .fil0 {fill:gray}
    .fil1 {fill:#CCCCCC}
    .fil2 {fill:#4D4D4D;fill-rule:nonzero}
   ]]>
  </style>
 </defs>
 <g id="Camada_x0020_1">
  <metadata id="CorelCorpID_0Corel-Layer"/>
  <g id="_2275684766384">
   <path class="fil0" d="M12794.3 8065.68c87.87,166.75 137.14,359.02 137.14,566.66 0,144.72 -27.09,280.28 -73.34,408.39 78.12,119.83 123.58,262.73 123.58,415.93l0 163.74c0,421.04 -343.4,764.44 -764.45,764.44l-919.21 0c-29.43,0 -58.47,-1.55 -87.01,-4.62 -27.64,3.06 -55.74,4.62 -84.19,4.62l-919.21 0c-96.04,0 -187.76,-16.59 -272.32,-47.93 -130.33,48.91 -274.32,75.85 -431.04,75.85 -164.82,0 -315.45,-29.78 -450.88,-83.56 -88.41,35.87 -184.97,55.64 -286,55.64l-919.21 0c-308.32,0 -571.99,-170.91 -697.85,-452.39 -125.86,-281.47 -77.46,-591.94 128.11,-821.73 17.64,-19.71 38.17,-42.25 60.76,-66.92 -120.05,-135.35 -188.47,-312.25 -188.47,-506.37l0 -193.52c0,-93.96 15.01,-182.25 44.77,-264.32 -192,-31.71 -370.51,-112.98 -521.31,-240.4 -75.04,13.33 -151.82,19.91 -229.6,19.91 -127.03,0 -249.82,-17.64 -364.6,-52.39 -101.86,59.48 -217.27,98.95 -339.53,117.05 -73.18,10.84 -147.32,19.48 -221.39,19.48 -99.02,0 -198.81,-5.54 -296.47,-22.52 -18.69,-3.25 -37.2,-7.04 -55.54,-11.32 -106.43,33.46 -218.04,50.67 -332.32,50.67 -116.02,0 -228.35,-16.73 -335.13,-48.86 -191.35,146.67 -421.3,222.75 -663.31,222.75 -96.9,0 -191.64,-12.44 -284.02,-42.17 -245.02,-17.41 -472.99,-112.95 -656.21,-279.97 -123.91,83.47 -258.84,150.32 -404.9,196.63 -208.82,66.21 -426.48,108.68 -646.13,108.68 -612.45,0 -1141.63,-260.21 -1470,-785.59 -300.37,-480.61 -382.63,-1076.65 -382.63,-1633.58 0,-315.54 27.49,-631.56 91.7,-940.74 57.64,-277.53 140.86,-552.23 262.49,-808.74 119.89,-252.82 278.53,-486.24 488.56,-672.91 248.2,-220.62 552.01,-350.14 886.47,-350.14l117.8 0c155.82,0 309.87,24.66 454.97,82.71 93.86,37.55 183.71,84.41 268.37,139.62 52.71,34.39 104.72,69.86 154.12,104.91 10.11,6.49 23.8,12.53 34.76,17.32 325.83,142.56 553.39,413.19 652.16,753.96 3.51,12.13 6.92,24.29 10.22,36.47 137.49,-52.99 285.31,-80.46 439.1,-80.46 139.99,0 279.33,14.37 412.75,58.84 71.78,23.91 141.96,52.55 209.64,86.39 18.45,9.23 36.96,18.32 55.52,27.32 94.52,15.29 173.36,43.2 256.79,90.89 51.85,29.65 101.41,62.39 148.19,98.26 116.64,-59.31 249.9,-92.46 392.33,-92.46 68.59,0 136.57,7.55 204.13,18.8 67.81,11.3 134.77,27.34 200.59,47.09 101.95,30.58 199.55,73.66 289.18,131.28 75.44,48.5 141.88,107.16 197.57,173.69 92.36,3.13 182.87,17.41 269.4,43.43 66.58,-114.29 145.74,-220.95 239.44,-316.6 18.23,-18.61 36.91,-36.56 56,-53.84 -75.34,-34.21 -145.93,-79.55 -209.5,-135.51 -4.06,-3.55 -7.47,-6.64 -11.44,-10.28 -126.89,-116.29 -211.5,-264.68 -257.66,-429.43 -27.49,-98.16 -40.49,-199.45 -45.45,-301.1 -3.96,-80.84 -4.91,-162.01 -4.91,-242.94 0,-96.14 0,-192.27 0,-288.41 0,-67.94 0.45,-135.9 1.28,-203.85 -189.51,-4.1 -372.23,-61.13 -529.17,-168.3 -111.15,-75.91 -206.73,-171.4 -284.17,-281.43 -65.69,-93.33 -118.41,-195 -155.62,-302.92 -38.72,-112.28 -61.8,-228.27 -61.8,-347.37 0,-207.92 65.53,-406.87 184.95,-576.89 67.57,-96.22 146.67,-183.65 235.27,-260.92 75.01,-65.44 155.18,-124.71 239.71,-177.26 50.97,-31.69 102.35,-62.8 154.45,-92.58 5.72,-3.27 10.62,-6 16.41,-9.12 284.24,-153.32 587.01,-284.41 901.37,-361.43 259.37,-63.55 526.12,-102.07 793.47,-102.07 258.23,0 506.53,67.89 726.66,202.84 159.76,97.94 304.17,217.92 427.31,359.33 41.8,47.99 81.39,97.74 118.27,149.33 99.67,-336.83 385.1,-583.32 756,-583.32 63.37,0 125.76,7.27 188.28,16.89 59.64,9.18 118.81,21.33 177.35,35.97 83.01,20.74 164.1,48.68 241.4,85.48 98.71,47 186.1,110.35 258.24,186.38 6.64,-0.16 13.3,-0.25 20,-0.25 177.29,0 349.48,43.48 507.03,124.27 167.34,85.8 300.18,214.43 397.5,370.01 192.15,21.91 359.81,106.85 486.13,233.58 113.65,-115 250.24,-202.99 403.84,-255.76 117.62,-40.42 240,-63.52 364.59,-63.52 163.95,0 323.56,39.51 470.02,112.73 91.23,45.61 176.89,101.23 256.82,164.52 71.95,56.96 139.3,119.65 201.97,186.64 30.32,32.42 60.27,65.22 89.77,98.41 278.01,54.54 507.74,255.25 599.93,531.97 30.39,91.17 47.22,185.43 47.22,281.71 0,8.66 -0.11,16.04 -0.4,24.69 -6.15,190.1 -50.6,374.64 -137.19,544.36 -50.58,99.16 -108.84,194.55 -176.56,282.96 -11.49,15.48 -23.31,30.68 -35.45,45.61 -14.34,61.13 -32.71,121.33 -53.34,180.65 -24.78,71.24 -54.81,140.38 -89.63,207.06 44.11,16.89 87.45,36.27 129.88,58.03 214.88,110.22 376.23,284.8 486.45,494.72 12.06,16.45 23.6,33.08 34.61,49.9 11.97,-0.42 23.96,-0.63 35.96,-0.63 332.13,0 602.12,174.64 746.15,435.73 18.41,4.08 36.73,8.48 54.95,13.23 54.02,-81.02 115.14,-157.44 184.13,-227.87 233.13,-237.99 538.23,-366.93 871.42,-366.93 139.98,0 279.33,14.37 412.75,58.84 71.78,23.91 141.96,52.55 209.63,86.39 18.45,9.23 36.97,18.32 55.53,27.32 94.52,15.29 173.36,43.2 256.79,90.89 154.38,88.25 288.28,203.98 389.37,347.54 41.21,-23.14 83.47,-44.64 126.73,-64.51 168.84,-77.49 345.97,-134.54 528.61,-168.77 137.69,-25.83 281.04,-46.76 421.33,-46.76 165.9,0 328.51,33.74 481.78,96.84 353.48,145.55 568.73,477.33 568.73,858.32 0,88.07 -12.8,174.62 -31.46,260.49 -23.06,106.11 -59.61,208.68 -108.16,305.78 -48.23,96.43 -109.4,185.17 -182.02,264.27 195.44,200.51 321.64,451.7 321.64,740.04 0,312.72 -127.75,602.26 -372.13,800.83 -139.61,113.43 -299.39,196.39 -472.05,246.94 -126.84,37.12 -257.09,61.15 -388.9,70.81 -73.26,5.36 -147.83,10.46 -221.29,10.46 -101.66,0 -203.75,-10.18 -304.26,-24.9 -97.93,-14.33 -194.68,-35.61 -289.51,-63.71 -132.57,54.64 -274.83,83 -421.5,83 -116.02,0 -228.35,-16.73 -335.13,-48.86 -191.35,146.67 -421.3,222.75 -663.31,222.75 -96.9,0 -191.64,-12.44 -284.03,-42.17 -130.08,-9.24 -255.36,-40.51 -371.68,-92.81 -134.29,55.5 -280.17,84.49 -432.48,84.49 -328.66,0 -630.28,-128.58 -848.46,-372.52 -206.75,124.79 -440.99,181.8 -682.85,181.8 -141.53,0 -278.34,-25.35 -408.32,-71.7 -19.75,13.16 -39.8,25.95 -60.15,38.36 -197.2,120.32 -415.33,186.31 -642.04,206.27z"/>
   <path class="fil1" d="M13271.12 4858.14c-89.72,-69.98 -164.41,-157.31 -226.36,-251.91 -5.15,-7.36 -11.27,-14.81 -16.9,-21.86 -55.88,-69.81 -92.25,-146.09 -92.25,-238.25 0,-145.65 85.2,-264.59 210.71,-331.52 39.56,-21.06 80.36,-39.96 121.65,-57.39 49.1,-20.66 99.74,-37.92 151.59,-50.11 45.01,-10.6 91.05,-19.69 137.48,-19.69 128.89,0 252.49,32.5 366.91,91.18 140.99,72.29 240.82,192.04 308.68,332.05 7.14,9.89 14.46,19.74 21.6,29.45 54.42,74.2 92.51,152.38 92.51,247.25 0,24.44 -2.26,48.34 -6.52,71.54 5.5,-2.97 11.09,-5.86 16.72,-8.65 53.58,-26.79 110.21,-46.7 168.71,-59.7 52.11,-11.57 105.38,-18.8 158.86,-18.8 236.08,0 391.08,170.66 411.53,391.48 60.05,4.96 119.88,12.42 179.31,22.31 90.6,15.12 179.61,40.58 262.5,80.49 57.75,27.81 108,64.97 148.4,109.72 3.64,-10.69 7.41,-21.33 11.27,-31.97 64.52,-178.65 157.04,-348.33 290.76,-484.84 149.23,-152.34 339.54,-233.01 552.86,-233.01 90.48,0 185.48,7.18 271.78,35.92 51.71,17.25 102.36,37.83 151.15,62.18 34.46,17.25 69.09,34.06 103.2,50.29 20.18,8.78 57.21,14.73 78.85,18.14 40.01,6.3 73.23,18.01 108.4,38.1 121.87,69.67 225.69,164.58 290.53,290.53 49.06,95.14 80.41,197.32 94.38,303.4 7.67,58.59 11.8,117.53 12.6,176.52 33.08,-66.04 76.1,-127.91 129.14,-184.5 113.05,-120.54 246.59,-215.85 396.81,-284.77 135.71,-62.31 277.94,-108.26 424.74,-135.8 109.63,-20.54 227.47,-39.12 339.14,-39.12 107.68,0 212.62,22.35 312.01,63.29 186.36,76.73 292.62,245.74 292.62,445.98 0,55.4 -9.58,111.72 -21.33,165.79 -15.17,69.8 -39.3,137.17 -71.23,201.03 -37.25,74.51 -86.93,141.26 -147.51,198.52 -95.13,89.81 -217.23,134.6 -347.7,134.6 -70.12,0 -136.6,-19.74 -195.23,-55 75.66,68.84 154.65,134.21 235.58,196.7 107.38,82.89 212,169.59 312.05,261.13 134.56,123.07 235.37,279.67 235.37,467.81 0,178.28 -67.5,341.05 -207.43,454.72 -93.62,76.06 -200.33,131.19 -316.13,165.07 -96.59,28.3 -195.76,46.7 -296.17,54.02 -62.26,4.57 -126.3,9.31 -188.75,9.31 -79.83,0 -160.72,-8.65 -239.67,-20.22 -94.73,-13.88 -188.09,-35.97 -278.92,-66.26 -37.43,-12.46 -73.88,-27.14 -109.1,-44.13 -114.47,81.92 -246.58,124.98 -387.57,124.98 -157.98,0 -301.9,-49.27 -424.52,-139.66 -49.68,63.73 -106.04,121.88 -169.24,172.83 -116.16,93.72 -255.5,140.73 -404.7,140.73 -51.45,0 -102.09,-5.59 -151.19,-21.96 -15.7,-5.23 -31.22,-11.04 -46.57,-17.29 -1.37,0 -2.79,0 -4.17,0 -167.82,0 -322.11,-57.92 -444.69,-172.84 -122.37,105.65 -273.73,161.57 -441.55,161.57 -208.23,0 -394.59,-79.47 -529.41,-239.22 -99.3,-117.53 -170.75,-253.07 -218.6,-398.76 -2.62,4.17 -5.28,8.3 -7.94,12.47 -77.7,120.54 -177.45,222.01 -297.19,300.96 -143.21,94.33 -307.97,133.85 -478.19,133.85 -166.8,0 -321.93,-56.73 -460.35,-147.29 -2.04,-1.33 -3.82,-2.48 -5.72,-3.82 -70.34,69.77 -149.02,130.79 -234.66,183.04 -170.44,104 -362.96,147.6 -561.34,147.6 -178.82,0 -356.93,-31.4 -516.81,-114.3 -108.22,-56.14 -204.1,-128.74 -285.57,-217.09 -8.69,6.12 -17.48,12.11 -26.39,18.01 -143.21,94.33 -307.97,133.85 -478.14,133.85 -166.8,0 -321.94,-56.73 -460.4,-147.29 -2.48,-1.6 -4.57,-3.02 -7.01,-4.7 -145.46,-100.68 -252.35,-236.57 -312.09,-401.9 -11.35,34.46 -23.55,68.65 -36.54,102.58 -51.71,134.91 -120.68,262.68 -210.8,375.95 -111.23,139.84 -260.33,232.22 -437.73,252.05 -33.18,5.59 -66.75,8.42 -100.41,8.42 -18.72,0 -37.39,0 -56.11,0 -225.69,0 -447.98,-52.86 -624.58,-200.02 -28.12,-23.41 -54.77,-48.07 -79.92,-73.84 -11.93,9.58 -24.08,18.85 -36.45,27.85 -115.54,84 -249.25,128.22 -392.1,128.22 -157.98,0 -301.9,-49.27 -424.52,-139.66 -49.68,63.73 -106.05,121.88 -169.24,172.83 -116.2,93.72 -255.51,140.73 -404.7,140.73 -51.45,0 -102.09,-5.59 -151.19,-21.96 -15.7,-5.23 -31.22,-11.04 -46.57,-17.29 -1.42,0 -2.79,0 -4.17,0 -168.08,0 -322.55,-58.1 -445.23,-173.32 -47.58,-44.71 -89.27,-94.11 -125.55,-147.25 -112.21,58.19 -236.65,84.98 -365.94,84.98 -169.77,0 -326.77,-45.73 -446.2,-143.03 -61.69,125.2 -185.52,192.08 -323.27,212.48 -50.91,7.54 -104.53,14.68 -156.02,14.68 -73.09,0 -148,-3.41 -220.07,-15.97 -51.67,-8.95 -100.9,-25.14 -146.09,-48.51 -97.26,53.48 -204.85,81.29 -318.21,81.29 -157.98,0 -301.85,-49.27 -424.52,-139.66 -49.67,63.73 -106,121.88 -169.2,172.83 -116.19,93.72 -255.54,140.73 -404.69,140.73 -51.49,0 -102.14,-5.59 -151.19,-21.96 -15.75,-5.23 -31.27,-11.04 -46.57,-17.29 -1.42,0 -2.84,0 -4.17,0 -168.09,0 -322.6,-58.1 -445.27,-173.32 -98.59,-92.65 -172.04,-205.61 -224.06,-330.06 -14.64,17.79 -29.58,35.35 -44.75,52.69 -153.67,175.23 -340.03,314.31 -563.91,385.27 -164.63,52.2 -338.08,87.81 -511.36,87.81 -458.31,0 -845.27,-181.48 -1091.86,-575.97 -252.53,-404.08 -314.84,-930.2 -314.84,-1397.25 0,-285 24.39,-570.79 82.36,-850.06 50.38,-242.55 122.5,-484.13 228.85,-708.36 93.89,-197.98 217.22,-384.34 381.85,-530.7 166.31,-147.77 365.54,-237.49 590.26,-237.49l117.79 0c98.64,0 197.36,14.01 289.34,50.82 66.62,26.61 130.3,59.92 190.35,99.08 47.95,31.27 95.22,63.55 141.92,96.64 34.02,24.08 73.76,43.95 111.85,60.63 204.5,89.5 340.75,256.07 402.62,469.58 47.23,162.94 68.69,331.42 68.69,500.93 0,57.79 -1.06,115.58 -2.97,173.32 -3.01,89.85 -20.04,178.29 -53.48,261.89 -39.16,97.97 -102.14,182.01 -183.79,248.85 -100.28,82.05 -223.66,120.14 -350.99,132.25 -10.55,1.02 -19.6,1.46 -30.2,1.46 -210.89,0 -399.82,-88.83 -503.46,-277.23 -67.11,-122.05 -101.12,-255.41 -101.12,-394.67 0,-70.3 5.5,-141.12 13.08,-210.93 5.9,-54.64 8.96,-109.59 9.32,-164.54 -64.53,74.69 -108.35,168.93 -138.95,261.93 -47.41,144.05 -75.93,295.11 -92.52,445.63 -18.58,169.07 -28.91,339.19 -28.91,509.28 0,158.9 3.59,318.12 13.39,476.76 6.87,111.14 22.93,224.81 56.24,331.3 23.28,74.46 57.12,145.2 106.35,206.09 45.28,56.01 112.07,95.89 177.26,124.4 13.18,5.77 32.11,6.92 46.17,6.92 43.51,0 82.76,-9.8 121.52,-29.58 49.45,-25.28 92.12,-58.45 129.15,-99.88 40.27,-45.01 71.09,-96.06 93.93,-151.94 21.38,-52.47 32.47,-106.31 32.47,-162.9 0,-136.64 25.23,-270.85 84.09,-394.72 85.37,-179.75 248.09,-287.07 444.96,-293.73 25.72,-171.63 64.84,-342.29 123.74,-505.23 64.57,-178.65 157.09,-348.33 290.76,-484.84 149.28,-152.34 339.54,-233.01 552.87,-233.01 90.52,0 185.51,7.18 271.77,35.92 51.76,17.25 102.41,37.83 151.15,62.18 34.46,17.25 69.1,34.06 103.2,50.29 20.18,8.78 57.21,14.73 78.86,18.14 40,6.3 73.26,18.01 108.43,38.1 121.88,69.67 225.66,164.58 290.54,290.53 31.53,61.25 55.79,125.43 72.78,191.69l1.55 -35.22c4.48,-222.72 174.34,-382.43 396.94,-382.43 43.68,0 87.85,5.59 130.87,12.77 49.28,8.21 97.93,20.01 145.74,34.33 61.95,18.58 121.65,44.22 176.11,79.25 105.38,67.73 175.14,174.12 184.45,298.17 64.71,-34.37 136.74,-54.28 215.46,-54.28 134.87,0 264.59,37.52 366.64,128.79 57.79,51.76 104.09,113.22 138.73,181.7 19.51,-78.59 42.66,-156.16 70.12,-232.08 64.52,-178.65 157.04,-348.33 290.75,-484.84 149.24,-152.34 339.55,-233.01 552.87,-233.01 90.48,0 185.48,7.18 271.78,35.92 51.71,17.25 102.36,37.83 151.15,62.18 34.46,17.25 69.09,34.06 103.2,50.29 20.18,8.78 57.21,14.73 78.85,18.14 40.01,6.3 73.23,18.01 108.4,38.1 121.87,69.67 225.69,164.58 290.53,290.53 49.01,95.14 80.41,197.32 94.38,303.4 0.76,6.04 1.51,12.07 2.26,18.05 12.91,-89.27 27.99,-178.24 45.11,-266.85 27.32,-141.39 140.54,-243.79 283.93,-256.83 18.49,-1.64 37.83,-4.3 55.74,-9.32 64.31,-17.82 130.79,-25.63 197.45,-25.63 16.81,0 33.62,0 50.47,0 41.29,0 82.49,2.97 123.43,8.43 45.59,6.07 90.69,15.83 134.34,30.38 72.51,24.17 135.09,66.65 179.66,122.8 3.01,-1.51 6.07,-3.06 9.09,-4.57 24.57,-12.28 49.72,-23.32 75.44,-32.95 46.21,-17.34 89.45,-28.74 139.92,-28.74 35.17,0 70.12,4.48 104.63,10.78 19.55,3.55 39.16,6.74 58.8,9.76 34.6,5.32 68.97,12.37 102.72,21.6 34.5,9.4 68.39,20.26 100.45,36.27 7.81,3.91 14.28,7.45 21.73,11.93 52.43,31.49 95.22,73.67 126.8,123.3 34.37,-45.46 79.83,-83.16 133.41,-109.9 18.98,-9.49 38.45,-17.74 58.36,-24.84 -89.72,-69.98 -164.4,-157.31 -226.36,-251.91 -5.15,-7.36 -11.27,-14.81 -16.9,-21.86 -55.88,-69.81 -92.25,-146.09 -92.25,-238.25 0,-145.65 85.24,-264.59 210.71,-331.52 39.56,-21.06 80.36,-39.96 121.65,-57.39 49.1,-20.66 99.75,-37.92 151.59,-50.11 45.02,-10.6 91.05,-19.69 137.49,-19.69 128.88,0 252.48,32.5 366.91,91.18 140.98,72.29 240.82,192.04 308.67,332.05 7.14,9.89 14.51,19.74 21.6,29.45 54.42,74.2 92.52,152.38 92.52,247.25 0,137.49 -70.48,258.47 -185.57,332.45 -35.65,22.93 -73.53,41.73 -113.04,56.46 97.08,77.74 154.29,188.93 162.85,313.06 9.93,84.58 -13.39,166.14 -54.86,242.51 -6.39,17.43 -11.36,40.85 -15.26,60.32 -3.37,26.21 -6.96,52.42 -11,78.54 -3.68,24.08 -6.92,48.21 -9.98,72.38 -4.03,32.38 -7.09,64.97 -9.93,97.48 -4.26,48.79 -7.27,97.84 -10.02,146.76l0 131.81c8.6,-99.17 23.1,-197.94 41.69,-295.64 33.88,-177.85 87.9,-350.99 164.36,-515.22 76.68,-164.63 179.04,-314.66 311.51,-439.51 158.16,-148.97 354.8,-224.1 571.81,-224.1 113.27,0 223.3,24.08 325.93,72.16 91.89,43.11 175.32,100.81 247.07,172.56 0.85,0.89 1.73,1.73 2.53,2.58 5.55,-3.11 11.18,-6.12 16.94,-8.96 18.99,-9.49 38.46,-17.74 58.37,-24.84z"/>
   <path class="fil1" d="M10416.56 959.81c2.36,-1.02 4.66,-2 7.01,-3.02 39.78,-16.72 80.76,-30.6 122.76,-40.49 39.3,-9.27 78.41,-16.5 118.99,-16.5 106.53,0 209.03,26.66 303.58,75.18 116.07,59.51 200.07,156.29 257.14,270.89 3.55,4.83 7.1,9.66 10.6,14.41 34.46,46.97 60.81,96.06 74.11,150.35 8.78,-2.4 17.65,-4.53 26.57,-6.52 43.73,-9.71 88.34,-15.61 133.18,-15.61 188.85,0 326.73,120.58 371.21,287.16 21.96,2.75 43.87,5.99 65.73,9.58 73.22,12.24 144.94,33 211.95,65.29 22.04,10.6 42.84,22.75 62.31,36.32 6.3,-13.04 12.82,-25.99 19.47,-38.85 41.82,-80.67 90.56,-160.73 150.21,-229.56 2.53,-2.92 4.71,-5.36 7.32,-8.16 68.26,-73.49 150.93,-129.9 246.06,-162.59 70.78,-24.3 144.62,-39.29 219.66,-39.29 94.69,0 186.1,23.42 270.63,65.64 63.77,31.89 123.56,71.05 179.44,115.31 54.55,43.2 105.55,90.83 153.1,141.61 39.56,42.31 78.41,85.33 116.41,129.06 28.03,31.49 51.1,66.08 70.12,102.8 24.57,-4.61 49.85,-6.96 75.53,-6.96 152.83,0 282.2,97.7 330.23,241.84 15.21,45.64 24.35,92.56 24.35,140.77 0,3.59 -0.04,6.65 -0.18,10.29 -3.99,124.44 -31.93,244.85 -88.7,356.08 -38.76,76.02 -83.29,149.51 -135.4,217.14 -28.56,38.72 -60.18,74.87 -94.51,108.44 -1.73,13.7 -3.9,27.32 -6.65,40.8 -10.47,67.59 -30.38,134.69 -52.73,199.04 -30.96,88.93 -73.49,173.15 -125.51,251.6 -58.06,87.59 -129.82,164.32 -213.59,227.65 -111.41,84.27 -242.73,126.53 -382.35,126.53 -45.81,0 -91.62,-4.88 -136.73,-12.73 -43.42,-7.54 -86.39,-17.69 -128.7,-30.07 -41.91,-12.19 -83.16,-26.47 -123.56,-42.97 -40.45,-16.59 -79.97,-35.75 -117.31,-58.45 -13.53,-7.68 -26.83,-15.66 -39.96,-23.91 -106.44,98.99 -241.75,152.12 -391.08,152.12 -175.54,0 -334.04,-68.56 -447.67,-203.12 -43.02,-51 -79.56,-106.26 -110.03,-164.76 -43.02,45.55 -91.23,86.08 -144.32,121.03 -117.21,77.26 -252.08,110.65 -391.56,110.65 -115.23,0 -223.93,-32.28 -323.32,-86.79 -16.05,20.27 -32.82,40 -50.33,59.16 -113.36,124.14 -262.73,195.85 -431.49,195.85 -140.41,0 -272.35,-42.75 -383.4,-128.83 -24.57,-19.03 -47.64,-39.52 -69.28,-61.3 -15.79,10.87 -31.93,21.34 -48.39,31.36 -136.11,83.07 -289.78,118.72 -448.29,118.72 -133.18,0 -265.21,-22.53 -385.84,-79.38 -36.06,84.22 -96.38,157.09 -174.48,214.21 -118.9,87.01 -260.78,121.56 -406.42,121.56 -148.04,0 -291.12,-38.01 -408.47,-131.23 -32.64,-25.94 -61.02,-54.9 -85.64,-86.3 -56.01,46.74 -122.09,77.39 -192.88,96.41 -50.55,13.62 -102.31,23.24 -154.42,29.05 -45.82,5.1 -91.85,7.94 -137.98,7.94 -22.7,0 -45.41,0 -68.12,0 -101.83,0 -198.51,-33.97 -275.19,-101.47 -1.69,-1.47 -3.1,-2.75 -4.75,-4.26 -65.15,-59.74 -105.95,-136.69 -129.54,-221 -18.36,-65.5 -26.17,-134.73 -29.5,-202.59 -3.59,-73.53 -4.34,-147.51 -4.34,-221.13 0,-96.15 0,-192.3 0,-288.41 0,-122.85 1.51,-245.65 4.03,-368.46 2.8,-135.67 7.72,-271.33 14.37,-406.91 6.61,-135.14 15.39,-270.18 26.75,-405.05 6.03,-71.45 13.48,-142.85 22.7,-214.08 -5.18,2.53 -10.33,5.06 -15.47,7.63 -43.56,21.78 -86.8,46.83 -126.27,76.1 1.73,13.26 3.5,26.53 5.23,39.79 3.64,28.11 7.46,56.19 11.49,84.26 4.84,33.93 9.18,68.83 9.18,103.16 0,48.61 -4.83,97.04 -14.99,144.63 -36.85,172.56 -183.48,289.38 -359.59,289.38 -107.59,0 -210.84,-30.11 -299.76,-90.87 -67.1,-45.82 -124.32,-103.47 -171.02,-169.86 -41.6,-59.08 -75.13,-123.25 -98.72,-191.64 -22.44,-65.06 -37.43,-132.87 -37.43,-201.97 0,-116.2 37.25,-225.7 103.95,-320.61 46.93,-66.83 101.88,-127.46 163.44,-181.12 56.99,-49.72 117.83,-94.74 182.05,-134.65 46.3,-28.79 92.96,-57.08 140.28,-84.13 2.4,-1.38 4.44,-2.49 6.88,-3.77 250.35,-135.09 518.8,-252.93 795.77,-320.79 224.46,-54.99 455.92,-89.28 687.34,-89.28 175.94,0 343.58,45.15 493.62,137.09 121.07,74.24 230.71,164.81 324.06,272 83.83,96.24 156.83,201.75 210.18,317.99 45.41,98.95 85.11,208.36 85.11,318.48 0,1.55 0,3.1 0,4.7 45.37,-19.91 92.91,-34.59 142.14,-44.08 64.97,-127.33 205.3,-200.2 360.12,-212.09 15.92,-1.24 31.93,-2.3 47.95,-3.23 0.17,-7.72 0.39,-15.48 0.57,-23.24 1.33,-56.02 3.37,-111.99 6.39,-167.91 3.06,-56.73 8.65,-114.25 20.22,-169.91 34.91,-167.38 154.3,-301.62 337.86,-301.62 40.01,0 81.03,5.63 120.5,11.7 46.08,7.1 91.81,16.55 137,27.86 54.15,13.52 107.41,31.44 157.84,55.48 118.95,56.63 205.7,159.08 221.17,289.43z"/>
   <path class="fil2" d="M8546.32 1492.76c0,104.14 -22.03,205.62 -66.09,303.76 -44.06,98.8 -101.48,187.6 -172.91,267.71 -70.77,80.11 -151.55,147.54 -242.34,201.62 -90.8,54.74 -183.6,90.12 -277.06,106.15 61.42,21.36 123.51,46.06 186.26,74.1 62.76,28.04 118.17,75.44 166.24,142.2 26.7,37.39 47.4,86.79 62.08,148.21 14.69,61.42 25.37,126.85 32.05,196.28 6.68,69.43 12.02,138.86 16.02,208.29 4.01,69.43 10.02,132.19 18.03,188.27 8.01,56.08 19.36,101.47 34.05,136.19 14.68,34.72 35.38,52.07 62.08,52.07 29.38,0 52.08,-6.01 68.1,-18.02 16.02,-12.02 33.38,-32.72 52.07,-62.09 2.67,8.01 4.68,15.35 6.01,22.03 1.34,6.68 2,15.36 2,26.04 0,56.08 -27.37,104.14 -82.11,144.2 -54.75,40.06 -127.52,60.09 -218.31,60.09 -88.12,0 -158.22,-20.7 -210.3,-62.09 -52.07,-41.39 -84.78,-112.83 -98.13,-214.3 -24.04,-189.6 -41.4,-344.49 -52.08,-464.66 -10.68,-120.17 -25.37,-213.63 -44.06,-280.39 -18.69,-66.77 -45.4,-112.16 -80.78,-136.2 -34.72,-24.03 -87.46,-36.05 -157.56,-36.05 -13.35,0 -34.04,1.34 -62.08,4.01 -28.71,2.67 -42.73,9.34 -42.73,20.03 -5.34,24.03 -8.01,80.11 -8.01,168.23 0,88.13 0,188.27 0,300.43l0 448.63c0,10.68 2,28.04 6.01,52.07 4.67,24.04 23.36,41.4 56.74,52.08 -16.69,16.02 -42.06,28.7 -76.77,38.05 -34.72,9.35 -70.77,16.02 -106.82,20.03 -36.05,4 -70.1,6.01 -102.81,6.01 -32.05,0 -54.75,0 -68.1,0 -26.7,0 -48.07,-7.35 -64.76,-22.03 -16.02,-14.69 -28.7,-38.73 -38.05,-72.11 -9.35,-33.38 -15.35,-77.44 -18.02,-132.18 -2.67,-54.75 -4.01,-122.84 -4.01,-205.63 0,-80.11 0,-176.24 0,-288.4 0,-111.49 1.34,-232.33 4.01,-361.85 2.67,-129.51 7.34,-261.7 14.02,-397.89 6.67,-136.19 15.35,-267.04 26.03,-393.89 10.68,-126.84 25.37,-244.34 44.06,-351.83 18.7,-108.15 41.4,-198.28 68.1,-270.38 -5.34,-5.34 -12.02,-14.02 -20.03,-26.04 -8.01,-12.01 -14.69,-18.02 -20.03,-18.02l-28.04 0c-61.42,0 -138.19,14.02 -230.32,42.06 -92.13,28.04 -180.92,63.42 -266.38,106.15 -85.45,42.72 -158.89,90.12 -220.31,142.2 -61.42,52.07 -92.13,102.14 -92.13,149.54 0,10.68 2.01,30.71 6.01,60.09 4.01,29.37 8.01,59.41 12.02,90.12 4,30.71 8.01,60.09 12.02,88.13 4,28.04 6,47.4 6,58.08 0,26.7 -2.67,52.74 -8.01,78.11 -5.34,24.7 -21.36,37.39 -48.07,37.39 -45.39,0 -85.45,-12.02 -120.16,-35.39 -34.72,-24.03 -64.76,-54.07 -90.13,-90.12 -25.37,-36.06 -44.73,-73.44 -58.08,-112.16 -13.36,-38.72 -20.03,-71.44 -20.03,-98.14 0,-48.07 15.35,-94.13 46.06,-137.53 30.71,-44.06 68.1,-85.45 112.16,-124.17 44.73,-38.72 91.46,-73.44 140.87,-104.15 49.4,-30.71 92.79,-56.75 130.18,-78.11 262.37,-141.53 502.04,-238.34 720.35,-291.75 217.64,-53.4 421.93,-80.11 611.53,-80.11 120.17,0 229.66,30.04 327.13,90.13 97.47,59.42 180.92,129.51 250.35,209.63 70.1,80.11 123.51,160.22 160.89,241.67 37.39,81.45 56.08,142.87 56.08,185.6zm-320.45 -70.1c0,-136.19 -52.74,-239.01 -158.22,-308.44 -105.48,-69.43 -242.34,-104.14 -410.58,-104.14 -10.68,0 -23.37,0 -38.06,0 -14.68,0 -48.73,1.33 -102.14,4 -24.03,2.67 -43.39,19.36 -58.08,50.07 -14.69,30.71 -22.03,80.78 -22.03,150.21l0 929.32c0,37.38 6.01,61.41 18.02,72.1 12.02,10.68 44.73,16.02 98.14,16.02 88.13,0 172.91,-28.71 254.36,-86.12 81.45,-57.42 152.88,-127.52 214.3,-210.3 61.42,-82.78 110.83,-170.91 148.21,-264.37 37.39,-93.47 56.08,-176.25 56.08,-248.35z"/>
   <path id="1" class="fil2" d="M9784.07 2728.5c0,66.76 -12.02,141.53 -36.05,224.32 -24.03,82.78 -61.42,159.55 -112.16,230.32 -50.74,70.77 -115.49,130.18 -194.27,178.25 -78.78,48.07 -172.91,72.1 -282.4,72.1 -104.15,0 -192.27,-18.69 -264.37,-56.07 -72.1,-37.39 -131.52,-88.13 -178.25,-152.22 -46.74,-64.09 -80.12,-139.53 -100.15,-226.32 -20.02,-86.79 -30.04,-178.25 -30.04,-274.39 0,-93.46 10.68,-196.27 32.05,-308.43 21.36,-112.16 54.74,-216.97 100.14,-314.44 45.4,-97.48 102.81,-178.92 172.24,-244.35 69.43,-65.42 153.55,-98.14 252.36,-98.14 48.07,0 93.46,10.02 136.19,30.05 42.73,20.02 80.11,46.06 112.16,78.11 32.04,32.04 57.41,69.43 76.11,112.15 18.69,42.73 29.37,86.79 32.04,132.19l4.01 56.08c0,64.09 -10.69,134.19 -32.05,210.3 -21.36,76.1 -52.07,146.87 -92.13,212.29 -40.06,65.43 -89.46,120.17 -148.21,164.24 -58.75,44.06 -125.51,66.09 -200.28,66.09 -13.35,0 -30.04,-1.34 -50.07,-4.01 -20.03,-2.67 -39.39,-6.67 -58.08,-12.01l0 116.16c0,18.69 6.01,45.4 18.02,80.11 12.02,34.72 30.04,68.77 54.08,102.15 24.03,33.38 55.41,62.75 94.13,88.12 38.72,25.37 86.12,38.06 142.2,38.06 77.44,0 140.87,-15.36 190.27,-46.07 49.4,-30.71 90.13,-70.1 122.17,-118.17 32.05,-48.06 56.75,-102.14 74.11,-162.22 17.35,-60.09 31.37,-118.17 42.06,-174.25 8.01,-37.39 16.02,-62.76 24.03,-76.11 8.01,-13.35 21.36,-20.03 40.06,-20.03 40.05,0 60.08,22.7 60.08,68.1l0 28.04zm-472.67 -620.88c0,-21.36 -6,-44.06 -18.02,-68.09 -12.02,-24.04 -34.05,-36.05 -66.09,-36.05 -48.07,0 -89.46,25.37 -124.18,76.1 -34.71,50.74 -63.42,108.82 -86.12,174.25 -22.7,65.43 -39.39,128.18 -50.07,188.27 -10.68,60.08 -16.02,99.47 -16.02,118.16l0 12.02c0,24.03 2,43.39 6,58.08 4.01,14.69 18.03,22.03 42.06,22.03l20.03 0c53.41,0 98.81,-20.03 136.19,-60.08 37.39,-40.06 67.43,-88.13 90.13,-144.21 22.7,-56.07 39.39,-113.49 50.07,-172.24 10.68,-58.75 16.02,-106.82 16.02,-144.2l0 -24.04z"/>
   <path id="2" class="fil2" d="M9675.92 2620.35c2.67,-136.19 6.68,-275.06 12.02,-416.59 5.34,-141.53 10.68,-272.38 16.02,-392.55 0,-21.37 -21.36,-36.05 -64.09,-44.07 -42.73,-8.01 -90.79,-16.02 -144.2,-24.03 -53.41,-8.01 -101.48,-20.7 -144.21,-38.05 -42.72,-17.36 -64.09,-46.07 -64.09,-86.13 0,-34.71 34.72,-54.74 104.15,-60.08 69.43,-5.34 172.24,-8.01 308.44,-8.01 10.68,0 18.02,-16.02 22.03,-48.07 4,-32.04 6.67,-72.77 8.01,-122.17 1.33,-49.4 2.67,-102.15 4,-158.22 1.34,-56.08 3.34,-108.82 6.01,-158.23 2.67,-49.4 7.35,-90.12 14.02,-122.17 6.68,-32.05 15.36,-48.07 26.04,-48.07 13.35,0 37.38,2.67 72.1,8.01 34.72,5.34 70.77,12.69 108.15,22.03 37.39,9.35 70.1,20.7 98.14,34.05 28.04,13.35 42.06,28.04 42.06,44.06l-44.06 520.74c0,16.02 14.02,27.37 42.06,34.05 28.04,6.67 64.09,10.68 108.15,12.01 44.06,1.34 90.79,2.01 140.2,2.01 49.4,0 96.13,4 140.2,12.01 44.06,8.02 80.11,20.7 108.15,38.06 28.04,17.36 42.06,43.39 42.06,78.11 0,5.34 -2.67,14.02 -8.01,26.03 -5.34,12.02 -12.02,18.03 -20.03,18.03 -5.34,0 -12.69,-4.01 -22.03,-12.02 -9.35,-8.01 -34.05,-12.01 -74.11,-12.01 -10.68,0 -40.05,1.33 -88.12,4 -48.07,2.67 -98.81,6.68 -152.22,12.02 -53.41,5.34 -102.14,11.35 -146.2,18.02 -44.07,6.68 -68.77,15.36 -74.11,26.04 -2.67,5.34 -6.01,36.72 -10.01,94.13 -4.01,57.42 -8.01,132.86 -12.02,226.32 -4,93.47 -7.34,200.95 -10.01,322.46 -2.67,121.5 -4.01,249.02 -4.01,382.54 0,50.74 2.67,100.14 8.01,148.21 5.34,48.06 13.35,91.46 24.04,130.18 10.68,38.72 24.7,70.1 42.06,94.13 17.35,24.04 38.05,36.05 62.08,36.05 34.72,0 66.76,-14.68 96.14,-44.06 29.37,-29.37 56.08,-69.43 80.11,-120.17 24.04,-50.74 45.4,-108.15 64.09,-172.24 18.7,-64.09 34.72,-129.52 48.07,-196.28 8.01,-40.05 17.36,-68.76 28.04,-86.12 10.68,-17.36 26.7,-26.04 48.07,-26.04 18.69,0 35.38,6.01 50.07,18.03 14.69,12.02 22.03,39.39 22.03,82.12 0,26.7 -1.34,44.06 -4.01,52.07 -8.01,48.07 -23.36,114.16 -46.06,198.28 -22.7,84.12 -53.41,166.9 -92.13,248.35 -38.72,81.45 -86.12,152.88 -142.2,214.3 -56.08,61.42 -121.51,92.13 -196.28,92.13 -72.1,0 -134.86,-20.7 -188.26,-62.09 -53.41,-41.39 -98.14,-98.8 -134.19,-172.24 -36.05,-73.44 -63.43,-160.23 -82.12,-260.37 -18.69,-100.14 -28.04,-207.62 -28.04,-322.45l0 -36.05z"/>
   <path id="3" class="fil2" d="M11001.79 1490.75c0,18.7 -9.35,34.05 -28.04,46.07 -18.69,12.02 -39.39,20.69 -62.09,26.04 -22.7,5.34 -44.73,9.34 -66.09,12.01 -21.36,2.67 -34.72,4.01 -40.06,4.01 -56.08,0 -111.49,-16.02 -166.23,-48.07 -54.74,-32.04 -104.82,-82.78 -150.21,-152.21 -5.34,-8.02 -13.35,-18.7 -24.04,-32.05 -10.68,-13.35 -16.02,-22.7 -16.02,-28.04 0,-13.35 10.01,-25.37 30.04,-36.05 20.03,-10.68 42.73,-21.36 68.1,-32.04 25.37,-10.69 49.4,-18.7 72.1,-24.04 22.7,-5.34 38.05,-8.01 46.07,-8.01 53.4,0 106.15,13.35 158.22,40.06 52.07,26.7 94.13,76.1 126.18,148.21 5.34,8.01 15.35,22.03 30.04,42.05 14.69,20.03 22.03,34.05 22.03,42.06zm408.58 1213.72c-8.01,64.09 -22.7,130.85 -44.07,200.28 -21.36,69.43 -51.4,134.19 -90.12,194.27 -38.72,60.09 -87.46,109.49 -146.21,148.21 -58.75,38.72 -130.85,58.08 -216.3,58.08 -66.76,0 -134.86,-22.7 -204.29,-68.09 -69.43,-48.07 -116.83,-110.83 -142.2,-188.27 -25.37,-77.44 -38.06,-152.21 -38.06,-224.31 0,-21.37 1.34,-53.41 4.01,-96.14 2.67,-42.73 4.01,-94.8 4.01,-156.22l0 -440.62c0,-21.37 -0.67,-44.06 -2.01,-68.1 -1.33,-24.03 -4.67,-46.73 -10.01,-68.09 -2.67,-10.69 -7.35,-22.7 -14.02,-36.05 -6.68,-13.36 -10.02,-22.7 -10.02,-28.04 0,-10.69 6.68,-19.37 20.03,-26.04 13.35,-6.68 28.04,-11.35 44.06,-14.02 16.03,-2.67 31.38,-4.01 46.07,-4.01 14.69,0 22.03,0 22.03,0 8.01,0 26.71,0.67 56.08,2.01 29.37,1.33 60.08,6 92.13,14.02 32.04,8.01 60.75,20.69 86.12,38.05 25.37,17.36 38.05,42.06 38.05,74.1 2.68,8.02 -2,22.7 -14.01,44.07 -12.02,21.36 -23.37,58.75 -34.05,112.15 -2.67,21.37 -5.34,40.73 -8.01,58.09 -2.67,17.35 -5.35,36.71 -8.02,58.08 -2.67,21.36 -5.34,47.4 -8.01,78.11 -2.67,30.71 -5.34,70.1 -8.01,118.17l0 240.33c0,42.73 1.34,86.13 4.01,130.19 2.67,44.06 8.68,84.12 18.02,120.17 9.35,36.05 24.7,65.42 46.07,88.12 21.36,22.7 49.4,34.05 84.12,34.05 50.73,0 90.79,-14.69 120.17,-44.06 29.37,-29.38 52.07,-54.75 68.09,-76.11 29.38,-40.06 52.08,-90.13 68.1,-150.21 16.02,-60.09 30.71,-122.17 44.06,-186.26l8.01 -40.06c8.01,-40.06 32.05,-60.09 72.1,-60.09 40.06,0 60.09,28.04 60.09,84.12l0 20.03 -8.01 60.09z"/>
   <path id="4" class="fil2" d="M12411.78 2780.57c0,18.7 -6.01,63.43 -18.03,134.19 -12.02,70.77 -33.38,145.54 -64.09,224.32 -30.71,78.78 -72.1,148.88 -124.17,210.3 -52.08,61.42 -118.17,92.13 -198.28,92.13 -85.46,0 -153.55,-30.05 -204.29,-90.13 -50.74,-60.09 -89.46,-132.19 -116.17,-216.31 -26.7,-84.12 -44.06,-172.24 -52.07,-264.37 -8.01,-92.13 -12.02,-168.9 -12.02,-230.32 0,-69.44 4.01,-139.53 12.02,-210.3 8.01,-70.77 13.35,-140.87 16.02,-210.3 0,-21.36 -10.68,-34.71 -32.04,-40.05 -21.37,-5.34 -41.39,-8.02 -60.09,-8.02 -32.04,0 -52.07,4.01 -60.08,12.02 -8.01,8.01 -13.35,17.36 -16.02,28.04l-16.03 128.18c-10.68,85.46 -22.03,167.57 -34.04,246.35 -12.02,78.78 -25.37,148.21 -40.06,208.29 -14.69,60.09 -32.05,108.16 -52.07,144.21 -20.03,36.05 -43.4,54.07 -70.1,54.07l-4.01 0c-10.68,0 -20.7,-2.67 -30.04,-8.01 -9.35,-5.34 -14.02,-18.69 -14.02,-40.05 0,-10.69 2.67,-26.71 8.01,-48.07 21.36,-93.47 34.72,-170.91 40.06,-232.33 5.34,-61.42 9.34,-116.16 12.01,-164.23l0 -28.04c0,-13.35 0.67,-29.38 2.01,-48.07 1.33,-18.69 2,-41.39 2,-68.1l0 -104.14c0,-29.38 0,-60.09 0,-92.13 0,-32.05 -2.67,-66.76 -8.01,-104.15l-12.02 -236.33c0,-16.03 6.68,-30.71 20.03,-44.06 13.35,-13.36 30.71,-25.37 52.07,-36.06 21.37,-10.68 44.06,-18.69 68.1,-24.03 24.03,-5.34 45.4,-8.01 64.09,-8.01 45.4,0 68.1,29.37 68.1,88.12l0 20.03 -4.01 88.13 0 24.03c0,18.69 4.01,30.04 12.02,34.05 8.01,4 24.03,8.68 48.06,14.02l12.02 0c21.36,2.67 56.08,5.34 104.15,8.01 48.07,2.67 96.13,8.01 144.2,16.02 48.07,8.01 90.13,20.7 126.18,38.06 36.05,17.35 54.08,42.05 54.08,74.1 0,10.68 -2.67,26.04 -8.02,46.06 -5.34,20.03 -12.01,40.06 -20.02,60.09 -8.02,20.03 -14.69,38.05 -20.03,54.08 -5.34,16.02 -8.01,26.7 -8.01,32.04 -48.07,184.26 -72.11,376.53 -72.11,576.81 0,16.03 1.34,45.4 4.01,88.13 2.67,42.73 8.01,86.79 16.02,132.19 8.01,45.39 20.03,85.45 36.05,120.16 16.03,34.72 36.05,52.08 60.09,52.08 40.06,0 76.11,-24.7 108.15,-74.11 32.05,-49.4 60.09,-106.81 84.12,-172.24 24.03,-65.42 43.39,-131.52 58.08,-198.28 14.69,-66.76 24.7,-116.16 30.04,-148.21 5.35,-29.37 14.02,-47.4 26.04,-54.07 12.02,-6.68 23.37,-10.02 34.05,-10.02 37.38,0 56.08,24.04 56.08,72.1 0,5.34 -0.67,19.36 -2,42.06 -1.34,22.7 -3.34,39.39 -6.01,50.07z"/>
   <path id="5" class="fil2" d="M13633.5 2202.42c10.68,-18.69 29.38,-28.03 56.08,-28.03 13.35,0 22.7,8.01 28.04,24.03 5.34,16.02 8.01,29.37 8.01,40.06 -2.67,82.78 -20.7,156.22 -54.08,221.64 -33.38,65.43 -68.76,122.17 -106.15,170.24 -21.36,29.38 -44.73,55.41 -70.09,79.45 -25.37,24.03 -51.41,46.73 -78.11,68.09 -2.68,45.4 -4.68,76.78 -6.01,94.14 -1.34,17.35 -3.34,31.37 -6.01,42.06 -5.34,40.05 -18.69,90.12 -40.06,151.54 -21.36,61.42 -51.4,121.51 -90.13,180.26 -38.72,58.08 -85.45,108.15 -140.19,149.54 -54.75,41.39 -118.17,62.09 -190.27,62.09 -24.04,0 -51.41,-2.67 -82.12,-8.01 -30.71,-5.34 -62.08,-12.69 -94.13,-22.03 -32.05,-9.35 -62.76,-20.03 -92.13,-32.05 -29.37,-12.02 -54.74,-24.7 -76.11,-38.05 -66.76,-37.39 -121.5,-80.78 -164.23,-131.52 -42.73,-50.74 -75.44,-104.82 -98.14,-162.23 -22.7,-57.42 -38.05,-115.5 -46.06,-175.58 -8.01,-60.09 -12.02,-118.17 -12.02,-174.25 0,-95.47 10.01,-192.94 30.04,-291.74 20.03,-98.14 44.73,-192.94 74.11,-283.74 29.37,-90.12 62.75,-171.57 100.14,-243.67 37.39,-72.1 73.44,-127.52 108.15,-167.57 34.72,-37.39 73.44,-63.43 116.17,-78.11 42.72,-14.69 81.44,-22.03 116.16,-22.03 42.73,0 85.45,10.68 128.18,32.04 42.73,21.36 84.12,48.07 124.18,80.11 40.05,31.38 79.44,68.1 118.16,109.49 38.72,41.39 75.44,82.12 110.16,122.17 26.7,29.38 46.73,76.78 60.08,141.54 13.35,65.42 24.04,131.52 32.05,198.28 5.34,37.38 9.34,76.77 12.01,119.5 2.67,42.73 4.01,86.79 4.01,132.19 40.06,-32.05 72.1,-66.1 96.14,-102.15 24.03,-36.05 43.39,-69.43 58.08,-101.48 14.68,-32.04 26.7,-62.08 36.05,-90.12 9.34,-28.04 19.36,-50.07 30.04,-66.1zm-452.64 341.82c0,-10.68 -0.67,-34.72 -2,-72.1 -1.34,-37.39 -4.01,-81.45 -8.01,-132.19 -4.01,-50.74 -10.68,-103.48 -20.03,-158.22 -9.35,-54.75 -22.7,-104.82 -40.06,-150.21 -17.35,-45.4 -39.39,-83.45 -66.09,-114.16 -26.7,-30.71 -60.08,-46.07 -100.14,-46.07 -40.06,0 -78.78,16.02 -116.17,48.07 -37.38,32.04 -70.76,73.44 -100.14,124.17 -29.37,50.74 -52.74,108.16 -70.1,172.25 -17.35,64.09 -26.03,126.84 -26.03,188.26 0,106.82 21.36,184.93 64.09,234.33 42.73,49.41 116.16,74.11 220.31,74.11 77.44,0 140.86,-12.02 190.27,-36.05 49.4,-24.04 74.1,-42.73 74.1,-56.08l0 -76.11zm-20.03 328.46c-32.04,21.37 -76.1,37.39 -132.18,48.07 -56.08,10.68 -102.81,16.02 -140.2,16.02 -72.1,0 -127.51,-5.34 -166.23,-16.02 -38.73,-10.68 -80.79,-32.04 -126.18,-64.09l-4.01 84.12c0,29.37 4.01,60.08 12.02,92.13 8.01,32.04 20.69,61.42 38.05,88.12 17.36,26.71 42.06,48.74 74.11,66.1 32.04,17.35 72.1,26.03 120.17,26.03 58.75,0 108.82,-11.35 150.21,-34.04 41.39,-22.7 74.77,-51.41 100.14,-86.13 25.37,-34.71 44.06,-72.1 56.08,-112.15 12.02,-40.06 18.02,-76.11 18.02,-108.16z"/>
   <path class="fil2" d="M3023.16 6365.49c-26.18,100.96 -68.25,205.66 -126.21,314.11 -57.96,108.44 -129.94,211.27 -215.94,308.49 -127.14,145.84 -267.37,243.06 -420.68,291.67 -153.32,48.62 -291.67,72.92 -415.07,72.92 -370.2,0 -644.11,-142.09 -821.73,-426.29 -177.62,-284.19 -266.42,-693.65 -266.42,-1228.38 0,-280.45 25.24,-542.2 75.72,-785.26 50.48,-243.06 118.72,-455.27 204.73,-636.63 86,-181.36 187.9,-324.39 305.69,-429.09 117.79,-104.7 243.99,-157.05 378.61,-157.05l117.79 0c67.31,0 124.33,9.35 171.08,28.04 46.74,18.7 91.61,42.07 134.61,70.12 43.01,28.04 86.94,57.96 131.81,89.74 44.88,31.79 100.97,62.64 168.28,92.55 112.18,48.61 186.96,137.42 224.36,266.43 37.39,129.01 56.09,266.43 56.09,412.26 0,52.35 -0.94,106.58 -2.81,162.67 -1.87,56.09 -12.15,107.5 -30.85,154.24 -18.69,46.75 -48.61,86.94 -89.74,120.6 -41.13,33.65 -100.96,54.22 -179.49,61.7 -108.44,0 -183.23,-37.4 -224.36,-112.18 -41.13,-74.79 -61.7,-155.19 -61.7,-241.19 0,-48.61 3.74,-107.51 11.22,-176.69 7.48,-69.17 11.22,-139.29 11.22,-210.33 0,-93.49 -14.03,-175.75 -42.07,-246.8 -28.05,-71.05 -85.07,-106.57 -171.08,-106.57 -138.35,0 -251.47,49.54 -339.35,148.64 -87.87,99.09 -157.05,225.29 -207.53,378.61 -50.48,153.31 -86.01,323.45 -106.57,510.42 -20.57,186.97 -30.85,368.33 -30.85,544.07 0,179.49 4.67,344.96 14.02,496.4 9.35,151.45 32.72,287 70.11,406.66 37.4,119.66 91.62,223.43 162.67,311.3 71.04,87.88 170.14,159.86 297.28,215.95 52.35,22.44 110.31,33.65 173.88,33.65 93.48,0 182.29,-21.5 266.43,-64.5 84.13,-43 157.98,-100.03 221.55,-171.08 63.57,-71.04 114.05,-152.37 151.45,-243.99 37.39,-91.61 56.09,-186.03 56.09,-283.26 0,-97.22 17.76,-183.22 53.28,-258.01 35.53,-74.79 94.42,-112.18 176.69,-112.18 59.83,0 99.09,18.7 117.79,56.09 18.69,37.39 28.04,80.39 28.04,129.01 0,86 -9.35,157.05 -28.04,213.14z"/>
   <path id="1" class="fil2" d="M5373.35 6573.02c-7.48,52.36 -26.18,114.06 -56.09,185.1 -29.92,71.05 -68.25,139.29 -114.99,204.73 -46.74,65.44 -100.96,120.6 -162.66,165.47 -61.7,44.87 -129.94,67.31 -204.73,67.31 -112.18,0 -210.34,-43 -294.48,-129.01 -84.13,-86.01 -135.55,-207.53 -154.24,-364.59 -22.44,59.83 -48.62,129.01 -78.53,207.54 -29.92,78.52 -67.31,151.44 -112.18,218.75 -44.87,67.31 -96.29,124.33 -154.25,171.08 -57.96,46.74 -126.2,70.11 -204.73,70.11 -22.44,0 -39.26,-1.87 -50.48,-5.61 -11.22,-3.74 -23.37,-8.41 -36.46,-14.02 -13.09,-5.61 -28.04,-10.29 -44.87,-14.03 -16.83,-3.74 -40.2,-5.6 -70.12,-5.6 -89.74,0 -165.46,-28.98 -227.16,-86.95 -61.7,-57.96 -111.25,-131.81 -148.64,-221.55 -37.39,-89.75 -64.5,-187.91 -81.33,-294.48 -16.83,-106.57 -25.24,-206.6 -25.24,-300.08 0,-224.36 12.15,-437.51 36.46,-639.43 24.3,-201.93 64.5,-380.48 120.59,-535.66 56.09,-155.19 129.01,-278.59 218.75,-370.2 89.75,-91.62 198.19,-137.42 325.33,-137.42 74.78,0 131.81,6.54 171.07,19.63 39.27,13.09 75.73,28.04 109.38,44.87 33.65,16.83 70.11,34.59 109.38,53.29 39.26,18.69 94.41,33.65 165.46,44.87 78.53,44.87 133.68,98.16 165.47,159.86 31.78,61.7 52.35,128.07 61.7,199.12 9.35,71.05 12.15,144.9 8.41,221.56 -3.74,76.65 0,152.37 11.22,227.16 0,3.74 8.41,9.35 25.24,16.83 16.83,7.48 36.46,15.89 58.9,25.24 22.43,9.35 42.06,22.44 58.89,39.26 16.83,16.83 25.24,38.33 25.24,64.51l0 22.43c-37.39,97.23 -59.83,183.23 -67.31,258.02 -7.48,74.79 -11.22,164.53 -11.22,269.23 0,52.35 2.81,109.38 8.42,171.08 5.61,61.7 14.96,119.66 28.04,173.88 13.09,54.22 32.72,99.09 58.9,134.62 26.17,35.52 59.83,53.28 100.96,53.28 44.87,0 85.07,-22.43 120.6,-67.31 35.52,-44.87 65.43,-96.29 89.74,-154.25 24.31,-57.96 44.87,-116.85 61.7,-176.68 16.83,-59.83 27.11,-104.7 30.85,-134.62 7.48,-44.87 26.18,-67.31 56.09,-67.31 18.7,0 36.46,10.29 53.29,30.85 16.82,20.57 25.24,57.03 25.24,109.38 0,14.96 0,28.98 0,42.07 0,13.09 -1.87,28.98 -5.61,47.67zm-1037.68 -908.66c0,-41.13 -3.73,-89.74 -11.21,-145.83 -7.48,-56.1 -20.57,-108.45 -39.27,-157.06 -18.69,-48.61 -46.74,-89.74 -84.13,-123.4 -37.4,-33.65 -87.88,-50.48 -151.45,-50.48 -104.7,0 -189.77,47.68 -255.21,143.03 -65.44,95.36 -116.85,207.54 -154.25,336.54 -37.39,129.01 -61.7,261.76 -72.91,398.25 -11.22,136.48 -16.83,243.99 -16.83,322.52 0,59.83 2.8,131.81 8.41,215.94 5.61,84.14 15.9,163.6 30.85,238.39 14.96,74.79 36.46,138.35 64.51,190.71 28.04,52.35 64.5,78.52 109.37,78.52 108.44,0 191.65,-42.07 249.61,-126.2 57.96,-84.14 101.89,-188.84 131.81,-314.11 29.91,-125.27 51.41,-259.88 64.5,-403.85 13.09,-143.96 25.24,-275.78 36.46,-395.44 7.48,-63.56 24.31,-103.76 50.48,-120.59 26.18,-16.83 39.26,-28.98 39.26,-36.46l0 -50.48z"/>
   <path id="2" class="fil2" d="M6063.26 5961.64c-56.09,78.53 -101.9,165.47 -137.42,260.82 -35.53,95.35 -66.38,194.45 -92.55,297.28 -26.18,102.83 -47.68,205.66 -64.51,308.5 -16.82,102.83 -34.59,200.99 -53.28,294.47 -7.48,22.44 -36.46,37.39 -86.94,44.87 -50.48,7.48 -86.94,11.22 -109.38,11.22 -67.31,0 -122.46,-3.74 -165.47,-11.22 -43,-7.48 -75.72,-25.24 -98.15,-53.28 -22.44,-28.05 -39.27,-71.05 -50.49,-129.01 -11.21,-57.96 -20.56,-135.55 -28.04,-232.78l72.92 -1665.88c0,-48.61 26.17,-72.92 78.52,-72.92 18.7,0 44.88,2.81 78.53,8.42 33.65,5.6 69.18,14.02 106.57,25.24 37.4,11.21 69.18,25.24 95.36,42.06 26.17,16.83 39.26,36.46 39.26,58.9l0 1138.63c3.74,-3.74 9.35,-18.69 16.83,-44.87 26.17,-67.31 57.96,-150.51 95.35,-249.6 37.39,-99.09 78.53,-193.51 123.4,-283.26 44.87,-89.74 92.55,-166.4 143.03,-229.97 50.48,-63.57 101.9,-95.35 154.25,-95.35 67.31,0 118.72,15.89 154.25,47.67 35.52,31.79 62.63,71.99 81.33,120.6 18.69,48.61 29.91,100.96 33.65,157.05 3.74,56.09 5.61,110.31 5.61,162.66 0,37.4 -3.74,99.1 -11.22,185.1 -7.48,86.01 -11.22,215.02 -11.22,387.03 0,97.22 9.35,185.1 28.05,263.62 18.7,78.53 56.09,117.79 112.18,117.79 41.13,0 78.53,-18.7 112.18,-56.09 33.66,-37.39 64.51,-84.13 92.55,-140.22 28.05,-56.1 51.42,-115.93 70.11,-179.49 18.7,-63.57 29.92,-123.4 33.66,-179.49 3.74,-71.05 31.78,-106.58 84.13,-106.58 33.66,0 56.09,11.22 67.31,33.66 11.22,22.44 16.83,48.61 16.83,78.53l0 11.21c-3.74,74.79 -17.76,158.93 -42.07,252.41 -24.3,93.48 -59.83,181.36 -106.57,263.63 -46.74,82.26 -107.51,151.44 -182.29,207.53 -74.79,56.09 -166.41,84.14 -274.85,84.14 -168.27,0 -275.78,-60.77 -322.52,-182.3 -46.74,-121.53 -70.11,-301.95 -70.11,-541.27l11.22 -409.46z"/>
   <path id="3" class="fil2" d="M9120.19 6573.02c-7.48,52.36 -26.18,114.06 -56.09,185.1 -29.92,71.05 -68.25,139.29 -114.99,204.73 -46.74,65.44 -100.96,120.6 -162.66,165.47 -61.7,44.87 -129.94,67.31 -204.73,67.31 -112.18,0 -210.34,-43 -294.48,-129.01 -84.13,-86.01 -135.55,-207.53 -154.24,-364.59 -22.44,59.83 -48.62,129.01 -78.53,207.54 -29.92,78.52 -67.31,151.44 -112.18,218.75 -44.87,67.31 -96.29,124.33 -154.25,171.08 -57.96,46.74 -126.2,70.11 -204.73,70.11 -22.44,0 -39.26,-1.87 -50.48,-5.61 -11.22,-3.74 -23.37,-8.41 -36.46,-14.02 -13.09,-5.61 -28.04,-10.29 -44.87,-14.03 -16.83,-3.74 -40.2,-5.6 -70.12,-5.6 -89.74,0 -165.46,-28.98 -227.16,-86.95 -61.7,-57.96 -111.25,-131.81 -148.64,-221.55 -37.39,-89.75 -64.5,-187.91 -81.33,-294.48 -16.83,-106.57 -25.24,-206.6 -25.24,-300.08 0,-224.36 12.15,-437.51 36.46,-639.43 24.3,-201.93 64.5,-380.48 120.59,-535.66 56.09,-155.19 129.01,-278.59 218.75,-370.2 89.75,-91.62 198.19,-137.42 325.33,-137.42 74.78,0 131.81,6.54 171.07,19.63 39.27,13.09 75.73,28.04 109.38,44.87 33.65,16.83 70.11,34.59 109.38,53.29 39.26,18.69 94.41,33.65 165.46,44.87 78.53,44.87 133.68,98.16 165.47,159.86 31.78,61.7 52.35,128.07 61.7,199.12 9.35,71.05 12.15,144.9 8.41,221.56 -3.74,76.65 0,152.37 11.22,227.16 0,3.74 8.41,9.35 25.24,16.83 16.83,7.48 36.46,15.89 58.9,25.24 22.43,9.35 42.06,22.44 58.89,39.26 16.83,16.83 25.24,38.33 25.24,64.51l0 22.43c-37.39,97.23 -59.83,183.23 -67.31,258.02 -7.48,74.79 -11.22,164.53 -11.22,269.23 0,52.35 2.81,109.38 8.42,171.08 5.61,61.7 14.96,119.66 28.04,173.88 13.09,54.22 32.72,99.09 58.9,134.62 26.17,35.52 59.83,53.28 100.96,53.28 44.87,0 85.07,-22.43 120.6,-67.31 35.52,-44.87 65.43,-96.29 89.74,-154.25 24.31,-57.96 44.87,-116.85 61.7,-176.68 16.83,-59.83 27.11,-104.7 30.85,-134.62 7.48,-44.87 26.18,-67.31 56.09,-67.31 18.7,0 36.46,10.29 53.29,30.85 16.82,20.57 25.24,57.03 25.24,109.38 0,14.96 0,28.98 0,42.07 0,13.09 -1.87,28.98 -5.61,47.67zm-1037.68 -908.66c0,-41.13 -3.73,-89.74 -11.21,-145.83 -7.48,-56.1 -20.57,-108.45 -39.27,-157.06 -18.69,-48.61 -46.74,-89.74 -84.13,-123.4 -37.4,-33.65 -87.88,-50.48 -151.45,-50.48 -104.7,0 -189.77,47.68 -255.21,143.03 -65.44,95.36 -116.85,207.54 -154.25,336.54 -37.39,129.01 -61.7,261.76 -72.91,398.25 -11.22,136.48 -16.83,243.99 -16.83,322.52 0,59.83 2.8,131.81 8.41,215.94 5.61,84.14 15.9,163.6 30.85,238.39 14.96,74.79 36.46,138.35 64.51,190.71 28.04,52.35 64.5,78.52 109.37,78.52 108.44,0 191.65,-42.07 249.61,-126.2 57.96,-84.14 101.89,-188.84 131.81,-314.11 29.91,-125.27 51.41,-259.88 64.5,-403.85 13.09,-143.96 25.24,-275.78 36.46,-395.44 7.48,-63.56 24.31,-103.76 50.48,-120.59 26.18,-16.83 39.26,-28.98 39.26,-36.46l0 -50.48z"/>
   <path id="4" class="fil2" d="M10707.54 5967.25c0,56.09 -10.28,99.09 -30.85,129.01 -20.56,29.91 -47.67,52.35 -81.33,67.3 -33.65,14.96 -71.98,25.25 -114.98,30.85 -43,5.61 -85.07,10.29 -126.21,14.03l0 28.04c0,78.53 -11.21,177.62 -33.65,297.28 -22.44,119.66 -55.16,235.58 -98.16,347.76 -43,112.18 -97.22,209.41 -162.66,291.67 -65.44,82.27 -143.03,127.14 -232.78,134.62 -18.69,3.74 -37.39,5.61 -56.09,5.61 -18.69,0 -37.39,0 -56.09,0 -179.49,0 -319.71,-42.07 -420.67,-126.21 -100.97,-84.13 -175.75,-190.7 -224.37,-319.71 -48.61,-129.01 -78.52,-270.17 -89.74,-423.48 -11.22,-153.32 -16.83,-299.15 -16.83,-437.51 0,-317.84 31.79,-641.3 95.36,-970.36 41.13,-3.74 78.52,-10.29 112.18,-19.63 33.65,-9.35 71.05,-14.03 112.18,-14.03 7.48,0 24.3,0 50.48,0 26.17,0 53.29,1.87 81.33,5.61 28.05,3.74 53.29,9.35 75.72,16.83 22.44,7.48 33.66,16.83 33.66,28.04 0,18.7 -1.87,43.94 -5.61,75.73 -3.74,31.78 -8.42,65.44 -14.02,100.96 -5.61,35.52 -11.22,70.11 -16.83,103.77 -5.61,33.65 -10.29,61.7 -14.02,84.13 -18.7,130.88 -33.66,263.63 -44.88,398.24 -11.22,134.62 -16.82,269.24 -16.82,403.86 0,52.35 3.74,124.33 11.21,215.94 7.48,91.62 22.44,182.3 44.88,272.04 22.43,89.75 55.15,167.34 98.15,232.78 43.01,65.44 100.03,98.15 171.08,98.15 67.31,0 121.53,-34.58 162.66,-103.76 41.14,-69.18 72.92,-149.58 95.36,-241.19 22.43,-91.62 37.39,-183.23 44.87,-274.84 7.48,-91.62 11.22,-161.73 11.22,-210.34 0,-18.7 -12.16,-39.27 -36.46,-61.7 -24.31,-22.44 -52.35,-52.35 -84.14,-89.75 -31.78,-37.39 -61.7,-82.26 -89.74,-134.61 -28.05,-52.36 -45.81,-115.92 -53.29,-190.71l0 -117.79c0,-29.92 0.94,-65.44 2.81,-106.57 1.87,-41.14 5.61,-83.2 11.21,-126.21 5.61,-43 13.09,-84.13 22.44,-123.4 9.35,-39.26 21.5,-70.11 36.46,-92.54 0,-3.74 6.54,-9.35 19.63,-16.83 13.09,-7.48 27.11,-14.96 42.07,-22.44 14.96,-7.48 29.91,-14.02 44.87,-19.63 14.96,-5.61 24.31,-8.41 28.05,-8.41 11.21,0 27.11,1.87 47.67,5.61 20.57,3.74 43.01,7.47 67.31,11.21 24.31,3.74 46.74,8.42 67.31,14.03 20.57,5.61 34.59,10.28 42.07,14.02 18.69,11.22 29.91,28.98 33.65,53.29 3.74,24.3 9.35,43.93 16.83,58.89 18.7,59.83 32.72,114.99 42.07,165.47 9.35,50.48 14.95,100.96 16.82,151.44 1.87,50.48 3.74,102.83 5.61,157.05 1.87,54.22 4.68,114.99 8.42,182.3 0,11.22 17.76,23.37 53.28,36.46 35.53,13.08 58.9,19.63 70.12,19.63 52.35,0 95.35,-14.96 129,-44.87 33.66,-29.92 56.09,-44.88 67.31,-44.88 18.7,0 30.85,12.16 36.46,36.46 5.61,24.31 8.41,42.07 8.41,53.29z"/>
   <path id="5" class="fil2" d="M11459.16 4587.42c0,26.18 -13.09,47.68 -39.26,64.51 -26.18,16.83 -55.16,28.98 -86.94,36.46 -31.79,7.48 -62.64,13.08 -92.55,16.82 -29.92,3.74 -48.62,5.61 -56.09,5.61 -78.53,0 -156.12,-22.43 -232.78,-67.31 -76.66,-44.87 -146.77,-115.92 -210.34,-213.14 -7.48,-11.22 -18.7,-26.17 -33.65,-44.87 -14.96,-18.7 -22.44,-31.79 -22.44,-39.26 0,-18.7 14.02,-35.53 42.07,-50.49 28.04,-14.95 59.83,-29.91 95.35,-44.87 35.53,-14.96 69.18,-26.17 100.97,-33.65 31.78,-7.48 53.28,-11.22 64.5,-11.22 74.79,0 148.64,18.7 221.56,56.09 72.91,37.39 131.81,106.57 176.68,207.53 7.48,11.22 21.5,30.85 42.07,58.9 20.57,28.04 30.85,47.68 30.85,58.89zm572.12 1699.54c-11.22,89.75 -31.78,183.23 -61.7,280.46 -29.91,97.22 -71.98,187.9 -126.2,272.03 -54.22,84.14 -122.47,153.32 -204.73,207.54 -82.27,54.22 -183.23,81.33 -302.89,81.33 -93.48,0 -188.84,-31.78 -286.06,-95.35 -97.22,-67.31 -163.6,-155.19 -199.12,-263.63 -35.53,-108.44 -53.29,-213.14 -53.29,-314.11 0,-29.91 1.87,-74.78 5.61,-134.61 3.74,-59.83 5.61,-132.75 5.61,-218.75l0 -617c0,-29.91 -0.93,-61.7 -2.8,-95.35 -1.87,-33.66 -6.55,-65.44 -14.03,-95.36 -3.74,-14.95 -10.28,-31.78 -19.63,-50.48 -9.35,-18.69 -14.02,-31.78 -14.02,-39.26 0,-14.96 9.35,-27.11 28.04,-36.46 18.7,-9.35 39.27,-15.89 61.7,-19.63 22.44,-3.74 43.94,-5.61 64.51,-5.61 20.56,0 30.85,0 30.85,0 11.22,0 37.39,0.93 78.52,2.8 41.14,1.87 84.14,8.42 129.01,19.64 44.87,11.21 85.07,28.98 120.6,53.28 35.52,24.31 53.28,58.9 53.28,103.77 3.74,11.22 -2.8,31.78 -19.63,61.7 -16.83,29.91 -32.72,82.26 -47.68,157.05 -3.74,29.92 -7.48,57.03 -11.21,81.33 -3.74,24.31 -7.48,51.42 -11.22,81.33 -3.74,29.92 -7.48,66.38 -11.22,109.38 -3.74,43 -7.48,98.16 -11.22,165.47l0 336.54c0,59.83 1.87,120.59 5.61,182.29 3.74,61.7 12.15,117.79 25.24,168.27 13.09,50.49 34.59,91.62 64.5,123.4 29.92,31.79 69.18,47.68 117.79,47.68 71.05,0 127.14,-20.57 168.28,-61.7 41.13,-41.13 72.91,-76.66 95.35,-106.57 41.13,-56.09 72.92,-126.21 95.35,-210.34 22.44,-84.14 43.01,-171.08 61.7,-260.82l11.22 -56.09c11.22,-56.09 44.87,-84.14 100.96,-84.14 56.09,0 84.14,39.27 84.14,117.79l0 28.05 -11.22 84.13z"/>
   <path id="6" class="fil2" d="M13517.67 6320.62c0,93.48 -16.82,198.18 -50.48,314.1 -33.65,115.92 -86,223.43 -157.05,322.52 -71.05,99.1 -161.73,182.3 -272.04,249.61 -110.31,67.3 -242.12,100.96 -395.44,100.96 -145.83,0 -269.23,-26.18 -370.19,-78.53 -100.97,-52.35 -184.17,-123.4 -249.61,-213.14 -65.44,-89.75 -112.18,-195.38 -140.22,-316.91 -28.05,-121.53 -42.07,-249.6 -42.07,-384.22 0,-130.88 14.96,-274.84 44.87,-431.9 29.92,-157.05 76.66,-303.82 140.23,-440.31 63.57,-136.48 143.96,-250.53 241.19,-342.15 97.22,-91.61 215.01,-137.42 353.37,-137.42 67.3,0 130.87,14.02 190.7,42.07 59.83,28.04 112.18,64.5 157.06,109.37 44.87,44.88 80.39,97.23 106.57,157.06 26.17,59.83 41.13,121.53 44.87,185.1l5.61 78.52c0,89.75 -14.96,187.91 -44.87,294.48 -29.92,106.57 -72.92,205.66 -129.01,297.28 -56.09,91.61 -125.27,168.27 -207.54,229.97 -82.26,61.7 -175.75,92.55 -280.45,92.55 -18.69,0 -42.06,-1.87 -70.11,-5.61 -28.05,-3.74 -55.16,-9.35 -81.33,-16.83l0 162.66c0,26.18 8.41,63.57 25.24,112.18 16.83,48.61 42.07,96.29 75.72,143.03 33.66,46.75 77.59,87.88 131.81,123.4 54.22,35.53 120.6,53.29 199.12,53.29 108.45,0 197.26,-21.5 266.43,-64.51 69.18,-43 126.21,-98.15 171.08,-165.46 44.87,-67.31 79.46,-143.03 103.77,-227.17 24.3,-84.13 43.93,-165.47 58.89,-243.99 11.22,-52.35 22.44,-87.88 33.66,-106.57 11.21,-18.7 29.91,-28.05 56.09,-28.05 56.09,0 84.13,31.79 84.13,95.35l0 39.27zm-661.86 -869.4c0,-29.92 -8.42,-61.7 -25.24,-95.36 -16.83,-33.65 -47.68,-50.48 -92.55,-50.48 -67.31,0 -125.27,35.53 -173.88,106.57 -48.62,71.05 -88.81,152.38 -120.6,244 -31.78,91.61 -55.15,179.49 -70.11,263.62 -14.96,84.14 -22.44,139.29 -22.44,165.47l0 16.83c0,33.65 2.81,60.76 8.42,81.33 5.6,20.56 25.24,30.85 58.89,30.85l28.05 0c74.78,0 138.35,-28.05 190.7,-84.14 52.35,-56.09 94.42,-123.4 126.21,-201.92 31.78,-78.53 55.15,-158.93 70.11,-241.19 14.96,-82.27 22.44,-149.58 22.44,-201.93l0 -33.65z"/>
   <path id="7" class="fil2" d="M14028.1 4587.42c0,26.18 -13.09,47.68 -39.26,64.51 -26.18,16.83 -55.16,28.98 -86.94,36.46 -31.79,7.48 -62.64,13.08 -92.55,16.82 -29.92,3.74 -48.62,5.61 -56.09,5.61 -78.53,0 -156.12,-22.43 -232.78,-67.31 -76.66,-44.87 -146.77,-115.92 -210.34,-213.14 -7.48,-11.22 -18.7,-26.17 -33.65,-44.87 -14.96,-18.7 -22.44,-31.79 -22.44,-39.26 0,-18.7 14.02,-35.53 42.07,-50.49 28.04,-14.95 59.83,-29.91 95.35,-44.87 35.53,-14.96 69.18,-26.17 100.97,-33.65 31.78,-7.48 53.28,-11.22 64.5,-11.22 74.79,0 148.64,18.7 221.56,56.09 72.91,37.39 131.81,106.57 176.68,207.53 7.48,11.22 21.5,30.85 42.07,58.9 20.57,28.04 30.85,47.68 30.85,58.89zm572.12 1699.54c-11.22,89.75 -31.78,183.23 -61.7,280.46 -29.91,97.22 -71.98,187.9 -126.2,272.03 -54.22,84.14 -122.47,153.32 -204.73,207.54 -82.27,54.22 -183.23,81.33 -302.89,81.33 -93.48,0 -188.84,-31.78 -286.06,-95.35 -97.22,-67.31 -163.6,-155.19 -199.12,-263.63 -35.53,-108.44 -53.29,-213.14 -53.29,-314.11 0,-29.91 1.87,-74.78 5.61,-134.61 3.74,-59.83 5.61,-132.75 5.61,-218.75l0 -617c0,-29.91 -0.93,-61.7 -2.8,-95.35 -1.87,-33.66 -6.55,-65.44 -14.03,-95.36 -3.74,-14.95 -10.28,-31.78 -19.63,-50.48 -9.35,-18.69 -14.02,-31.78 -14.02,-39.26 0,-14.96 9.35,-27.11 28.04,-36.46 18.7,-9.35 39.27,-15.89 61.7,-19.63 22.44,-3.74 43.94,-5.61 64.51,-5.61 20.56,0 30.85,0 30.85,0 11.22,0 37.39,0.93 78.52,2.8 41.14,1.87 84.14,8.42 129.01,19.64 44.87,11.21 85.07,28.98 120.6,53.28 35.52,24.31 53.28,58.9 53.28,103.77 3.74,11.22 -2.8,31.78 -19.63,61.7 -16.83,29.91 -32.72,82.26 -47.68,157.05 -3.74,29.92 -7.48,57.03 -11.21,81.33 -3.74,24.31 -7.48,51.42 -11.22,81.33 -3.74,29.92 -7.48,66.38 -11.22,109.38 -3.74,43 -7.48,98.16 -11.22,165.47l0 336.54c0,59.83 1.87,120.59 5.61,182.29 3.74,61.7 12.15,117.79 25.24,168.27 13.09,50.49 34.59,91.62 64.5,123.4 29.92,31.79 69.18,47.68 117.79,47.68 71.05,0 127.14,-20.57 168.28,-61.7 41.13,-41.13 72.91,-76.66 95.35,-106.57 41.13,-56.09 72.92,-126.21 95.35,-210.34 22.44,-84.14 43.01,-171.08 61.7,-260.82l11.22 -56.09c11.22,-56.09 44.87,-84.14 100.96,-84.14 56.09,0 84.14,39.27 84.14,117.79l0 28.05 -11.22 84.13z"/>
   <path id="8" class="fil2" d="M16002.48 6393.54c0,26.17 -8.42,88.81 -25.24,187.9 -16.83,99.09 -46.75,203.79 -89.75,314.1 -43,110.32 -100.96,208.47 -173.88,294.48 -72.92,86 -165.47,129.01 -277.65,129.01 -119.66,0 -215.01,-42.07 -286.06,-126.21 -71.05,-84.13 -125.27,-185.09 -162.66,-302.88 -37.39,-117.79 -61.7,-241.19 -72.92,-370.2 -11.22,-129.01 -16.82,-236.52 -16.82,-322.52 0,-97.22 5.6,-195.38 16.82,-294.48 11.22,-99.09 18.7,-197.25 22.44,-294.47 0,-29.92 -14.96,-48.61 -44.87,-56.09 -29.92,-7.48 -57.96,-11.22 -84.14,-11.22 -44.87,0 -72.92,5.61 -84.13,16.83 -11.22,11.22 -18.7,24.3 -22.44,39.26l-22.44 179.49c-14.95,119.66 -30.85,234.65 -47.67,344.96 -16.83,110.31 -35.53,207.53 -56.09,291.67 -20.57,84.13 -44.88,151.44 -72.92,201.92 -28.05,50.48 -60.77,75.72 -98.16,75.72l-5.61 0c-14.96,0 -28.98,-3.73 -42.07,-11.21 -13.08,-7.48 -19.63,-26.18 -19.63,-56.09 0,-14.96 3.74,-37.4 11.22,-67.31 29.91,-130.88 48.61,-239.32 56.09,-325.33 7.48,-86 13.09,-162.66 16.83,-229.97l0 -39.26c0,-18.7 0.93,-41.13 2.8,-67.31 1.87,-26.17 2.81,-57.96 2.81,-95.35l0 -145.84c0,-41.13 0,-84.13 0,-129.01 0,-44.87 -3.74,-93.48 -11.22,-145.83l-16.83 -330.93c0,-22.44 9.35,-43.01 28.05,-61.7 18.69,-18.7 43,-35.53 72.91,-50.49 29.92,-14.95 61.7,-26.17 95.36,-33.65 33.65,-7.48 63.57,-11.22 89.74,-11.22 63.57,0 95.36,41.14 95.36,123.4l0 28.05 -5.61 123.4 0 33.65c0,26.18 5.61,42.07 16.82,47.68 11.22,5.61 33.66,12.15 67.31,19.63l16.83 0c29.91,3.74 78.53,7.48 145.83,11.22 67.31,3.74 134.62,11.21 201.93,22.43 67.31,11.22 126.2,28.98 176.69,53.29 50.48,24.3 75.72,58.89 75.72,103.77 0,14.95 -3.74,36.45 -11.22,64.5 -7.48,28.04 -16.83,56.09 -28.05,84.14 -11.21,28.04 -20.56,53.28 -28.04,75.72 -7.48,22.43 -11.22,37.39 -11.22,44.87 -67.31,258.02 -100.96,527.25 -100.96,807.7 0,22.44 1.87,63.57 5.61,123.4 3.74,59.83 11.21,121.53 22.43,185.1 11.22,63.57 28.05,119.66 50.48,168.27 22.44,48.61 50.49,72.92 84.14,72.92 56.09,0 106.57,-34.59 151.44,-103.77 44.88,-69.18 84.14,-149.57 117.79,-241.19 33.66,-91.61 60.77,-184.16 81.33,-277.65 20.57,-93.48 34.59,-162.66 42.07,-207.53 7.48,-41.13 19.63,-66.37 36.46,-75.72 16.83,-9.35 32.72,-14.03 47.68,-14.03 52.35,0 78.52,33.66 78.52,100.97 0,7.48 -0.93,27.11 -2.8,58.89 -1.87,31.79 -4.67,55.16 -8.41,70.12z"/>
   <path id="9" class="fil2" d="M18061 6573.02c-7.48,52.36 -26.18,114.06 -56.09,185.1 -29.92,71.05 -68.25,139.29 -114.99,204.73 -46.74,65.44 -100.96,120.6 -162.66,165.47 -61.7,44.87 -129.94,67.31 -204.73,67.31 -112.18,0 -210.34,-43 -294.48,-129.01 -84.13,-86.01 -135.55,-207.53 -154.24,-364.59 -22.44,59.83 -48.62,129.01 -78.53,207.54 -29.92,78.52 -67.31,151.44 -112.18,218.75 -44.87,67.31 -96.29,124.33 -154.25,171.08 -57.96,46.74 -126.2,70.11 -204.73,70.11 -22.44,0 -39.26,-1.87 -50.48,-5.61 -11.22,-3.74 -23.37,-8.41 -36.46,-14.02 -13.09,-5.61 -28.04,-10.29 -44.87,-14.03 -16.83,-3.74 -40.2,-5.6 -70.12,-5.6 -89.74,0 -165.46,-28.98 -227.16,-86.95 -61.7,-57.96 -111.25,-131.81 -148.64,-221.55 -37.39,-89.75 -64.5,-187.91 -81.33,-294.48 -16.83,-106.57 -25.24,-206.6 -25.24,-300.08 0,-224.36 12.15,-437.51 36.46,-639.43 24.3,-201.93 64.5,-380.48 120.59,-535.66 56.09,-155.19 129.01,-278.59 218.75,-370.2 89.75,-91.62 198.19,-137.42 325.33,-137.42 74.78,0 131.81,6.54 171.07,19.63 39.27,13.09 75.73,28.04 109.38,44.87 33.65,16.83 70.11,34.59 109.38,53.29 39.26,18.69 94.41,33.65 165.46,44.87 78.53,44.87 133.68,98.16 165.47,159.86 31.78,61.7 52.35,128.07 61.7,199.12 9.35,71.05 12.15,144.9 8.41,221.56 -3.74,76.65 0,152.37 11.22,227.16 0,3.74 8.41,9.35 25.24,16.83 16.83,7.48 36.46,15.89 58.9,25.24 22.43,9.35 42.06,22.44 58.89,39.26 16.83,16.83 25.24,38.33 25.24,64.51l0 22.43c-37.39,97.23 -59.83,183.23 -67.31,258.02 -7.48,74.79 -11.22,164.53 -11.22,269.23 0,52.35 2.81,109.38 8.42,171.08 5.61,61.7 14.96,119.66 28.04,173.88 13.09,54.22 32.72,99.09 58.9,134.62 26.17,35.52 59.83,53.28 100.96,53.28 44.87,0 85.07,-22.43 120.6,-67.31 35.52,-44.87 65.43,-96.29 89.74,-154.25 24.31,-57.96 44.87,-116.85 61.7,-176.68 16.83,-59.83 27.11,-104.7 30.85,-134.62 7.48,-44.87 26.18,-67.31 56.09,-67.31 18.7,0 36.46,10.29 53.29,30.85 16.82,20.57 25.24,57.03 25.24,109.38 0,14.96 0,28.98 0,42.07 0,13.09 -1.87,28.98 -5.61,47.67zm-1037.68 -908.66c0,-41.13 -3.73,-89.74 -11.21,-145.83 -7.48,-56.1 -20.57,-108.45 -39.27,-157.06 -18.69,-48.61 -46.74,-89.74 -84.13,-123.4 -37.4,-33.65 -87.88,-50.48 -151.45,-50.48 -104.7,0 -189.77,47.68 -255.21,143.03 -65.44,95.36 -116.85,207.54 -154.25,336.54 -37.39,129.01 -61.7,261.76 -72.91,398.25 -11.22,136.48 -16.83,243.99 -16.83,322.52 0,59.83 2.8,131.81 8.41,215.94 5.61,84.14 15.9,163.6 30.85,238.39 14.96,74.79 36.46,138.35 64.51,190.71 28.04,52.35 64.5,78.52 109.37,78.52 108.44,0 191.65,-42.07 249.61,-126.2 57.96,-84.14 101.89,-188.84 131.81,-314.11 29.91,-125.27 51.41,-259.88 64.5,-403.85 13.09,-143.96 25.24,-275.78 36.46,-395.44 7.48,-63.56 24.31,-103.76 50.48,-120.59 26.18,-16.83 39.26,-28.98 39.26,-36.46l0 -50.48z"/>
   <path id="10" class="fil2" d="M19227.68 6836.65c0,89.74 -29.92,158.92 -89.75,207.53 -59.83,48.62 -128.07,84.14 -204.73,106.58 -76.66,22.43 -153.31,36.45 -229.97,42.06 -76.66,5.61 -131.81,8.42 -165.47,8.42 -52.35,0 -116.85,-5.61 -193.51,-16.83 -76.65,-11.22 -151.44,-28.98 -224.36,-53.29 -72.92,-24.3 -134.62,-58.89 -185.1,-103.76 -50.48,-44.88 -75.72,-100.97 -75.72,-168.27 0,-41.14 15.89,-70.12 47.68,-86.94 31.78,-16.83 62.63,-25.25 92.55,-25.25 41.13,0 81.33,14.96 120.59,44.88 39.26,29.91 80.4,61.7 123.4,95.35 43,33.66 90.68,65.44 143.03,95.35 52.35,29.92 112.18,44.88 179.49,44.88 29.91,0 70.11,-10.29 120.59,-30.85 50.49,-20.57 75.73,-57.03 75.73,-109.38 0,-52.35 -21.51,-102.83 -64.51,-151.44 -43,-48.61 -97.22,-99.1 -162.66,-151.45 -65.44,-52.35 -135.55,-106.57 -210.34,-162.66 -74.79,-56.09 -144.9,-116.85 -210.34,-182.29 -65.44,-65.44 -119.66,-137.42 -162.66,-215.95 -43,-78.53 -64.5,-164.53 -64.5,-258.02 0,-130.87 42.06,-241.19 126.2,-330.93 84.13,-89.75 183.23,-160.79 297.28,-213.14 114.05,-52.36 230.9,-89.75 350.56,-112.18 119.66,-22.44 213.15,-33.66 280.46,-33.66 63.56,0 127.13,13.09 190.7,39.26 63.57,26.18 95.36,76.66 95.36,151.45 0,22.43 -4.68,55.15 -14.03,98.16 -9.34,43 -24.3,85.07 -44.87,126.2 -20.57,41.13 -47.68,77.59 -81.33,109.38 -33.65,31.78 -76.66,47.67 -129.01,47.67 -14.96,0 -29.91,-6.54 -44.87,-19.63 -14.96,-13.09 -31.78,-28.04 -50.48,-44.87 -18.7,-16.83 -38.33,-31.79 -58.9,-44.87 -20.56,-13.09 -43.93,-19.63 -70.11,-19.63 -130.88,0 -222.49,38.32 -274.84,114.98 -52.35,76.66 -78.53,157.99 -78.53,243.99 0,74.79 43.94,153.32 131.81,235.58 87.88,82.27 185.1,164.54 291.67,246.8 106.58,82.27 203.8,163.6 291.67,243.99 87.88,80.4 131.82,157.99 131.82,232.78z"/>
   <path class="fil1" d="M11185.64 8242.9c11.49,-25.94 28.39,-49.58 50.52,-70.65 130.92,-124.67 314.53,-185.83 493.44,-185.83 343.22,0 640.41,237.9 640.41,592.03 0,110.17 -29.14,212.66 -82.58,299.81 82.18,100.45 129.06,228.01 129.06,370.01 0,380.84 -320.74,618.07 -685.03,618.07 -151.77,0 -293.95,-35.61 -418.98,-111.85 -40.58,53.22 -104.58,87.68 -176.42,87.68l-919.2 0c-89.46,0 -165.92,-49.59 -202.42,-131.23 -7.27,-16.24 -12.5,-32.78 -15.83,-49.45 -118.64,126.97 -279.58,208.57 -485.1,208.57 -223.88,0 -394.54,-96.9 -515.13,-243.74 -3.15,119.43 -101.47,215.85 -221.66,215.85l-919.2 0c-89.46,0 -165.92,-49.59 -202.42,-131.23 -36.54,-81.65 -22.48,-171.73 37.17,-238.39 92.33,-103.2 637.53,-682.01 637.53,-830.85 0,-35.13 -17.56,-48.03 -51.76,-48.03 -72.42,0 -140.76,38.54 -188.17,91.58 -62.45,69.94 -156.78,92.87 -244.42,59.43 -87.63,-33.44 -142.67,-113.36 -142.67,-207.16l0 -193.5c0,-62.93 23.19,-117.13 68.79,-160.55 134.86,-128.48 336.92,-197.05 521.38,-197.05 284.9,0 514.15,154.56 608.57,393.12 117.75,-226.76 319.14,-393.12 611.99,-393.12 250.22,0 434.14,121.35 556.15,298.17 10.2,-38.14 30.69,-72.02 61.25,-101.12 134.86,-128.48 336.92,-197.05 521.38,-197.05 225.96,0 416.89,97.22 533.35,256.48z"/>
   <path class="fil2" d="M7857.59 9620.4l919.17 0 0 -163.74 -582.39 0c346.08,-377.71 532.15,-604.71 532.15,-824.27 0,-234.44 -160.02,-424.22 -433.53,-424.22 -150.72,0 -290.27,61.4 -368.41,135.82l0 193.51c78.14,-87.45 202.81,-165.6 353.52,-165.6 176.76,0 273.52,132.11 273.52,269.8 0,161.87 -78.15,290.26 -694.03,978.7z"/>
   <path id="1" class="fil2" d="M9513.57 8208.17c-286.54,0 -517.26,271.65 -517.26,721.93 0,448.42 230.72,718.21 517.26,718.21 286.54,0 519.12,-269.79 519.12,-718.21 0,-450.28 -232.58,-721.93 -519.12,-721.93zm0 163.73c189.79,0 346.08,204.68 346.08,558.2 0,351.66 -156.29,554.47 -346.08,554.47 -191.65,0 -342.36,-200.95 -342.36,-554.47 0,-353.52 150.71,-558.2 342.36,-558.2z"/>
   <path id="2" class="fil2" d="M10216.89 9620.4l919.17 0 0 -163.74 -582.39 0c346.08,-377.71 532.15,-604.71 532.15,-824.27 0,-234.44 -160.02,-424.22 -433.53,-424.22 -150.72,0 -290.27,61.4 -368.41,135.82l0 193.51c78.14,-87.45 202.81,-165.6 353.52,-165.6 176.76,0 273.52,132.11 273.52,269.8 0,161.87 -78.15,290.26 -694.03,978.7z"/>
   <path id="3" class="fil2" d="M11389.1 8332.83l0 184.2c70.71,-83.72 189.79,-146.99 321.9,-146.99 171.17,0 266.07,104.2 266.07,230.72 0,139.55 -104.2,238.17 -314.45,238.17l-133.97 0 0 146.99 173.04 0c200.95,0 320.03,102.33 320.03,247.46 0,143.27 -117.22,251.19 -305.14,251.19 -150.72,0 -277.24,-66.98 -364.69,-169.32l0 193.51c98.61,87.45 223.28,135.83 379.57,135.83 301.43,0 463.3,-191.65 463.3,-396.32 0,-186.07 -119.08,-301.43 -253.04,-347.94l0 -3.72c130.24,-57.68 206.53,-174.9 206.53,-318.17 0,-195.37 -158.16,-370.27 -418.65,-370.27 -139.55,0 -262.35,50.23 -340.5,124.66z"/>
   <path id="4" class="fil3 str0" d="M7857.59 9620.4l919.17 0 0 -163.74 -582.39 0c346.08,-377.71 532.15,-604.71 532.15,-824.27 0,-234.44 -160.02,-424.22 -433.53,-424.22 -150.72,0 -290.27,61.4 -368.41,135.82l0 193.51c78.14,-87.45 202.81,-165.6 353.52,-165.6 176.76,0 273.52,132.11 273.52,269.8 0,161.87 -78.15,290.26 -694.03,978.7z"/>
   <path id="5" class="fil3 str0" d="M9513.57 8208.17c-286.54,0 -517.26,271.65 -517.26,721.93 0,448.42 230.72,718.21 517.26,718.21 286.54,0 519.12,-269.79 519.12,-718.21 0,-450.28 -232.58,-721.93 -519.12,-721.93zm0 163.73c189.79,0 346.08,204.68 346.08,558.2 0,351.66 -156.29,554.47 -346.08,554.47 -191.65,0 -342.36,-200.95 -342.36,-554.47 0,-353.52 150.71,-558.2 342.36,-558.2z"/>
   <path id="6" class="fil3 str0" d="M10216.89 9620.4l919.17 0 0 -163.74 -582.39 0c346.08,-377.71 532.15,-604.71 532.15,-824.27 0,-234.44 -160.02,-424.22 -433.53,-424.22 -150.72,0 -290.27,61.4 -368.41,135.82l0 193.51c78.14,-87.45 202.81,-165.6 353.52,-165.6 176.76,0 273.52,132.11 273.52,269.8 0,161.87 -78.15,290.26 -694.03,978.7z"/>
   <path id="7" class="fil3 str0" d="M11389.1 8332.83l0 184.2c70.71,-83.72 189.79,-146.99 321.9,-146.99 171.17,0 266.07,104.2 266.07,230.72 0,139.55 -104.2,238.17 -314.45,238.17l-133.97 0 0 146.99 173.04 0c200.95,0 320.03,102.33 320.03,247.46 0,143.27 -117.22,251.19 -305.14,251.19 -150.72,0 -277.24,-66.98 -364.69,-169.32l0 193.51c98.61,87.45 223.28,135.83 379.57,135.83 301.43,0 463.3,-191.65 463.3,-396.32 0,-186.07 -119.08,-301.43 -253.04,-347.94l0 -3.72c130.24,-57.68 206.53,-174.9 206.53,-318.17 0,-195.37 -158.16,-370.27 -418.65,-370.27 -139.55,0 -262.35,50.23 -340.5,124.66z"/>
  </g>
 </g>
</svg>
