<?xml version="1.0" encoding="UTF-8"?>
<!DOCTYPE svg PUBLIC "-//W3C//DTD SVG 1.1//EN" "http://www.w3.org/Graphics/SVG/1.1/DTD/svg11.dtd">
<!-- Creator: CorelDRAW 2020 (64 Bit) -->
<svg xmlns="http://www.w3.org/2000/svg" xml:space="preserve" width="200mm" height="104.12mm" version="1.1" style="shape-rendering:geometricPrecision; text-rendering:geometricPrecision; image-rendering:optimizeQuality; fill-rule:evenodd; clip-rule:evenodd"
viewBox="0 0 20000 10412"
 xmlns:xlink="http://www.w3.org/1999/xlink"
 xmlns:xodm="http://www.corel.com/coreldraw/odm/2003">
 <defs>
  <style type="text/css">
   <![CDATA[
    .str0 {stroke:white;stroke-width:20;stroke-miterlimit:22.9256}
    .str1 {stroke:#333333;stroke-width:7.62;stroke-miterlimit:22.9256}
    .fil3 {fill:none;fill-rule:nonzero}
    .fil1 {fill:#FEFEFE}
    .fil0 {fill:#F39C11}
    .fil2 {fill:#333333;fill-rule:nonzero}
   ]]>
  </style>
 </defs>
 <g id="Camada_x0020_1">
  <metadata id="CorelCorpID_0Corel-Layer"/>
  <path class="fil0" d="M12794.3 8065.68c87.88,166.75 137.14,359.02 137.14,566.66 0,144.72 -27.08,280.28 -73.33,408.39 78.11,119.84 123.57,262.74 123.57,415.93l0 163.74c0,421.04 -343.4,764.44 -764.44,764.44l-919.21 0c-29.44,0 -58.47,-1.55 -87.01,-4.62 -27.65,3.06 -55.74,4.62 -84.19,4.62l-919.22 0c-96.04,0 -187.76,-16.58 -272.32,-47.93 -130.32,48.92 -274.32,75.85 -431.04,75.85 -164.81,0 -315.45,-29.78 -450.88,-83.55 -88.41,35.86 -184.97,55.63 -285.99,55.63l-919.21 0c-308.33,0 -572,-170.91 -697.85,-452.39 -125.86,-281.47 -77.46,-591.93 128.11,-821.72 17.63,-19.71 38.17,-42.25 60.76,-66.93 -120.06,-135.35 -188.47,-312.25 -188.47,-506.37l0 -193.52c0,-93.96 15,-182.25 44.77,-264.31 -192.01,-31.72 -370.52,-112.99 -521.31,-240.41 -75.05,13.33 -151.82,19.92 -229.6,19.92 -127.03,0 -249.82,-17.65 -364.6,-52.39 -101.87,59.47 -217.27,98.94 -339.53,117.04 -73.18,10.85 -147.32,19.48 -221.4,19.48 -99.02,0 -198.8,-5.54 -296.46,-22.52 -18.69,-3.25 -37.2,-7.03 -55.55,-11.31 -106.42,33.45 -218.03,50.67 -332.31,50.67 -116.02,0 -228.35,-16.73 -335.13,-48.87 -191.36,146.68 -421.3,222.75 -663.31,222.75 -96.91,0 -191.65,-12.43 -284.03,-42.17 -245.01,-17.41 -472.98,-112.95 -656.21,-279.97 -123.9,83.47 -258.84,150.32 -404.9,196.63 -208.82,66.22 -426.48,108.68 -646.13,108.68 -612.44,0 -1141.63,-260.2 -1469.99,-785.59 -300.38,-480.61 -382.63,-1076.65 -382.63,-1633.57 0,-315.55 27.48,-631.57 91.69,-940.75 57.64,-277.53 140.87,-552.23 262.5,-808.74 119.89,-252.81 278.53,-486.24 488.56,-672.91 248.2,-220.62 552.01,-350.14 886.47,-350.14l117.8 0c155.82,0 309.86,24.66 454.97,82.71 93.86,37.55 183.7,84.41 268.37,139.63 52.71,34.38 104.71,69.85 154.12,104.9 10.1,6.49 23.8,12.53 34.76,17.32 325.83,142.56 553.39,413.19 652.15,753.96 3.52,12.13 6.92,24.29 10.22,36.47 137.5,-52.99 285.32,-80.46 439.11,-80.46 139.98,0 279.33,14.37 412.75,58.84 71.78,23.91 141.95,52.55 209.63,86.39 18.45,9.23 36.96,18.32 55.53,27.32 94.52,15.29 173.36,43.2 256.79,90.89 51.85,29.65 101.41,62.39 148.18,98.26 116.64,-59.31 249.91,-92.46 392.34,-92.46 68.58,0 136.57,7.55 204.13,18.8 67.81,11.3 134.77,27.34 200.59,47.09 101.95,30.58 199.54,73.66 289.18,131.28 75.43,48.51 141.88,107.16 197.56,173.7 92.36,3.12 182.87,17.4 269.41,43.42 66.58,-114.29 145.74,-220.95 239.43,-316.6 18.23,-18.61 36.91,-36.56 56.01,-53.84 -75.35,-34.21 -145.93,-79.55 -209.51,-135.51 -4.05,-3.55 -7.46,-6.64 -11.44,-10.28 -126.88,-116.28 -211.49,-264.68 -257.65,-429.43 -27.5,-98.16 -40.49,-199.45 -45.45,-301.1 -3.96,-80.84 -4.92,-162.01 -4.92,-242.94 0,-96.14 0,-192.27 0,-288.41 0,-67.94 0.46,-135.9 1.29,-203.85 -189.52,-4.1 -372.23,-61.13 -529.17,-168.3 -111.15,-75.91 -206.73,-171.4 -284.17,-281.43 -65.69,-93.33 -118.41,-195 -155.63,-302.92 -38.72,-112.27 -61.79,-228.27 -61.79,-347.37 0,-207.92 65.53,-406.87 184.94,-576.89 67.58,-96.22 146.67,-183.65 235.27,-260.92 75.02,-65.44 155.18,-124.71 239.72,-177.26 50.96,-31.69 102.34,-62.8 154.44,-92.58 5.72,-3.27 10.63,-6 16.41,-9.12 284.25,-153.32 587.02,-284.41 901.38,-361.43 259.36,-63.55 526.11,-102.07 793.46,-102.07 258.23,0 506.54,67.89 726.67,202.84 159.75,97.94 304.17,217.92 427.31,359.33 41.8,47.99 81.39,97.74 118.27,149.33 99.67,-336.83 385.1,-583.32 755.99,-583.32 63.38,0 125.77,7.28 188.29,16.89 59.64,9.18 118.8,21.33 177.35,35.97 83,20.74 164.1,48.68 241.39,85.48 98.72,47 186.11,110.35 258.25,186.38 6.63,-0.16 13.3,-0.25 20,-0.25 177.28,0 349.48,43.48 507.03,124.27 167.33,85.8 300.18,214.43 397.49,370.01 192.16,21.91 359.81,106.85 486.14,233.58 113.64,-115 250.24,-202.98 403.84,-255.76 117.62,-40.42 239.99,-63.52 364.59,-63.52 163.94,0 323.56,39.51 470.01,112.73 91.24,45.61 176.89,101.24 256.83,164.52 71.95,56.96 139.29,119.65 201.96,186.64 30.33,32.42 60.28,65.22 89.78,98.41 278.01,54.54 507.74,255.26 599.93,531.97 30.39,91.17 47.22,185.43 47.22,281.71 0,8.66 -0.12,16.04 -0.4,24.69 -6.15,190.1 -50.61,374.64 -137.19,544.36 -50.58,99.16 -108.84,194.55 -176.56,282.96 -11.49,15.48 -23.32,30.68 -35.46,45.61 -14.33,61.13 -32.7,121.33 -53.33,180.65 -24.78,71.25 -54.81,140.38 -89.63,207.06 44.11,16.9 87.45,36.27 129.88,58.03 214.88,110.22 376.23,284.8 486.45,494.73 12.05,16.44 23.59,33.07 34.6,49.89 11.98,-0.42 23.97,-0.63 35.97,-0.63 332.12,0 602.11,174.64 746.14,435.74 18.42,4.07 36.74,8.47 54.96,13.22 54.02,-81.02 115.13,-157.44 184.12,-227.87 233.13,-237.99 538.23,-366.93 871.43,-366.93 139.98,0 279.33,14.37 412.75,58.84 71.78,23.91 141.95,52.55 209.63,86.39 18.45,9.23 36.96,18.32 55.52,27.32 94.53,15.29 173.37,43.2 256.79,90.89 154.38,88.26 288.29,203.98 389.37,347.54 41.22,-23.14 83.48,-44.64 126.73,-64.51 168.84,-77.48 345.98,-134.54 528.61,-168.77 137.69,-25.83 281.05,-46.76 421.34,-46.76 165.89,0 328.5,33.74 481.77,96.84 353.48,145.55 568.74,477.33 568.74,858.32 0,88.07 -12.81,174.62 -31.46,260.49 -23.06,106.11 -59.61,208.68 -108.17,305.78 -48.22,96.43 -109.39,185.17 -182.01,264.27 195.44,200.51 321.64,451.71 321.64,740.04 0,312.72 -127.75,602.26 -372.13,800.83 -139.62,113.43 -299.4,196.4 -472.06,246.94 -126.83,37.12 -257.08,61.15 -388.9,70.81 -73.25,5.37 -147.83,10.46 -221.29,10.46 -101.66,0 -203.75,-10.18 -304.26,-24.89 -97.92,-14.34 -194.68,-35.61 -289.51,-63.72 -132.56,54.64 -274.82,83.01 -421.5,83.01 -116.01,0 -228.35,-16.73 -335.13,-48.87 -191.35,146.68 -421.29,222.75 -663.3,222.75 -96.91,0 -191.65,-12.43 -284.03,-42.17 -130.08,-9.24 -255.36,-40.5 -371.68,-92.8 -134.29,55.49 -280.17,84.48 -432.49,84.48 -328.66,0 -630.28,-128.58 -848.45,-372.51 -206.76,124.78 -440.99,181.79 -682.85,181.79 -141.54,0 -278.35,-25.35 -408.33,-71.7 -19.74,13.16 -39.8,25.95 -60.14,38.36 -197.2,120.32 -415.34,186.31 -642.05,206.27z"/>
  <path class="fil1" d="M13271.14 4858.14c-89.75,-69.97 -164.42,-157.29 -226.38,-251.88 -5.16,-7.41 -11.26,-14.83 -16.91,-21.88 -55.86,-69.83 -92.23,-146.1 -92.23,-238.24 0,-145.66 85.21,-264.6 210.71,-331.52 39.56,-21.1 80.34,-40 121.65,-57.39 49.09,-20.66 99.72,-37.94 151.59,-50.15 45.02,-10.6 91.05,-19.68 137.47,-19.68 128.88,0 252.51,32.51 366.93,91.2 140.98,72.3 240.82,192.01 308.67,332.02 7.12,9.93 14.47,19.77 21.58,29.47 54.43,74.21 92.51,152.38 92.51,247.26 0,24.42 -2.23,48.32 -6.52,71.52 5.53,-2.95 11.12,-5.83 16.74,-8.65 53.59,-26.79 110.22,-46.7 168.7,-59.7 52.11,-11.58 105.39,-18.79 158.85,-18.79 236.08,0 391.1,170.65 411.56,391.48 60.04,4.96 119.85,12.42 179.29,22.32 90.6,15.1 179.6,40.57 262.51,80.49 57.74,27.81 108.01,64.99 148.38,109.72 3.67,-10.69 7.42,-21.35 11.27,-31.98 64.56,-178.63 157.07,-348.34 290.77,-484.82 149.24,-152.37 339.53,-233.05 552.87,-233.05 90.48,0 185.49,7.21 271.77,35.96 51.73,17.24 102.38,37.79 151.16,62.18 34.43,17.22 69.08,34.03 103.18,50.27 20.2,8.77 57.22,14.73 78.85,18.14 40.02,6.31 73.25,17.99 108.43,38.1 121.86,69.67 225.66,164.6 290.54,290.52 49.01,95.14 80.38,197.32 94.34,303.44 7.71,58.55 11.8,117.49 12.6,176.51 33.09,-66.08 76.11,-127.93 129.18,-184.53 113.01,-120.54 246.57,-215.82 396.78,-284.78 135.7,-62.29 277.94,-108.23 424.75,-135.76 109.61,-20.55 227.47,-39.12 339.16,-39.12 107.64,0 212.59,22.33 311.99,63.26 186.37,76.74 292.59,245.76 292.59,445.98 0,55.42 -9.54,111.75 -21.29,165.8 -15.17,69.8 -39.3,137.16 -71.24,201.03 -37.27,74.52 -86.93,141.28 -147.52,198.5 -95.12,89.82 -217.22,134.62 -347.7,134.62 -70.1,0 -136.61,-19.71 -195.23,-55.01 75.67,68.87 154.64,134.23 235.59,196.72 107.37,82.88 211.98,169.57 312.06,261.13 134.53,123.08 235.33,279.65 235.33,467.79 0,178.29 -67.47,341.04 -207.4,454.74 -93.62,76.06 -200.35,131.18 -316.13,165.06 -96.61,28.28 -195.77,46.69 -296.19,54.04 -62.26,4.56 -126.3,9.28 -188.73,9.28 -79.82,0 -160.75,-8.64 -239.66,-20.2 -94.74,-13.87 -188.09,-35.98 -278.92,-66.26 -37.43,-12.46 -73.9,-27.14 -109.13,-44.12 -114.47,81.88 -246.58,124.97 -387.56,124.97 -157.99,0 -301.89,-49.28 -424.53,-139.65 -49.67,63.73 -106.03,121.88 -169.21,172.83 -116.19,93.71 -255.52,140.71 -404.69,140.71 -51.49,0 -102.13,-5.61 -151.21,-21.97 -15.71,-5.24 -31.23,-11.04 -46.57,-17.3 -1.4,0 -2.8,0 -4.15,0 -167.84,0 -322.13,-57.89 -444.73,-172.8 -122.37,105.63 -273.72,161.57 -441.54,161.57 -208.23,0 -394.56,-79.51 -529.42,-239.23 -99.27,-117.54 -170.74,-253.05 -218.61,-398.74 -2.61,4.15 -5.25,8.29 -7.91,12.42 -77.71,120.58 -177.44,222.03 -297.19,300.96 -143.2,94.36 -307.98,133.88 -478.17,133.88 -166.8,0 -321.94,-56.75 -460.4,-147.28 -2.02,-1.33 -3.79,-2.51 -5.69,-3.84 -70.34,69.78 -149.03,130.8 -234.65,183.04 -170.44,104 -362.95,147.58 -561.34,147.58 -178.81,0 -356.95,-31.39 -516.81,-114.28 -108.25,-56.12 -204.13,-128.75 -285.57,-217.09 -8.69,6.12 -17.48,12.12 -26.39,17.99 -143.2,94.36 -307.98,133.88 -478.17,133.88 -166.8,0 -321.94,-56.75 -460.4,-147.28 -2.47,-1.62 -4.56,-3.02 -6.98,-4.7 -145.47,-100.71 -252.37,-236.57 -312.09,-401.91 -11.37,34.46 -23.55,68.66 -36.54,102.58 -51.72,134.92 -120.71,262.67 -210.81,375.95 -111.23,139.83 -260.36,232.21 -437.75,252.02 -33.16,5.6 -66.74,8.45 -100.41,8.45 -18.69,0 -37.39,0 -56.08,0 -225.73,0 -448,-52.86 -624.6,-200.03 -28.12,-23.43 -54.76,-48.06 -79.92,-73.82 -11.93,9.54 -24.08,18.82 -36.47,27.83 -115.5,84 -249.24,128.23 -392.08,128.23 -157.99,0 -301.89,-49.28 -424.53,-139.65 -49.68,63.73 -106.03,121.88 -169.21,172.83 -116.19,93.71 -255.53,140.71 -404.69,140.71 -51.49,0 -102.13,-5.61 -151.21,-21.97 -15.71,-5.24 -31.23,-11.04 -46.57,-17.3 -1.4,0 -2.8,0 -4.15,0 -168.09,0 -322.58,-58.06 -445.26,-173.31 -47.56,-44.68 -89.28,-94.09 -125.56,-147.25 -112.2,58.19 -236.62,84.97 -365.91,84.97 -169.79,0 -326.76,-45.71 -446.2,-142.99 -61.7,125.19 -185.55,192.07 -323.28,212.47 -50.92,7.54 -104.54,14.66 -156.05,14.66 -73.06,0 -147.98,-3.4 -220.05,-15.94 -51.67,-8.98 -100.87,-25.15 -146.06,-48.53 -97.3,53.46 -204.9,81.3 -318.21,81.3 -158,0 -301.89,-49.28 -424.54,-139.65 -49.67,63.73 -106.02,121.88 -169.2,172.83 -116.2,93.71 -255.53,140.71 -404.7,140.71 -51.48,0 -102.13,-5.61 -151.21,-21.97 -15.71,-5.24 -31.22,-11.04 -46.56,-17.3 -1.4,0 -2.81,0 -4.16,0 -168.08,0 -322.58,-58.06 -445.26,-173.31 -98.6,-92.63 -172.06,-205.6 -224.08,-330.04 -14.63,17.79 -29.55,35.35 -44.75,52.67 -153.65,175.24 -340.02,314.3 -563.9,385.29 -164.63,52.2 -338.07,87.83 -511.35,87.83 -458.32,0 -845.28,-181.51 -1091.85,-576.01 -252.52,-404.05 -314.85,-930.17 -314.85,-1397.23 0,-285.03 24.38,-570.79 82.37,-850.06 50.38,-242.55 122.49,-484.15 228.81,-708.36 93.9,-197.99 217.26,-384.36 381.89,-530.69 166.28,-147.8 365.51,-237.51 590.23,-237.51l117.8 0c98.65,0 197.38,14.03 289.36,50.82 66.6,26.63 130.29,59.91 190.35,99.09 47.94,31.26 95.22,63.54 141.92,96.61 34.03,24.11 73.74,43.98 111.84,60.65 204.48,89.47 340.73,256.08 402.61,469.57 47.23,162.96 68.69,331.43 68.69,500.95 0,57.78 -1.06,115.56 -2.98,173.3 -3,89.88 -20.02,178.29 -53.46,261.91 -39.18,97.97 -102.13,182.02 -183.79,248.84 -100.27,82.03 -223.66,120.14 -350.99,132.26 -10.55,1 -19.59,1.44 -30.2,1.44 -210.88,0 -399.82,-88.81 -503.46,-277.23 -67.1,-122.03 -101.12,-255.4 -101.12,-394.68 0,-70.26 5.51,-141.09 13.06,-210.92 5.9,-54.65 8.96,-109.57 9.34,-164.53 -64.55,74.71 -108.33,168.92 -138.95,261.92 -47.43,144.05 -75.95,295.1 -92.51,445.66 -18.6,169.05 -28.95,339.15 -28.95,509.25 0,158.93 3.63,318.14 13.42,476.79 6.87,111.11 22.94,224.8 56.22,331.29 23.28,74.47 57.12,145.18 106.35,206.07 45.29,56.02 112.09,95.9 177.26,124.4 13.17,5.77 32.15,6.94 46.21,6.94 43.5,0 82.75,-9.81 121.5,-29.61 49.46,-25.27 92.1,-58.45 129.15,-99.86 40.27,-45.01 71.09,-96.05 93.91,-151.96 21.4,-52.46 32.48,-106.27 32.48,-162.9 0,-136.6 25.26,-270.83 84.08,-394.68 85.37,-179.75 248.09,-287.1 444.99,-293.72 25.69,-171.65 64.83,-342.31 123.73,-505.26 64.56,-178.63 157.07,-348.34 290.77,-484.82 149.25,-152.37 339.53,-233.05 552.87,-233.05 90.48,0 185.49,7.21 271.77,35.96 51.73,17.24 102.39,37.79 151.16,62.18 34.44,17.22 69.08,34.03 103.18,50.27 20.2,8.77 57.22,14.73 78.86,18.14 40.02,6.31 73.24,17.99 108.42,38.1 121.86,69.67 225.66,164.6 290.54,290.52 31.56,61.25 55.79,125.42 72.79,191.68l1.54 -35.21c4.48,-222.72 174.34,-382.41 396.96,-382.41 43.69,0 87.82,5.58 130.87,12.76 49.26,8.2 97.91,19.99 145.74,34.33 61.92,18.58 121.65,44.22 176.12,79.25 105.36,67.74 175.1,174.11 184.44,298.18 64.7,-34.39 136.72,-54.3 215.42,-54.3 134.88,0 264.6,37.51 366.65,128.82 57.82,51.74 104.11,113.22 138.76,181.67 19.5,-78.57 42.65,-156.16 70.09,-232.07 64.56,-178.63 157.07,-348.34 290.77,-484.82 149.24,-152.37 339.52,-233.05 552.87,-233.05 90.48,0 185.49,7.21 271.77,35.96 51.73,17.24 102.38,37.79 151.15,62.18 34.44,17.22 69.08,34.03 103.19,50.27 20.19,8.77 57.22,14.73 78.85,18.14 40.02,6.31 73.25,17.99 108.43,38.1 121.86,69.67 225.66,164.6 290.53,290.52 49.02,95.14 80.39,197.32 94.35,303.44 0.79,6.01 1.54,12.02 2.27,18.04 12.92,-89.28 27.99,-178.26 45.11,-266.88 27.32,-141.4 140.53,-243.78 283.95,-256.8 18.48,-1.67 37.83,-4.33 55.74,-9.32 64.29,-17.85 130.77,-25.63 197.42,-25.63 16.83,0 33.65,0 50.48,0 41.28,0 82.52,2.94 123.43,8.4 45.57,6.07 90.7,15.83 134.35,30.38 72.5,24.17 135.07,66.67 179.66,122.84 3.02,-1.55 6.05,-3.08 9.08,-4.59 24.55,-12.27 49.72,-23.32 75.43,-32.96 46.23,-17.34 89.49,-28.72 139.94,-28.72 35.15,0 70.11,4.47 104.64,10.75 19.54,3.56 39.15,6.77 58.77,9.79 34.61,5.31 68.97,12.34 102.74,21.56 34.48,9.41 68.4,20.29 100.46,36.31 7.79,3.87 14.29,7.44 21.74,11.92 52.4,31.47 95.21,73.67 126.8,123.28 34.33,-45.46 79.79,-83.13 133.38,-109.9 18.98,-9.48 38.47,-17.75 58.39,-24.83 -89.75,-69.97 -164.42,-157.29 -226.38,-251.88 -5.16,-7.41 -11.26,-14.83 -16.91,-21.88 -55.86,-69.83 -92.23,-146.1 -92.23,-238.24 0,-145.66 85.21,-264.6 210.71,-331.52 39.56,-21.1 80.34,-40 121.65,-57.39 49.09,-20.66 99.72,-37.94 151.59,-50.15 45.02,-10.6 91.05,-19.68 137.47,-19.68 128.88,0 252.51,32.51 366.93,91.2 140.98,72.3 240.83,192.01 308.67,332.02 7.12,9.93 14.47,19.77 21.58,29.47 54.43,74.21 92.51,152.38 92.51,247.26 0,137.46 -70.48,258.48 -185.57,332.45 -35.66,22.92 -73.51,41.74 -113.01,56.44 97.06,77.76 154.27,188.92 162.84,313.09 9.94,84.55 -13.41,166.1 -54.87,242.47 -6.4,17.43 -11.35,40.85 -15.25,60.32 -3.37,26.23 -6.97,52.42 -11,78.57 -3.69,24.07 -6.94,48.22 -9.96,72.39 -4.05,32.38 -7.14,64.95 -9.96,97.47 -4.25,48.79 -7.28,97.82 -10.02,146.74l0 131.81c8.6,-99.16 23.09,-197.92 41.7,-295.62 33.88,-177.86 87.89,-351 164.37,-515.21 76.69,-164.64 179.03,-314.67 311.51,-439.51 158.12,-148.99 354.78,-224.12 571.81,-224.12 113.26,0 223.31,24.1 325.9,72.18 91.9,43.08 175.32,100.79 247.1,172.56 0.84,0.85 1.7,1.71 2.54,2.55 5.54,-3.11 11.17,-6.09 16.91,-8.96 18.98,-9.48 38.47,-17.75 58.39,-24.83z"/>
  <path class="fil1" d="M10416.56 959.79c2.35,-1 4.68,-2 7.02,-2.98 39.76,-16.74 80.76,-30.64 122.77,-40.53 39.31,-9.23 78.42,-16.47 119,-16.47 106.5,0 208.98,26.65 303.56,75.15 116.07,59.52 200.05,156.3 257.14,270.93 3.53,4.83 7.09,9.63 10.58,14.38 34.46,46.98 60.81,96.05 74.11,150.35 8.82,-2.37 17.68,-4.53 26.6,-6.52 43.73,-9.71 88.32,-15.59 133.16,-15.59 188.84,0 326.72,120.57 371.23,287.15 21.96,2.76 43.86,5.97 65.69,9.6 73.24,12.22 144.98,33 211.98,65.26 22.02,10.6 42.84,22.74 62.29,36.31 6.34,-13.03 12.82,-25.98 19.48,-38.83 41.84,-80.68 90.58,-160.73 150.23,-229.56 2.52,-2.91 4.7,-5.34 7.31,-8.15 68.25,-73.5 150.94,-129.9 246.05,-162.58 70.79,-24.32 144.62,-39.32 219.68,-39.32 94.68,0 186.1,23.41 270.61,65.67 63.79,31.89 123.56,71.04 179.45,115.29 54.54,43.18 105.56,90.83 153.08,141.62 39.57,42.32 78.43,85.3 116.41,129.05 28.04,31.5 51.13,66.09 70.14,102.78 24.55,-4.61 49.83,-6.95 75.54,-6.95 152.82,0 282.2,97.73 330.22,241.85 15.2,45.61 24.35,92.54 24.35,140.75 0,3.61 -0.05,6.68 -0.16,10.29 -4.03,124.48 -31.97,244.89 -88.72,356.11 -38.77,75.99 -83.28,149.51 -135.41,217.14 -28.53,38.71 -60.16,74.83 -94.51,108.44 -1.72,13.69 -3.88,27.31 -6.63,40.81 -10.46,67.59 -30.39,134.67 -52.76,199.01 -30.94,88.96 -73.48,173.17 -125.5,251.63 -58.05,87.57 -129.8,164.29 -213.57,227.63 -111.43,84.25 -242.74,126.54 -382.37,126.54 -45.82,0 -91.62,-4.87 -136.72,-12.72 -43.44,-7.55 -86.4,-17.72 -128.72,-30.07 -41.88,-12.21 -83.15,-26.48 -123.52,-43.01 -40.47,-16.55 -79.98,-35.71 -117.35,-58.44 -13.5,-7.68 -26.83,-15.63 -39.95,-23.88 -106.45,98.99 -241.73,152.1 -391.08,152.1 -175.55,0 -334.02,-68.58 -447.65,-203.14 -43.05,-50.98 -79.58,-106.23 -110.03,-164.75 -43.05,45.57 -91.26,86.09 -144.32,121.05 -117.25,77.26 -252.1,110.64 -391.57,110.64 -115.22,0 -223.94,-32.27 -323.32,-86.8 -16.05,20.26 -32.83,39.99 -50.34,59.17 -113.36,124.16 -262.75,195.87 -431.5,195.87 -140.37,0 -272.34,-42.78 -383.39,-128.84 -24.56,-19.05 -47.64,-39.55 -69.26,-61.32 -15.8,10.88 -31.94,21.35 -48.4,31.39 -136.11,83.06 -289.79,118.72 -448.31,118.72 -133.15,0 -265.18,-22.55 -385.81,-79.39 -36.1,84.19 -96.41,157.07 -174.5,214.2 -118.91,87.02 -260.75,121.56 -406.4,121.56 -148.06,0 -291.14,-37.98 -408.49,-131.25 -32.62,-25.92 -61.02,-54.9 -85.62,-86.3 -56.02,46.77 -122.12,77.4 -192.87,96.43 -50.59,13.64 -102.36,23.25 -154.43,29.04 -45.83,5.1 -91.88,7.95 -137.99,7.95 -22.71,0 -45.4,0 -68.1,0 -101.85,0 -198.54,-33.97 -275.2,-101.45 -1.69,-1.48 -3.12,-2.77 -4.78,-4.29 -65.14,-59.71 -105.94,-136.69 -129.54,-220.98 -18.36,-65.52 -26.15,-134.76 -29.46,-202.58 -3.59,-73.56 -4.38,-147.51 -4.38,-221.17 0,-96.14 0,-192.27 0,-288.41 0,-122.82 1.53,-245.64 4.06,-368.42 2.8,-135.7 7.7,-271.36 14.35,-406.92 6.62,-135.16 15.41,-270.21 26.77,-405.04 6.02,-71.47 13.45,-142.89 22.67,-214.08 -5.17,2.51 -10.33,5.04 -15.48,7.61 -43.54,21.78 -86.79,46.85 -126.26,76.12 1.76,13.25 3.51,26.5 5.24,39.76 3.67,28.11 7.48,56.2 11.49,84.27 4.84,33.94 9.2,68.84 9.2,103.15 0,48.6 -4.87,97.07 -15.02,144.62 -36.85,172.57 -183.45,289.4 -359.57,289.4 -107.62,0 -210.84,-30.13 -299.79,-90.88 -67.06,-45.79 -124.27,-103.47 -170.99,-169.83 -41.6,-59.09 -75.14,-123.28 -98.71,-191.65 -22.44,-65.06 -37.44,-132.88 -37.44,-201.98 0,-116.18 37.27,-225.7 103.93,-320.6 46.95,-66.85 101.91,-127.47 163.46,-181.15 56.98,-49.7 117.84,-94.7 182.05,-134.62 46.29,-28.78 92.97,-57.09 140.29,-84.14 2.38,-1.36 4.42,-2.49 6.84,-3.79 250.37,-135.05 518.82,-252.92 795.8,-320.79 224.44,-54.99 455.92,-89.26 687.33,-89.26 175.95,0 343.59,45.14 493.6,137.09 121.12,74.25 230.72,164.79 324.1,272.01 83.82,96.25 156.81,201.75 210.17,317.99 45.42,98.94 85.12,208.33 85.12,318.47 0,1.57 0,3.13 -0.01,4.69 45.38,-19.89 92.9,-34.6 142.12,-44.07 64.98,-127.31 205.33,-200.19 360.14,-212.1 15.93,-1.23 31.92,-2.3 47.95,-3.2 0.19,-7.76 0.38,-15.52 0.56,-23.27 1.32,-55.99 3.36,-111.97 6.39,-167.89 3.07,-56.74 8.64,-114.25 20.25,-169.91 34.87,-167.38 154.27,-301.63 337.85,-301.63 39.97,0 81.04,5.65 120.51,11.71 46.07,7.09 91.78,16.54 136.98,27.84 54.16,13.54 107.4,31.47 157.85,55.49 118.95,56.63 205.67,159.08 221.15,289.41z"/>
  <path class="fil2" d="M8546.31 1492.74c0,104.15 -22.03,205.63 -66.09,303.77 -44.07,98.8 -101.48,187.6 -172.92,267.71 -70.76,80.11 -151.54,147.54 -242.34,201.62 -90.8,54.74 -183.59,90.13 -277.06,106.15 61.42,21.36 123.51,46.07 186.26,74.1 62.76,28.04 118.17,75.45 166.24,142.21 26.71,37.38 47.4,86.79 62.09,148.21 14.69,61.42 25.37,126.84 32.04,196.27 6.68,69.44 12.02,138.87 16.03,208.3 4,69.43 10.01,132.19 18.02,188.27 8.01,56.08 19.36,101.47 34.05,136.19 14.69,34.72 35.38,52.07 62.09,52.07 29.37,0 52.07,-6 68.1,-18.02 16.02,-12.02 33.38,-32.71 52.07,-62.09 2.67,8.01 4.67,15.36 6.01,22.03 1.33,6.68 2,15.36 2,26.04 0,56.08 -27.37,104.15 -82.12,144.2 -54.74,40.06 -127.51,60.09 -218.31,60.09 -88.12,0 -158.22,-20.7 -210.29,-62.09 -52.08,-41.39 -84.79,-112.83 -98.14,-214.3 -24.04,-189.61 -41.4,-344.49 -52.08,-464.66 -10.68,-120.17 -25.37,-213.64 -44.06,-280.4 -18.69,-66.76 -45.4,-112.16 -80.78,-136.19 -34.72,-24.04 -87.46,-36.05 -157.56,-36.05 -13.35,0 -34.05,1.33 -62.09,4 -28.7,2.67 -42.72,9.35 -42.72,20.03 -5.34,24.03 -8.01,80.11 -8.01,168.24 0,88.12 0,188.27 0,300.42l0 448.64c0,10.68 2,28.04 6,52.07 4.68,24.04 23.37,41.4 56.75,52.08 -16.69,16.02 -42.06,28.71 -76.77,38.05 -34.72,9.35 -70.77,16.03 -106.82,20.03 -36.05,4.01 -70.1,6.01 -102.81,6.01 -32.05,0 -54.75,0 -68.1,0 -26.71,0 -48.07,-7.34 -64.76,-22.03 -16.02,-14.69 -28.71,-38.72 -38.05,-72.1 -9.35,-33.38 -15.36,-77.45 -18.03,-132.19 -2.67,-54.75 -4,-122.84 -4,-205.63 0,-80.11 0,-176.25 0,-288.41 0,-111.49 1.33,-232.33 4,-361.84 2.67,-129.52 7.34,-261.71 14.02,-397.9 6.68,-136.19 15.36,-267.04 26.04,-393.89 10.68,-126.85 25.37,-244.35 44.06,-351.83 18.69,-108.16 41.39,-198.28 68.1,-270.39 -5.34,-5.34 -12.02,-14.02 -20.03,-26.03 -8.01,-12.02 -14.69,-18.03 -20.03,-18.03l-28.04 0c-61.42,0 -138.2,14.02 -230.33,42.06 -92.13,28.04 -180.92,63.42 -266.37,106.15 -85.46,42.73 -158.9,90.13 -220.32,142.2 -61.42,52.08 -92.13,102.15 -92.13,149.55 0,10.68 2.01,30.71 6.01,60.08 4.01,29.38 8.01,59.42 12.02,90.13 4,30.71 8.01,60.09 12.02,88.13 4,28.04 6,47.4 6,58.08 0,26.7 -2.67,52.74 -8.01,78.11 -5.34,24.7 -21.36,37.39 -48.07,37.39 -45.39,0 -85.45,-12.02 -120.17,-35.39 -34.71,-24.03 -64.75,-54.08 -90.12,-90.13 -25.37,-36.05 -44.73,-73.43 -58.09,-112.16 -13.35,-38.72 -20.02,-71.43 -20.02,-98.13 0,-48.07 15.35,-94.14 46.06,-137.53 30.71,-44.07 68.1,-85.46 112.16,-124.18 44.73,-38.72 91.46,-73.44 140.87,-104.15 49.4,-30.71 92.79,-56.74 130.18,-78.11 262.37,-141.53 502.05,-238.34 720.36,-291.74 217.64,-53.41 421.93,-80.12 611.53,-80.12 120.17,0 229.66,30.04 327.13,90.13 97.47,59.42 180.92,129.52 250.36,209.63 70.09,80.11 123.5,160.23 160.89,241.68 37.39,81.45 56.08,142.87 56.08,185.59zm-320.45 -70.1c0,-136.19 -52.75,-239 -158.23,-308.43 -105.48,-69.44 -242.34,-104.15 -410.58,-104.15 -10.68,0 -23.37,0 -38.06,0 -14.68,0 -48.73,1.33 -102.14,4 -24.03,2.67 -43.4,19.37 -58.08,50.08 -14.69,30.71 -22.03,80.78 -22.03,150.21l0 929.32c0,37.38 6,61.42 18.02,72.1 12.02,10.68 44.73,16.02 98.14,16.02 88.13,0 172.91,-28.71 254.36,-86.12 81.45,-57.42 152.88,-127.52 214.31,-210.3 61.42,-82.78 110.82,-170.91 148.21,-264.37 37.38,-93.47 56.08,-176.25 56.08,-248.36z"/>
  <path id="1" class="fil2" d="M9784.06 2728.5c0,66.76 -12.02,141.53 -36.05,224.31 -24.03,82.79 -61.42,159.56 -112.16,230.33 -50.74,70.77 -115.5,130.18 -194.27,178.25 -78.78,48.07 -172.92,72.1 -282.41,72.1 -104.14,0 -192.27,-18.69 -264.37,-56.07 -72.1,-37.39 -131.52,-88.13 -178.25,-152.22 -46.74,-64.09 -80.12,-139.53 -100.14,-226.32 -20.03,-86.79 -30.05,-178.25 -30.05,-274.39 0,-93.47 10.68,-196.28 32.05,-308.44 21.36,-112.16 54.74,-216.97 100.14,-314.44 45.4,-97.48 102.81,-178.92 172.24,-244.35 69.44,-65.43 153.56,-98.14 252.36,-98.14 48.07,0 93.47,10.01 136.2,30.04 42.72,20.03 80.11,46.07 112.15,78.11 32.05,32.05 57.42,69.44 76.11,112.16 18.7,42.73 29.38,86.79 32.05,132.19l4 56.08c0,64.09 -10.68,134.19 -32.04,210.3 -21.37,76.11 -52.08,146.87 -92.13,212.3 -40.06,65.43 -89.46,120.17 -148.21,164.23 -58.75,44.06 -125.51,66.1 -200.29,66.1 -13.35,0 -30.04,-1.34 -50.07,-4.01 -20.03,-2.67 -39.39,-6.68 -58.08,-12.02l0 116.17c0,18.69 6.01,45.4 18.03,80.11 12.01,34.72 30.04,68.77 54.07,102.15 24.04,33.38 55.41,62.75 94.14,88.12 38.72,25.37 86.12,38.06 142.2,38.06 77.44,0 140.86,-15.36 190.27,-46.07 49.4,-30.71 90.12,-70.1 122.17,-118.17 32.05,-48.07 56.75,-102.14 74.11,-162.23 17.35,-60.08 31.37,-118.17 42.05,-174.24 8.02,-37.39 16.03,-62.76 24.04,-76.11 8.01,-13.35 21.36,-20.03 40.06,-20.03 40.05,0 60.08,22.7 60.08,68.1l0 28.04zm-472.67 -620.89c0,-21.36 -6.01,-44.06 -18.02,-68.09 -12.02,-24.04 -34.05,-36.05 -66.1,-36.05 -48.07,0 -89.46,25.37 -124.17,76.11 -34.72,50.73 -63.43,108.82 -86.13,174.24 -22.7,65.43 -39.39,128.18 -50.07,188.27 -10.68,60.08 -16.02,99.47 -16.02,118.17l0 12.01c0,24.04 2,43.4 6.01,58.09 4,14.68 18.02,22.03 42.06,22.03l20.03 0c53.4,0 98.8,-20.03 136.19,-60.09 37.39,-40.05 67.43,-88.12 90.13,-144.2 22.7,-56.08 39.39,-113.5 50.07,-172.25 10.68,-58.75 16.02,-106.81 16.02,-144.2l0 -24.04z"/>
  <path id="2" class="fil2" d="M9675.9 2620.34c2.67,-136.19 6.68,-275.05 12.02,-416.59 5.34,-141.53 10.68,-272.39 16.02,-392.56 0,-21.36 -21.36,-36.05 -64.09,-44.06 -42.73,-8.01 -90.79,-16.02 -144.2,-24.03 -53.41,-8.01 -101.48,-20.7 -144.21,-38.06 -42.72,-17.35 -64.09,-46.06 -64.09,-86.12 0,-34.71 34.72,-54.74 104.15,-60.08 69.43,-5.34 172.24,-8.01 308.44,-8.01 10.68,0 18.02,-16.03 22.03,-48.07 4,-32.05 6.67,-72.77 8.01,-122.18 1.33,-49.4 2.67,-102.14 4.01,-158.22 1.33,-56.08 3.33,-108.82 6,-158.22 2.67,-49.41 7.35,-90.13 14.02,-122.18 6.68,-32.04 15.36,-48.07 26.04,-48.07 13.35,0 37.39,2.67 72.1,8.02 34.72,5.34 70.77,12.68 108.16,22.03 37.38,9.34 70.1,20.69 98.14,34.04 28.03,13.36 42.05,28.04 42.05,44.07l-44.06 520.74c0,16.02 14.02,27.37 42.06,34.04 28.04,6.68 64.09,10.69 108.16,12.02 44.06,1.34 90.79,2 140.19,2 49.41,0 96.14,4.01 140.2,12.02 44.07,8.01 80.12,20.7 108.16,38.05 28.04,17.36 42.06,43.4 42.06,78.12 0,5.34 -2.67,14.02 -8.02,26.03 -5.34,12.02 -12.01,18.03 -20.02,18.03 -5.34,0 -12.69,-4.01 -22.04,-12.02 -9.34,-8.01 -34.04,-12.02 -74.1,-12.02 -10.68,0 -40.06,1.34 -88.13,4.01 -48.06,2.67 -98.8,6.68 -152.21,12.02 -53.41,5.34 -102.15,11.35 -146.21,18.02 -44.06,6.68 -68.76,15.36 -74.1,26.04 -2.67,5.34 -6.01,36.72 -10.02,94.13 -4,57.42 -8.01,132.86 -12.01,226.32 -4.01,93.47 -7.35,200.96 -10.02,322.46 -2.67,121.51 -4,249.02 -4,382.54 0,50.74 2.67,100.15 8.01,148.21 5.34,48.07 13.35,91.47 24.03,130.19 10.68,38.72 24.7,70.1 42.06,94.13 17.36,24.04 38.05,36.05 62.09,36.05 34.71,0 66.76,-14.68 96.13,-44.06 29.38,-29.37 56.08,-69.43 80.12,-120.17 24.03,-50.74 45.4,-108.15 64.09,-172.24 18.69,-64.1 34.72,-129.52 48.07,-196.28 8.01,-40.06 17.36,-68.77 28.04,-86.13 10.68,-17.35 26.7,-26.03 48.07,-26.03 18.69,0 35.38,6.01 50.07,18.02 14.68,12.02 22.03,39.39 22.03,82.12 0,26.7 -1.34,44.06 -4.01,52.07 -8.01,48.07 -23.36,114.17 -46.06,198.29 -22.7,84.11 -53.41,166.9 -92.13,248.35 -38.73,81.45 -86.13,152.88 -142.21,214.3 -56.08,61.42 -121.5,92.13 -196.27,92.13 -72.11,0 -134.86,-20.69 -188.27,-62.09 -53.41,-41.39 -98.14,-98.8 -134.19,-172.24 -36.05,-73.44 -63.42,-160.23 -82.12,-260.37 -18.69,-100.14 -28.04,-207.63 -28.04,-322.46l0 -36.05z"/>
  <path id="3" class="fil2" d="M11001.78 1490.74c0,18.69 -9.34,34.05 -28.03,46.07 -18.7,12.01 -39.39,20.69 -62.09,26.03 -22.7,5.34 -44.73,9.35 -66.1,12.02 -21.36,2.67 -34.71,4.01 -40.05,4.01 -56.08,0 -111.49,-16.03 -166.24,-48.07 -54.74,-32.05 -104.81,-82.79 -150.21,-152.22 -5.34,-8.01 -13.35,-18.69 -24.04,-32.04 -10.68,-13.36 -16.02,-22.7 -16.02,-28.04 0,-13.36 10.02,-25.37 30.04,-36.06 20.03,-10.68 42.73,-21.36 68.1,-32.04 25.37,-10.68 49.4,-18.69 72.1,-24.03 22.7,-5.35 38.06,-8.02 46.07,-8.02 53.41,0 106.15,13.36 158.22,40.06 52.08,26.71 94.14,76.11 126.18,148.21 5.34,8.01 15.36,22.03 30.04,42.06 14.69,20.03 22.03,34.05 22.03,42.06zm408.58 1213.72c-8.01,64.09 -22.69,130.85 -44.06,200.29 -21.36,69.43 -51.4,134.19 -90.13,194.27 -38.72,60.09 -87.45,109.49 -146.2,148.21 -58.75,38.72 -130.86,58.08 -216.31,58.08 -66.76,0 -134.86,-22.7 -204.29,-68.09 -69.43,-48.07 -116.83,-110.83 -142.2,-188.27 -25.37,-77.44 -38.06,-152.22 -38.06,-224.32 0,-21.36 1.34,-53.41 4.01,-96.13 2.67,-42.73 4.01,-94.81 4.01,-156.23l0 -440.62c0,-21.36 -0.67,-44.06 -2.01,-68.1 -1.33,-24.03 -4.67,-46.73 -10.01,-68.09 -2.67,-10.69 -7.34,-22.7 -14.02,-36.06 -6.68,-13.35 -10.02,-22.69 -10.02,-28.04 0,-10.68 6.68,-19.36 20.03,-26.03 13.36,-6.68 28.04,-11.35 44.07,-14.02 16.02,-2.67 31.37,-4.01 46.06,-4.01 14.69,0 22.03,0 22.03,0 8.01,0 26.71,0.67 56.08,2.01 29.38,1.33 60.09,6 92.13,14.02 32.05,8.01 60.76,20.69 86.12,38.05 25.37,17.36 38.06,42.06 38.06,74.1 2.67,8.02 -2,22.7 -14.02,44.07 -12.02,21.36 -23.37,58.75 -34.05,112.16 -2.67,21.36 -5.34,40.72 -8.01,58.08 -2.67,17.36 -5.34,36.72 -8.01,58.08 -2.67,21.36 -5.34,47.4 -8.01,78.11 -2.67,30.71 -5.34,70.1 -8.01,118.17l0 240.34c0,42.73 1.33,86.12 4,130.18 2.67,44.07 8.68,84.12 18.03,120.17 9.34,36.06 24.7,65.43 46.06,88.13 21.37,22.7 49.4,34.05 84.12,34.05 50.74,0 90.8,-14.69 120.17,-44.06 29.38,-29.38 52.08,-54.75 68.1,-76.11 29.37,-40.06 52.07,-90.13 68.09,-150.22 16.03,-60.08 30.71,-122.17 44.07,-186.26l8.01 -40.06c8.01,-40.05 32.04,-60.08 72.1,-60.08 40.06,0 60.09,28.04 60.09,84.12l0 20.03 -8.02 60.08z"/>
  <path id="4" class="fil2" d="M12411.79 2780.57c0,18.69 -6.01,63.42 -18.03,134.19 -12.02,70.77 -33.38,145.54 -64.09,224.32 -30.71,78.78 -72.1,148.88 -124.18,210.3 -52.07,61.42 -118.16,92.13 -198.28,92.13 -85.45,0 -153.55,-30.05 -204.29,-90.13 -50.74,-60.09 -89.46,-132.19 -116.16,-216.31 -26.71,-84.12 -44.06,-172.24 -52.08,-264.37 -8.01,-92.13 -12.01,-168.91 -12.01,-230.33 0,-69.43 4,-139.53 12.01,-210.3 8.02,-70.76 13.36,-140.86 16.03,-210.3 0,-21.36 -10.69,-34.71 -32.05,-40.05 -21.36,-5.34 -41.39,-8.01 -60.08,-8.01 -32.05,0 -52.08,4 -60.09,12.01 -8.01,8.01 -13.35,17.36 -16.02,28.04l-16.02 128.18c-10.69,85.46 -22.04,167.58 -34.05,246.35 -12.02,78.78 -25.37,148.21 -40.06,208.3 -14.69,60.08 -32.05,108.15 -52.07,144.2 -20.03,36.05 -43.4,54.08 -70.1,54.08l-4.01 0c-10.68,0 -20.69,-2.67 -30.04,-8.01 -9.35,-5.34 -14.02,-18.69 -14.02,-40.06 0,-10.68 2.67,-26.7 8.01,-48.07 21.36,-93.46 34.72,-170.91 40.06,-232.33 5.34,-61.42 9.34,-116.16 12.01,-164.23l0 -28.04c0,-13.35 0.67,-29.37 2.01,-48.07 1.33,-18.69 2,-41.39 2,-68.09l0 -104.15c0,-29.38 0,-60.09 0,-92.13 0,-32.05 -2.67,-66.76 -8.01,-104.15l-12.02 -236.33c0,-16.03 6.68,-30.71 20.03,-44.07 13.35,-13.35 30.71,-25.37 52.07,-36.05 21.37,-10.68 44.07,-18.69 68.1,-24.03 24.03,-5.34 45.4,-8.01 64.09,-8.01 45.4,0 68.1,29.37 68.1,88.12l0 20.03 -4.01 88.13 0 24.03c0,18.69 4.01,30.04 12.02,34.05 8.01,4 24.03,8.68 48.07,14.02l12.01 0c21.37,2.67 56.08,5.34 104.15,8.01 48.07,2.67 96.14,8.01 144.21,16.02 48.06,8.01 90.12,20.7 126.18,38.06 36.05,17.35 54.07,42.06 54.07,74.1 0,10.68 -2.67,26.04 -8.01,46.07 -5.34,20.02 -12.02,40.05 -20.03,60.08 -8.01,20.03 -14.69,38.06 -20.03,54.08 -5.34,16.02 -8.01,26.7 -8.01,32.04 -48.07,184.26 -72.1,376.54 -72.1,576.82 0,16.02 1.34,45.4 4.01,88.13 2.67,42.72 8.01,86.79 16.02,132.18 8.01,45.4 20.03,85.46 36.05,120.17 16.02,34.72 36.05,52.08 60.08,52.08 40.06,0 76.11,-24.7 108.16,-74.11 32.04,-49.4 60.08,-106.82 84.12,-172.24 24.03,-65.43 43.39,-131.52 58.08,-198.28 14.69,-66.76 24.7,-116.17 30.04,-148.21 5.34,-29.38 14.02,-47.4 26.04,-54.08 12.02,-6.68 23.37,-10.01 34.05,-10.01 37.38,0 56.08,24.03 56.08,72.1 0,5.34 -0.67,19.36 -2.01,42.06 -1.33,22.7 -3.33,39.39 -6,50.07z"/>
  <path id="5" class="fil2" d="M13633.52 2202.42c10.68,-18.7 29.38,-28.04 56.08,-28.04 13.35,0 22.7,8.01 28.04,24.03 5.34,16.02 8.01,29.38 8.01,40.06 -2.67,82.78 -20.69,156.22 -54.08,221.64 -33.38,65.43 -68.76,122.18 -106.15,170.25 -21.36,29.37 -44.73,55.41 -70.09,79.44 -25.37,24.04 -51.41,46.74 -78.12,68.1 -2.67,45.4 -4.67,76.77 -6,94.13 -1.34,17.36 -3.34,31.38 -6.01,42.06 -5.34,40.06 -18.7,90.13 -40.06,151.55 -21.36,61.42 -51.41,121.51 -90.13,180.26 -38.72,58.08 -85.45,108.15 -140.2,149.54 -54.74,41.39 -118.16,62.09 -190.27,62.09 -24.03,0 -51.4,-2.67 -82.11,-8.01 -30.71,-5.34 -62.09,-12.69 -94.14,-22.03 -32.04,-9.35 -62.75,-20.03 -92.13,-32.05 -29.37,-12.02 -54.74,-24.7 -76.1,-38.05 -66.77,-37.39 -121.51,-80.78 -164.24,-131.52 -42.72,-50.74 -75.44,-104.82 -98.14,-162.23 -22.7,-57.42 -38.05,-115.5 -46.06,-175.59 -8.01,-60.08 -12.02,-118.16 -12.02,-174.24 0,-95.47 10.02,-192.94 30.04,-291.75 20.03,-98.14 44.73,-192.94 74.11,-283.73 29.37,-90.13 62.75,-171.58 100.14,-243.68 37.39,-72.11 73.44,-127.52 108.15,-167.57 34.72,-37.39 73.44,-63.43 116.17,-78.12 42.73,-14.68 81.45,-22.03 116.16,-22.03 42.73,0 85.46,10.69 128.19,32.05 42.72,21.36 84.11,48.07 124.17,80.11 40.06,31.38 79.45,68.1 118.17,109.49 38.72,41.39 75.44,82.12 110.16,122.17 26.7,29.38 46.73,76.78 60.08,141.54 13.35,65.42 24.03,131.52 32.05,198.28 5.34,37.39 9.34,76.77 12.01,119.5 2.67,42.73 4.01,86.79 4.01,132.19 40.06,-32.05 72.1,-66.09 96.13,-102.15 24.04,-36.05 43.4,-69.43 58.09,-101.47 14.68,-32.05 26.7,-62.09 36.05,-90.13 9.34,-28.04 19.36,-50.07 30.04,-66.09zm-452.64 341.81c0,-10.68 -0.67,-34.71 -2,-72.1 -1.34,-37.38 -4.01,-81.45 -8.02,-132.19 -4,-50.73 -10.68,-103.48 -20.02,-158.22 -9.35,-54.74 -22.7,-104.82 -40.06,-150.21 -17.36,-45.4 -39.39,-83.45 -66.09,-114.16 -26.71,-30.72 -60.09,-46.07 -100.15,-46.07 -40.05,0 -78.77,16.02 -116.16,48.07 -37.39,32.04 -70.77,73.44 -100.14,124.17 -29.38,50.74 -52.74,108.16 -70.1,172.25 -17.36,64.09 -26.04,126.84 -26.04,188.27 0,106.81 21.36,184.92 64.09,234.33 42.73,49.4 116.17,74.1 220.31,74.1 77.45,0 140.87,-12.01 190.27,-36.05 49.41,-24.03 74.11,-42.73 74.11,-56.08l0 -76.11zm-20.03 328.47c-32.04,21.36 -76.11,37.39 -132.19,48.07 -56.08,10.68 -102.81,16.02 -140.2,16.02 -72.1,0 -127.51,-5.34 -166.23,-16.02 -38.72,-10.68 -80.78,-32.05 -126.18,-64.09l-4.01 84.12c0,29.37 4.01,60.08 12.02,92.13 8.01,32.04 20.7,61.42 38.06,88.12 17.35,26.71 42.05,48.74 74.1,66.1 32.05,17.35 72.1,26.03 120.17,26.03 58.75,0 108.82,-11.35 150.21,-34.05 41.4,-22.69 74.78,-51.4 100.15,-86.12 25.36,-34.71 44.06,-72.1 56.08,-112.16 12.01,-40.05 18.02,-76.1 18.02,-108.15z"/>
  <path class="fil2" d="M3023.15 6365.49c-26.18,100.96 -68.25,205.66 -126.21,314.1 -57.96,108.45 -129.94,211.28 -215.95,308.5 -127.14,145.84 -267.36,243.06 -420.68,291.67 -153.31,48.62 -291.67,72.92 -415.07,72.92 -370.19,0 -644.1,-142.09 -821.72,-426.29 -177.62,-284.19 -266.43,-693.65 -266.43,-1228.38 0,-280.45 25.24,-542.21 75.72,-785.27 50.48,-243.06 118.72,-455.27 204.73,-636.63 86,-181.36 187.9,-324.39 305.69,-429.09 117.79,-104.7 244,-157.05 378.61,-157.05l117.79 0c67.31,0 124.34,9.34 171.08,28.04 46.74,18.7 91.62,42.07 134.62,70.11 43,28.05 86.94,57.96 131.81,89.75 44.87,31.78 100.96,62.63 168.27,92.55 112.18,48.61 186.97,137.42 224.37,266.43 37.39,129.01 56.09,266.43 56.09,412.26 0,52.36 -0.94,106.58 -2.81,162.67 -1.87,56.09 -12.15,107.5 -30.85,154.25 -18.7,46.74 -48.61,86.94 -89.74,120.59 -41.14,33.66 -100.97,54.22 -179.49,61.7 -108.45,0 -183.23,-37.39 -224.37,-112.18 -41.13,-74.79 -61.7,-155.18 -61.7,-241.19 0,-48.61 3.74,-107.51 11.22,-176.69 7.48,-69.17 11.22,-139.29 11.22,-210.33 0,-93.49 -14.02,-175.76 -42.07,-246.8 -28.04,-71.05 -85.07,-106.58 -171.07,-106.58 -138.36,0 -251.48,49.55 -339.35,148.64 -87.88,99.1 -157.06,225.3 -207.54,378.62 -50.48,153.31 -86,323.45 -106.57,510.42 -20.57,186.97 -30.85,368.33 -30.85,544.08 0,179.49 4.68,344.96 14.02,496.4 9.35,151.45 32.72,287 70.12,406.66 37.39,119.66 91.61,223.43 162.66,311.3 71.05,87.88 170.14,159.86 297.28,215.95 52.35,22.44 110.31,33.65 173.88,33.65 93.49,0 182.3,-21.5 266.43,-64.5 84.14,-43 157.99,-100.03 221.56,-171.08 63.57,-71.04 114.05,-152.38 151.44,-243.99 37.4,-91.62 56.09,-186.03 56.09,-283.26 0,-97.22 17.77,-183.23 53.29,-258.01 35.52,-74.79 94.42,-112.19 176.69,-112.19 59.83,0 99.09,18.7 117.79,56.09 18.69,37.4 28.04,80.4 28.04,129.01 0,86.01 -9.35,157.06 -28.04,213.15z"/>
  <path id="1" class="fil2" d="M5373.35 6573.02c-7.48,52.35 -26.18,114.05 -56.09,185.1 -29.92,71.05 -68.25,139.29 -114.99,204.73 -46.74,65.44 -100.96,120.6 -162.66,165.47 -61.7,44.87 -129.95,67.31 -204.73,67.31 -112.19,0 -210.34,-43 -294.48,-129.01 -84.14,-86.01 -135.55,-207.54 -154.25,-364.59 -22.44,59.83 -48.61,129.01 -78.53,207.54 -29.91,78.52 -67.3,151.44 -112.18,218.75 -44.87,67.31 -96.29,124.33 -154.25,171.08 -57.96,46.74 -126.2,70.11 -204.73,70.11 -22.43,0 -39.26,-1.87 -50.48,-5.61 -11.22,-3.74 -23.37,-8.41 -36.46,-14.02 -13.09,-5.61 -28.04,-10.29 -44.87,-14.03 -16.83,-3.73 -40.2,-5.6 -70.11,-5.6 -89.75,0 -165.47,-28.98 -227.17,-86.94 -61.7,-57.97 -111.25,-131.82 -148.64,-221.56 -37.39,-89.75 -64.5,-187.91 -81.33,-294.48 -16.83,-106.57 -25.24,-206.6 -25.24,-300.08 0,-224.37 12.15,-437.51 36.46,-639.44 24.3,-201.92 64.5,-380.48 120.59,-535.66 56.09,-155.19 129.01,-278.58 218.75,-370.2 89.75,-91.61 198.19,-137.42 325.33,-137.42 74.79,0 131.81,6.54 171.08,19.63 39.26,13.09 75.72,28.05 109.37,44.87 33.66,16.83 70.12,34.59 109.38,53.29 39.26,18.7 94.42,33.65 165.47,44.87 78.52,44.87 133.68,98.16 165.46,159.86 31.79,61.7 52.36,128.07 61.7,199.12 9.35,71.05 12.16,144.9 8.42,221.56 -3.74,76.66 0,152.38 11.22,227.17 0,3.74 8.41,9.34 25.24,16.82 16.82,7.48 36.46,15.9 58.89,25.24 22.44,9.35 42.07,22.44 58.9,39.27 16.82,16.82 25.24,38.33 25.24,64.5l0 22.44c-37.4,97.22 -59.83,183.23 -67.31,258.01 -7.48,74.79 -11.22,164.54 -11.22,269.24 0,52.35 2.81,109.38 8.41,171.08 5.61,61.7 14.96,119.66 28.05,173.88 13.09,54.22 32.72,99.09 58.89,134.61 26.18,35.53 59.83,53.29 100.97,53.29 44.87,0 85.07,-22.44 120.59,-67.31 35.53,-44.87 65.44,-96.29 89.75,-154.25 24.3,-57.96 44.87,-116.85 61.7,-176.68 16.82,-59.83 27.11,-104.71 30.85,-134.62 7.48,-44.87 26.17,-67.31 56.09,-67.31 18.69,0 36.46,10.28 53.28,30.85 16.83,20.57 25.24,57.03 25.24,109.38 0,14.95 0,28.98 0,42.07 0,13.08 -1.87,28.98 -5.6,47.67zm-1037.68 -908.67c0,-41.13 -3.74,-89.74 -11.22,-145.83 -7.48,-56.09 -20.57,-108.44 -39.26,-157.05 -18.7,-48.62 -46.74,-89.75 -84.14,-123.4 -37.39,-33.66 -87.87,-50.49 -151.44,-50.49 -104.71,0 -189.78,47.68 -255.21,143.04 -65.44,95.35 -116.86,207.53 -154.25,336.54 -37.4,129.01 -61.7,261.76 -72.92,398.24 -11.22,136.49 -16.83,244 -16.83,322.52 0,59.83 2.81,131.82 8.41,215.95 5.61,84.14 15.9,163.6 30.85,238.39 14.96,74.78 36.46,138.35 64.51,190.71 28.04,52.35 64.5,78.52 109.38,78.52 108.44,0 191.64,-42.07 249.6,-126.2 57.96,-84.14 101.9,-188.84 131.81,-314.11 29.92,-125.27 51.42,-259.89 64.51,-403.85 13.08,-143.97 25.24,-275.78 36.45,-395.44 7.48,-63.57 24.31,-103.77 50.49,-120.59 26.17,-16.83 39.26,-28.99 39.26,-36.46l0 -50.49z"/>
  <path id="2" class="fil2" d="M6063.26 5961.63c-56.09,78.53 -101.9,165.47 -137.42,260.83 -35.52,95.35 -66.37,194.44 -92.55,297.28 -26.18,102.83 -47.68,205.66 -64.5,308.49 -16.83,102.84 -34.59,201 -53.29,294.48 -7.48,22.44 -36.46,37.39 -86.94,44.87 -50.48,7.48 -86.94,11.22 -109.38,11.22 -67.31,0 -122.46,-3.74 -165.46,-11.22 -43.01,-7.48 -75.73,-25.24 -98.16,-53.28 -22.44,-28.05 -39.27,-71.05 -50.49,-129.01 -11.21,-57.96 -20.56,-135.55 -28.04,-232.78l72.92 -1665.89c0,-48.61 26.17,-72.92 78.52,-72.92 18.7,0 44.88,2.81 78.53,8.42 33.66,5.61 69.18,14.02 106.57,25.24 37.4,11.22 69.18,25.24 95.36,42.07 26.17,16.82 39.26,36.45 39.26,58.89l0 1138.64c3.74,-3.74 9.35,-18.7 16.83,-44.87 26.17,-67.31 57.96,-150.51 95.35,-249.61 37.4,-99.09 78.53,-193.51 123.4,-283.25 44.87,-89.75 92.55,-166.4 143.03,-229.97 50.48,-63.57 101.9,-95.36 154.25,-95.36 67.31,0 118.73,15.89 154.25,47.68 35.52,31.78 62.64,71.98 81.33,120.59 18.7,48.62 29.92,100.97 33.66,157.06 3.74,56.09 5.61,110.31 5.61,162.66 0,37.39 -3.74,99.09 -11.22,185.1 -7.48,86 -11.22,215.01 -11.22,387.02 0,97.23 9.35,185.1 28.04,263.63 18.7,78.53 56.1,117.79 112.19,117.79 41.13,0 78.52,-18.7 112.18,-56.09 33.65,-37.39 64.5,-84.14 92.55,-140.23 28.04,-56.09 51.41,-115.92 70.11,-179.49 18.7,-63.57 29.91,-123.4 33.65,-179.49 3.74,-71.04 31.79,-106.57 84.14,-106.57 33.65,0 56.09,11.22 67.31,33.66 11.22,22.43 16.83,48.61 16.83,78.52l0 11.22c-3.74,74.79 -17.77,158.92 -42.07,252.41 -24.31,93.48 -59.83,181.36 -106.57,263.62 -46.75,82.27 -107.51,151.45 -182.3,207.54 -74.79,56.09 -166.4,84.14 -274.84,84.14 -168.27,0 -275.78,-60.77 -322.52,-182.3 -46.75,-121.53 -70.12,-301.95 -70.12,-541.27l11.22 -409.47z"/>
  <path id="3" class="fil2" d="M9120.2 6573.02c-7.48,52.35 -26.18,114.05 -56.09,185.1 -29.92,71.05 -68.25,139.29 -114.99,204.73 -46.74,65.44 -100.96,120.6 -162.66,165.47 -61.7,44.87 -129.95,67.31 -204.73,67.31 -112.19,0 -210.34,-43 -294.48,-129.01 -84.14,-86.01 -135.55,-207.54 -154.25,-364.59 -22.44,59.83 -48.61,129.01 -78.53,207.54 -29.91,78.52 -67.3,151.44 -112.18,218.75 -44.87,67.31 -96.29,124.33 -154.25,171.08 -57.96,46.74 -126.2,70.11 -204.73,70.11 -22.43,0 -39.26,-1.87 -50.48,-5.61 -11.22,-3.74 -23.37,-8.41 -36.46,-14.02 -13.09,-5.61 -28.04,-10.29 -44.87,-14.03 -16.83,-3.73 -40.2,-5.6 -70.11,-5.6 -89.75,0 -165.47,-28.98 -227.17,-86.94 -61.7,-57.97 -111.25,-131.82 -148.64,-221.56 -37.39,-89.75 -64.5,-187.91 -81.33,-294.48 -16.83,-106.57 -25.24,-206.6 -25.24,-300.08 0,-224.37 12.15,-437.51 36.46,-639.44 24.3,-201.92 64.5,-380.48 120.59,-535.66 56.09,-155.19 129.01,-278.58 218.75,-370.2 89.75,-91.61 198.19,-137.42 325.33,-137.42 74.79,0 131.81,6.54 171.08,19.63 39.26,13.09 75.72,28.05 109.37,44.87 33.66,16.83 70.12,34.59 109.38,53.29 39.26,18.7 94.42,33.65 165.47,44.87 78.52,44.87 133.68,98.16 165.46,159.86 31.79,61.7 52.36,128.07 61.7,199.12 9.35,71.05 12.16,144.9 8.42,221.56 -3.74,76.66 0,152.38 11.22,227.17 0,3.74 8.41,9.34 25.24,16.82 16.82,7.48 36.46,15.9 58.89,25.24 22.44,9.35 42.07,22.44 58.9,39.27 16.82,16.82 25.24,38.33 25.24,64.5l0 22.44c-37.4,97.22 -59.83,183.23 -67.31,258.01 -7.48,74.79 -11.22,164.54 -11.22,269.24 0,52.35 2.81,109.38 8.41,171.08 5.61,61.7 14.96,119.66 28.05,173.88 13.09,54.22 32.72,99.09 58.89,134.61 26.18,35.53 59.83,53.29 100.97,53.29 44.87,0 85.07,-22.44 120.59,-67.31 35.53,-44.87 65.44,-96.29 89.75,-154.25 24.3,-57.96 44.87,-116.85 61.7,-176.68 16.82,-59.83 27.11,-104.71 30.85,-134.62 7.48,-44.87 26.17,-67.31 56.09,-67.31 18.69,0 36.46,10.28 53.28,30.85 16.83,20.57 25.24,57.03 25.24,109.38 0,14.95 0,28.98 0,42.07 0,13.08 -1.87,28.98 -5.6,47.67zm-1037.68 -908.67c0,-41.13 -3.74,-89.74 -11.22,-145.83 -7.48,-56.09 -20.57,-108.44 -39.26,-157.05 -18.7,-48.62 -46.74,-89.75 -84.14,-123.4 -37.39,-33.66 -87.87,-50.49 -151.44,-50.49 -104.71,0 -189.78,47.68 -255.21,143.04 -65.44,95.35 -116.86,207.53 -154.25,336.54 -37.4,129.01 -61.7,261.76 -72.92,398.24 -11.22,136.49 -16.83,244 -16.83,322.52 0,59.83 2.81,131.82 8.41,215.95 5.61,84.14 15.9,163.6 30.85,238.39 14.96,74.78 36.46,138.35 64.51,190.71 28.04,52.35 64.5,78.52 109.38,78.52 108.44,0 191.64,-42.07 249.6,-126.2 57.96,-84.14 101.9,-188.84 131.81,-314.11 29.92,-125.27 51.42,-259.89 64.51,-403.85 13.08,-143.97 25.24,-275.78 36.45,-395.44 7.48,-63.57 24.31,-103.77 50.49,-120.59 26.17,-16.83 39.26,-28.99 39.26,-36.46l0 -50.49z"/>
  <path id="4" class="fil2" d="M10707.56 5967.24c0,56.09 -10.28,99.1 -30.85,129.01 -20.57,29.92 -47.68,52.35 -81.33,67.31 -33.65,14.96 -71.98,25.24 -114.99,30.85 -43,5.61 -85.07,10.28 -126.2,14.02l0 28.05c0,78.53 -11.22,177.62 -33.65,297.28 -22.44,119.66 -55.16,235.58 -98.16,347.76 -43.01,112.18 -97.23,209.41 -162.67,291.67 -65.43,82.27 -143.03,127.14 -232.77,134.62 -18.7,3.74 -37.4,5.61 -56.09,5.61 -18.7,0 -37.4,0 -56.09,0 -179.49,0 -319.72,-42.07 -420.68,-126.21 -100.97,-84.13 -175.75,-190.7 -224.36,-319.71 -48.62,-129.01 -78.53,-270.17 -89.75,-423.49 -11.22,-153.31 -16.83,-299.15 -16.83,-437.5 0,-317.85 31.79,-641.31 95.36,-970.37 41.13,-3.74 78.52,-10.28 112.18,-19.63 33.65,-9.35 71.05,-14.02 112.18,-14.02 7.48,0 24.31,0 50.48,0 26.18,0 53.29,1.87 81.33,5.6 28.05,3.74 53.29,9.35 75.72,16.83 22.44,7.48 33.66,16.83 33.66,28.05 0,18.69 -1.87,43.93 -5.61,75.72 -3.74,31.78 -8.41,65.44 -14.02,100.96 -5.61,35.53 -11.22,70.12 -16.83,103.77 -5.61,33.65 -10.28,61.7 -14.02,84.14 -18.7,130.87 -33.66,263.62 -44.87,398.24 -11.22,134.62 -16.83,269.23 -16.83,403.85 0,52.35 3.74,124.34 11.22,215.95 7.47,91.62 22.43,182.29 44.87,272.04 22.43,89.74 55.15,167.34 98.16,232.78 43,65.43 100.03,98.15 171.07,98.15 67.31,0 121.53,-34.58 162.67,-103.76 41.13,-69.18 72.91,-149.58 95.35,-241.19 22.44,-91.62 37.39,-183.23 44.87,-274.85 7.48,-91.61 11.22,-161.72 11.22,-210.34 0,-18.69 -12.15,-39.26 -36.46,-61.7 -24.3,-22.43 -52.35,-52.35 -84.13,-89.74 -31.79,-37.39 -61.7,-82.27 -89.75,-134.62 -28.04,-52.35 -45.81,-115.92 -53.29,-190.71l0 -117.79c0,-29.91 0.94,-65.44 2.81,-106.57 1.87,-41.13 5.61,-83.2 11.22,-126.2 5.61,-43.01 13.09,-84.14 22.43,-123.4 9.35,-39.27 21.51,-70.12 36.46,-92.55 0,-3.74 6.55,-9.35 19.63,-16.83 13.09,-7.48 27.11,-14.96 42.07,-22.44 14.96,-7.47 29.92,-14.02 44.87,-19.63 14.96,-5.61 24.31,-8.41 28.05,-8.41 11.22,0 27.11,1.87 47.68,5.61 20.56,3.74 43,7.48 67.31,11.22 24.3,3.74 46.74,8.41 67.3,14.02 20.57,5.61 34.59,10.28 42.07,14.02 18.7,11.22 29.92,28.98 33.66,53.29 3.74,24.3 9.35,43.94 16.82,58.89 18.7,59.83 32.72,114.99 42.07,165.47 9.35,50.48 14.96,100.96 16.83,151.45 1.87,50.48 3.74,102.83 5.61,157.05 1.87,54.22 4.67,114.98 8.41,182.29 0,11.22 17.76,23.37 53.29,36.46 35.52,13.09 58.89,19.63 70.11,19.63 52.35,0 95.36,-14.95 129.01,-44.87 33.65,-29.91 56.09,-44.87 67.31,-44.87 18.7,0 30.85,12.15 36.46,36.46 5.61,24.3 8.41,42.07 8.41,53.28z"/>
  <path id="5" class="fil2" d="M11459.17 4587.42c0,26.17 -13.09,47.67 -39.26,64.5 -26.18,16.83 -55.16,28.98 -86.94,36.46 -31.79,7.48 -62.64,13.09 -92.55,16.83 -29.92,3.73 -48.61,5.6 -56.09,5.6 -78.53,0 -156.12,-22.43 -232.78,-67.3 -76.66,-44.88 -146.77,-115.92 -210.34,-213.15 -7.48,-11.22 -18.69,-26.17 -33.65,-44.87 -14.96,-18.7 -22.44,-31.79 -22.44,-39.26 0,-18.7 14.02,-35.53 42.07,-50.49 28.04,-14.95 59.83,-29.91 95.35,-44.87 35.53,-14.96 69.18,-26.17 100.97,-33.65 31.78,-7.48 53.28,-11.22 64.5,-11.22 74.79,0 148.64,18.7 221.56,56.09 72.92,37.39 131.81,106.57 176.68,207.53 7.48,11.22 21.51,30.85 42.07,58.9 20.57,28.05 30.85,47.68 30.85,58.9zm572.13 1699.54c-11.22,89.75 -31.79,183.23 -61.7,280.45 -29.92,97.23 -71.99,187.91 -126.21,272.04 -54.22,84.14 -122.46,153.32 -204.73,207.54 -82.26,54.22 -183.23,81.33 -302.89,81.33 -93.48,0 -188.84,-31.79 -286.06,-95.35 -97.22,-67.31 -163.6,-155.19 -199.12,-263.63 -35.53,-108.44 -53.29,-213.14 -53.29,-314.11 0,-29.91 1.87,-74.79 5.61,-134.62 3.74,-59.83 5.61,-132.74 5.61,-218.75l0 -617c0,-29.91 -0.93,-61.69 -2.8,-95.35 -1.87,-33.65 -6.55,-65.44 -14.03,-95.35 -3.74,-14.96 -10.28,-31.79 -19.63,-50.48 -9.35,-18.7 -14.02,-31.79 -14.02,-39.27 0,-14.96 9.35,-27.11 28.04,-36.46 18.7,-9.35 39.27,-15.89 61.7,-19.63 22.44,-3.74 43.94,-5.61 64.51,-5.61 20.57,0 30.85,0 30.85,0 11.22,0 37.39,0.94 78.53,2.81 41.13,1.87 84.13,8.41 129,19.63 44.88,11.22 85.07,28.98 120.6,53.28 35.52,24.31 53.28,58.9 53.28,103.77 3.74,11.22 -2.8,31.79 -19.63,61.7 -16.82,29.92 -32.72,82.27 -47.67,157.06 -3.74,29.91 -7.48,57.02 -11.22,81.33 -3.74,24.3 -7.48,51.41 -11.22,81.33 -3.74,29.91 -7.48,66.37 -11.22,109.37 -3.74,43.01 -7.48,98.16 -11.22,165.47l0 336.55c0,59.83 1.87,120.59 5.61,182.29 3.74,61.7 12.16,117.79 25.24,168.27 13.09,50.48 34.59,91.62 64.51,123.4 29.91,31.79 69.18,47.68 117.79,47.68 71.05,0 127.14,-20.57 168.27,-61.7 41.13,-41.13 72.92,-76.66 95.35,-106.57 41.14,-56.09 72.92,-126.21 95.36,-210.34 22.43,-84.14 43,-171.08 61.7,-260.82l11.22 -56.1c11.21,-56.09 44.87,-84.13 100.96,-84.13 56.09,0 84.13,39.26 84.13,117.79l0 28.04 -11.21 84.14z"/>
  <path id="6" class="fil2" d="M13517.7 6320.61c0,93.49 -16.83,198.19 -50.48,314.11 -33.66,115.92 -86.01,223.43 -157.06,322.52 -71.04,99.1 -161.72,182.3 -272.04,249.61 -110.31,67.3 -242.12,100.96 -395.43,100.96 -145.84,0 -269.24,-26.18 -370.2,-78.53 -100.97,-52.35 -184.17,-123.4 -249.61,-213.14 -65.43,-89.75 -112.18,-195.38 -140.22,-316.91 -28.05,-121.53 -42.07,-249.61 -42.07,-384.22 0,-130.88 14.96,-274.85 44.87,-431.9 29.92,-157.06 76.66,-303.83 140.23,-440.31 63.57,-136.49 143.96,-250.54 241.19,-342.16 97.22,-91.61 215.01,-137.42 353.37,-137.42 67.31,0 130.88,14.02 190.71,42.07 59.83,28.05 112.18,64.5 157.05,109.38 44.87,44.87 80.4,97.22 106.57,157.05 26.18,59.83 41.14,121.53 44.88,185.1l5.6 78.53c0,89.74 -14.95,187.9 -44.87,294.47 -29.91,106.57 -72.92,205.67 -129.01,297.28 -56.09,91.62 -125.27,168.27 -207.53,229.97 -82.27,61.7 -175.75,92.55 -280.45,92.55 -18.7,0 -42.07,-1.87 -70.12,-5.61 -28.04,-3.74 -55.15,-9.34 -81.33,-16.82l0 162.66c0,26.18 8.41,63.57 25.24,112.18 16.83,48.61 42.07,96.29 75.72,143.03 33.66,46.74 77.6,87.88 131.82,123.4 54.22,35.53 120.59,53.29 199.12,53.29 108.44,0 197.25,-21.5 266.43,-64.51 69.18,-43 126.2,-98.16 171.08,-165.46 44.87,-67.31 79.46,-143.04 103.76,-227.17 24.31,-84.14 43.94,-165.47 58.9,-244 11.22,-52.35 22.43,-87.87 33.65,-106.57 11.22,-18.69 29.92,-28.04 56.09,-28.04 56.09,0 84.14,31.78 84.14,95.35l0 39.26zm-661.87 -869.4c0,-29.91 -8.41,-61.7 -25.24,-95.35 -16.83,-33.66 -47.68,-50.49 -92.55,-50.49 -67.31,0 -125.27,35.53 -173.88,106.58 -48.61,71.05 -88.81,152.38 -120.6,243.99 -31.78,91.62 -55.15,179.49 -70.11,263.63 -14.96,84.13 -22.44,139.29 -22.44,165.46l0 16.83c0,33.66 2.81,60.77 8.42,81.33 5.61,20.57 25.24,30.85 58.89,30.85l28.05 0c74.79,0 138.35,-28.04 190.71,-84.13 52.35,-56.09 94.42,-123.4 126.2,-201.93 31.78,-78.53 55.16,-158.92 70.11,-241.19 14.96,-82.27 22.44,-149.57 22.44,-201.93l0 -33.65z"/>
  <path id="7" class="fil2" d="M14028.12 4587.42c0,26.17 -13.09,47.67 -39.26,64.5 -26.18,16.83 -55.16,28.98 -86.94,36.46 -31.79,7.48 -62.64,13.09 -92.55,16.83 -29.92,3.73 -48.61,5.6 -56.09,5.6 -78.53,0 -156.12,-22.43 -232.78,-67.3 -76.66,-44.88 -146.77,-115.92 -210.34,-213.15 -7.48,-11.22 -18.69,-26.17 -33.65,-44.87 -14.96,-18.7 -22.44,-31.79 -22.44,-39.26 0,-18.7 14.02,-35.53 42.07,-50.49 28.04,-14.95 59.83,-29.91 95.35,-44.87 35.53,-14.96 69.18,-26.17 100.97,-33.65 31.78,-7.48 53.28,-11.22 64.5,-11.22 74.79,0 148.64,18.7 221.56,56.09 72.92,37.39 131.81,106.57 176.68,207.53 7.48,11.22 21.51,30.85 42.07,58.9 20.57,28.05 30.85,47.68 30.85,58.9zm572.13 1699.54c-11.22,89.75 -31.79,183.23 -61.7,280.45 -29.92,97.23 -71.99,187.91 -126.21,272.04 -54.22,84.14 -122.46,153.32 -204.73,207.54 -82.26,54.22 -183.23,81.33 -302.89,81.33 -93.48,0 -188.84,-31.79 -286.06,-95.35 -97.22,-67.31 -163.6,-155.19 -199.12,-263.63 -35.53,-108.44 -53.29,-213.14 -53.29,-314.11 0,-29.91 1.87,-74.79 5.61,-134.62 3.74,-59.83 5.61,-132.74 5.61,-218.75l0 -617c0,-29.91 -0.93,-61.69 -2.8,-95.35 -1.87,-33.65 -6.55,-65.44 -14.03,-95.35 -3.74,-14.96 -10.28,-31.79 -19.63,-50.48 -9.35,-18.7 -14.02,-31.79 -14.02,-39.27 0,-14.96 9.35,-27.11 28.04,-36.46 18.7,-9.35 39.27,-15.89 61.7,-19.63 22.44,-3.74 43.94,-5.61 64.51,-5.61 20.57,0 30.85,0 30.85,0 11.22,0 37.39,0.94 78.53,2.81 41.13,1.87 84.13,8.41 129,19.63 44.88,11.22 85.07,28.98 120.6,53.28 35.52,24.31 53.28,58.9 53.28,103.77 3.74,11.22 -2.8,31.79 -19.63,61.7 -16.82,29.92 -32.72,82.27 -47.67,157.06 -3.74,29.91 -7.48,57.02 -11.22,81.33 -3.74,24.3 -7.48,51.41 -11.22,81.33 -3.74,29.91 -7.48,66.37 -11.22,109.37 -3.74,43.01 -7.48,98.16 -11.22,165.47l0 336.55c0,59.83 1.87,120.59 5.61,182.29 3.74,61.7 12.16,117.79 25.24,168.27 13.09,50.48 34.59,91.62 64.51,123.4 29.91,31.79 69.18,47.68 117.79,47.68 71.05,0 127.14,-20.57 168.27,-61.7 41.13,-41.13 72.92,-76.66 95.35,-106.57 41.14,-56.09 72.92,-126.21 95.36,-210.34 22.43,-84.14 43,-171.08 61.7,-260.82l11.22 -56.1c11.21,-56.09 44.87,-84.13 100.96,-84.13 56.09,0 84.13,39.26 84.13,117.79l0 28.04 -11.21 84.14z"/>
  <path id="8" class="fil2" d="M16002.51 6393.53c0,26.18 -8.41,88.81 -25.24,187.91 -16.83,99.09 -46.74,203.79 -89.74,314.1 -43.01,110.31 -100.97,208.47 -173.88,294.48 -72.92,86 -165.47,129.01 -277.65,129.01 -119.66,0 -215.02,-42.07 -286.06,-126.21 -71.05,-84.13 -125.27,-185.1 -162.67,-302.89 -37.39,-117.79 -61.7,-241.19 -72.91,-370.19 -11.22,-129.01 -16.83,-236.52 -16.83,-322.52 0,-97.23 5.61,-195.39 16.83,-294.48 11.21,-99.09 18.69,-197.25 22.43,-294.48 0,-29.91 -14.96,-48.61 -44.87,-56.09 -29.92,-7.48 -57.96,-11.21 -84.14,-11.21 -44.87,0 -72.91,5.6 -84.13,16.82 -11.22,11.22 -18.7,24.31 -22.44,39.27l-22.44 179.49c-14.95,119.66 -30.85,234.64 -47.67,344.95 -16.83,110.31 -35.53,207.54 -56.09,291.67 -20.57,84.14 -44.88,151.45 -72.92,201.93 -28.05,50.48 -60.77,75.72 -98.16,75.72l-5.61 0c-14.96,0 -28.98,-3.74 -42.07,-11.22 -13.08,-7.47 -19.63,-26.17 -19.63,-56.09 0,-14.95 3.74,-37.39 11.22,-67.3 29.91,-130.88 48.61,-239.32 56.09,-325.33 7.48,-86.01 13.09,-162.66 16.83,-229.97l0 -39.27c0,-18.69 0.93,-41.13 2.8,-67.3 1.87,-26.18 2.81,-57.96 2.81,-95.36l0 -145.83c0,-41.14 0,-84.14 0,-129.01 0,-44.87 -3.74,-93.49 -11.22,-145.84l-16.83 -330.93c0,-22.44 9.35,-43 28.05,-61.7 18.69,-18.7 43,-35.53 72.91,-50.48 29.92,-14.96 61.7,-26.18 95.36,-33.66 33.65,-7.48 63.57,-11.22 89.74,-11.22 63.57,0 95.36,41.14 95.36,123.4l0 28.05 -5.61 123.4 0 33.65c0,26.18 5.61,42.07 16.83,47.68 11.21,5.61 33.65,12.15 67.3,19.63l16.83 0c29.92,3.74 78.53,7.48 145.84,11.22 67.31,3.74 134.61,11.22 201.92,22.44 67.31,11.21 126.21,28.98 176.69,53.28 50.48,24.31 75.72,58.9 75.72,103.77 0,14.96 -3.74,36.46 -11.22,64.5 -7.48,28.05 -16.82,56.09 -28.04,84.14 -11.22,28.04 -20.57,53.29 -28.05,75.72 -7.48,22.44 -11.22,37.4 -11.22,44.87 -67.3,258.02 -100.96,527.26 -100.96,807.71 0,22.44 1.87,63.57 5.61,123.4 3.74,59.83 11.22,121.53 22.44,185.1 11.21,63.57 28.04,119.66 50.48,168.27 22.43,48.61 50.48,72.92 84.13,72.92 56.09,0 106.58,-34.59 151.45,-103.77 44.87,-69.18 84.13,-149.58 117.79,-241.19 33.65,-91.61 60.76,-184.16 81.33,-277.65 20.57,-93.48 34.59,-162.66 42.07,-207.53 7.48,-41.14 19.63,-66.38 36.46,-75.73 16.82,-9.34 32.72,-14.02 47.67,-14.02 52.36,0 78.53,33.66 78.53,100.96 0,7.48 -0.93,27.11 -2.8,58.9 -1.87,31.78 -4.68,55.16 -8.42,70.11z"/>
  <path id="9" class="fil2" d="M18061.04 6573.02c-7.48,52.35 -26.18,114.05 -56.09,185.1 -29.92,71.05 -68.25,139.29 -114.99,204.73 -46.74,65.44 -100.96,120.6 -162.66,165.47 -61.7,44.87 -129.95,67.31 -204.73,67.31 -112.19,0 -210.34,-43 -294.48,-129.01 -84.14,-86.01 -135.55,-207.54 -154.25,-364.59 -22.44,59.83 -48.61,129.01 -78.53,207.54 -29.91,78.52 -67.3,151.44 -112.18,218.75 -44.87,67.31 -96.29,124.33 -154.25,171.08 -57.96,46.74 -126.2,70.11 -204.73,70.11 -22.43,0 -39.26,-1.87 -50.48,-5.61 -11.22,-3.74 -23.37,-8.41 -36.46,-14.02 -13.09,-5.61 -28.04,-10.29 -44.87,-14.03 -16.83,-3.73 -40.2,-5.6 -70.11,-5.6 -89.75,0 -165.47,-28.98 -227.17,-86.94 -61.7,-57.97 -111.25,-131.82 -148.64,-221.56 -37.39,-89.75 -64.5,-187.91 -81.33,-294.48 -16.83,-106.57 -25.24,-206.6 -25.24,-300.08 0,-224.37 12.15,-437.51 36.46,-639.44 24.3,-201.92 64.5,-380.48 120.59,-535.66 56.09,-155.19 129.01,-278.58 218.75,-370.2 89.75,-91.61 198.19,-137.42 325.33,-137.42 74.79,0 131.81,6.54 171.08,19.63 39.26,13.09 75.72,28.05 109.37,44.87 33.66,16.83 70.12,34.59 109.38,53.29 39.26,18.7 94.42,33.65 165.47,44.87 78.52,44.87 133.68,98.16 165.46,159.86 31.79,61.7 52.36,128.07 61.7,199.12 9.35,71.05 12.16,144.9 8.42,221.56 -3.74,76.66 0,152.38 11.22,227.17 0,3.74 8.41,9.34 25.24,16.82 16.82,7.48 36.46,15.9 58.89,25.24 22.44,9.35 42.07,22.44 58.9,39.27 16.82,16.82 25.24,38.33 25.24,64.5l0 22.44c-37.4,97.22 -59.83,183.23 -67.31,258.01 -7.48,74.79 -11.22,164.54 -11.22,269.24 0,52.35 2.81,109.38 8.41,171.08 5.61,61.7 14.96,119.66 28.05,173.88 13.09,54.22 32.72,99.09 58.89,134.61 26.18,35.53 59.83,53.29 100.97,53.29 44.87,0 85.07,-22.44 120.59,-67.31 35.53,-44.87 65.44,-96.29 89.75,-154.25 24.3,-57.96 44.87,-116.85 61.7,-176.68 16.82,-59.83 27.11,-104.71 30.85,-134.62 7.48,-44.87 26.17,-67.31 56.09,-67.31 18.69,0 36.46,10.28 53.28,30.85 16.83,20.57 25.24,57.03 25.24,109.38 0,14.95 0,28.98 0,42.07 0,13.08 -1.87,28.98 -5.6,47.67zm-1037.68 -908.67c0,-41.13 -3.74,-89.74 -11.22,-145.83 -7.48,-56.09 -20.57,-108.44 -39.26,-157.05 -18.7,-48.62 -46.74,-89.75 -84.14,-123.4 -37.39,-33.66 -87.87,-50.49 -151.44,-50.49 -104.71,0 -189.78,47.68 -255.21,143.04 -65.44,95.35 -116.86,207.53 -154.25,336.54 -37.4,129.01 -61.7,261.76 -72.92,398.24 -11.22,136.49 -16.83,244 -16.83,322.52 0,59.83 2.81,131.82 8.41,215.95 5.61,84.14 15.9,163.6 30.85,238.39 14.96,74.78 36.46,138.35 64.51,190.71 28.04,52.35 64.5,78.52 109.38,78.52 108.44,0 191.64,-42.07 249.6,-126.2 57.96,-84.14 101.9,-188.84 131.81,-314.11 29.92,-125.27 51.42,-259.89 64.51,-403.85 13.08,-143.97 25.24,-275.78 36.45,-395.44 7.48,-63.57 24.31,-103.77 50.49,-120.59 26.17,-16.83 39.26,-28.99 39.26,-36.46l0 -50.49z"/>
  <path id="10" class="fil2" d="M19227.72 6836.65c0,89.74 -29.91,158.92 -89.74,207.53 -59.83,48.62 -128.08,84.14 -204.73,106.58 -76.66,22.43 -153.32,36.45 -229.98,42.06 -76.65,5.61 -131.81,8.42 -165.46,8.42 -52.35,0 -116.86,-5.61 -193.52,-16.83 -76.65,-11.22 -151.44,-28.98 -224.36,-53.29 -72.92,-24.3 -134.62,-58.89 -185.1,-103.76 -50.48,-44.88 -75.72,-100.97 -75.72,-168.28 0,-41.13 15.89,-70.11 47.68,-86.94 31.78,-16.82 62.63,-25.24 92.55,-25.24 41.13,0 81.33,14.96 120.59,44.88 39.27,29.91 80.4,61.7 123.4,95.35 43,33.65 90.68,65.44 143.03,95.35 52.35,29.92 112.18,44.88 179.49,44.88 29.92,0 70.12,-10.29 120.6,-30.85 50.48,-20.57 75.72,-57.03 75.72,-109.38 0,-52.35 -21.5,-102.83 -64.5,-151.44 -43.01,-48.62 -97.23,-99.1 -162.67,-151.45 -65.44,-52.35 -135.55,-106.57 -210.34,-162.66 -74.78,-56.09 -144.9,-116.86 -210.34,-182.3 -65.44,-65.44 -119.66,-137.42 -162.66,-215.95 -43,-78.52 -64.5,-164.53 -64.5,-258.01 0,-130.88 42.06,-241.19 126.2,-330.94 84.14,-89.74 183.23,-160.79 297.28,-213.14 114.05,-52.35 230.91,-89.75 350.57,-112.18 119.66,-22.44 213.14,-33.66 280.45,-33.66 63.57,0 127.14,13.09 190.71,39.27 63.57,26.17 95.35,76.65 95.35,151.44 0,22.44 -4.67,55.16 -14.02,98.16 -9.35,43 -24.31,85.07 -44.87,126.2 -20.57,41.14 -47.68,77.6 -81.34,109.38 -33.65,31.79 -76.65,47.68 -129,47.68 -14.96,0 -29.92,-6.55 -44.88,-19.63 -14.95,-13.09 -31.78,-28.05 -50.48,-44.88 -18.69,-16.82 -38.33,-31.78 -58.89,-44.87 -20.57,-13.09 -43.94,-19.63 -70.12,-19.63 -130.87,0 -222.49,38.33 -274.84,114.98 -52.35,76.66 -78.53,157.99 -78.53,244 0,74.79 43.94,153.31 131.82,235.58 87.87,82.27 185.1,164.53 291.67,246.8 106.57,82.26 203.79,163.6 291.67,243.99 87.87,80.4 131.81,157.99 131.81,232.78z"/>
  <path class="fil1 str0" d="M11192.91 8292.47c7.72,-39.83 27.26,-74.91 58.29,-104.47 126.83,-120.81 305.13,-179.85 478.44,-179.85 331.13,0 618.65,228.15 618.65,570.28 0,111.67 -31.02,215.04 -87.69,301.64 85.29,98.37 134.21,225.63 134.21,368.2 0,368.78 -311.2,596.33 -663.31,596.33 -154.85,0 -299.28,-37.9 -425.04,-119.65 -35.26,57.2 -98.49,95.46 -170.38,95.46l-919.17 0c-80.67,0 -149.65,-44.72 -182.58,-118.36 -13.59,-30.4 -19.42,-62.09 -17.79,-93.05 -77.58,93.07 -178.02,166.5 -304.42,207.87 -64.15,20.99 -131.06,31.45 -198.55,31.45 -68.77,0 -136.91,-10.86 -202.14,-32.69 -144.24,-48.26 -254.18,-138.46 -334.69,-251.82l0 56.6c0,110.16 -89.84,200 -200,200l-919.17 0c-80.67,0 -149.65,-44.72 -182.58,-118.36 -32.93,-73.64 -20.26,-154.87 33.52,-214.99 122.85,-137.32 245.65,-275.34 364.44,-416.19 68.26,-80.94 137.94,-164.81 198.55,-251.7 35.43,-50.79 80.1,-112.79 80.1,-177.48 0,-47.18 -27.06,-69.8 -73.52,-69.8 -78.69,0 -152.81,41.14 -204.4,98.87 -56.36,63.07 -141.43,83.74 -220.45,53.58 -79.03,-30.16 -128.68,-102.27 -128.68,-186.85l0 -193.51c0,-56.79 20.95,-105.67 62.08,-144.84 130.79,-124.55 327.56,-190.99 506.33,-190.99 293.47,0 525.37,168.62 604.35,424.88 81.6,-178.79 216.31,-326.76 417.33,-393.11 64.24,-21.21 131.29,-31.77 198.93,-31.77 66.36,0 132.17,10.16 195.33,30.55 168.42,54.36 290.97,165.78 374.99,304.84 0.11,-56.6 21.06,-105.33 62.08,-144.4 130.79,-124.55 327.56,-190.99 506.33,-190.99 235.69,0 431.66,108.76 540.61,284.32z"/>
  <path class="fil2" d="M7857.57 9620.41l919.17 0 0 -163.74 -582.39 0c346.08,-377.72 532.15,-604.72 532.15,-824.28 0,-234.45 -160.02,-424.24 -433.54,-424.24 -150.71,0 -290.26,61.41 -368.41,135.83l0 193.51c78.15,-87.45 202.81,-165.6 353.53,-165.6 176.76,0 273.52,132.11 273.52,269.8 0,161.88 -78.15,290.27 -694.03,978.72z"/>
  <path id="1" class="fil2" d="M9513.57 8208.15c-286.54,0 -517.27,271.66 -517.27,721.95 0,448.42 230.73,718.22 517.27,718.22 286.55,0 519.13,-269.8 519.13,-718.22 0,-450.29 -232.58,-721.95 -519.13,-721.95zm0 163.74c189.79,0 346.09,204.68 346.09,558.21 0,351.67 -156.3,554.48 -346.09,554.48 -191.65,0 -342.36,-200.95 -342.36,-554.48 0,-353.53 150.71,-558.21 342.36,-558.21z"/>
  <path id="2" class="fil2" d="M10216.91 9620.41l919.17 0 0 -163.74 -582.39 0c346.08,-377.72 532.15,-604.72 532.15,-824.28 0,-234.45 -160.02,-424.24 -433.54,-424.24 -150.71,0 -290.26,61.41 -368.41,135.83l0 193.51c78.15,-87.45 202.81,-165.6 353.53,-165.6 176.76,0 273.52,132.11 273.52,269.8 0,161.88 -78.15,290.27 -694.03,978.72z"/>
  <path id="3" class="fil2" d="M11389.14 8332.82l0 184.21c70.7,-83.73 189.78,-147 321.89,-147 171.19,0 266.08,104.2 266.08,230.73 0,139.55 -104.2,238.16 -314.45,238.16l-133.97 0 0 147 173.04 0c200.95,0 320.04,102.34 320.04,247.47 0,143.27 -117.23,251.19 -305.16,251.19 -150.71,0 -277.24,-66.98 -364.69,-169.32l0 193.51c98.62,87.45 223.28,135.83 379.58,135.83 301.43,0 463.31,-191.65 463.31,-396.33 0,-186.06 -119.08,-301.43 -253.05,-347.94l0 -3.72c130.24,-57.69 206.53,-174.91 206.53,-318.18 0,-195.37 -158.16,-370.28 -418.65,-370.28 -139.55,0 -262.36,50.24 -340.5,124.67z"/>
  <path id="4" class="fil3 str1" d="M7857.57 9620.41l919.17 0 0 -163.74 -582.39 0c346.08,-377.72 532.15,-604.72 532.15,-824.28 0,-234.45 -160.02,-424.24 -433.54,-424.24 -150.71,0 -290.26,61.41 -368.41,135.83l0 193.51c78.15,-87.45 202.81,-165.6 353.53,-165.6 176.76,0 273.52,132.11 273.52,269.8 0,161.88 -78.15,290.27 -694.03,978.72z"/>
  <path id="5" class="fil3 str1" d="M9513.57 8208.15c-286.54,0 -517.27,271.66 -517.27,721.95 0,448.42 230.73,718.22 517.27,718.22 286.55,0 519.13,-269.8 519.13,-718.22 0,-450.29 -232.58,-721.95 -519.13,-721.95zm0 163.74c189.79,0 346.09,204.68 346.09,558.21 0,351.67 -156.3,554.48 -346.09,554.48 -191.65,0 -342.36,-200.95 -342.36,-554.48 0,-353.53 150.71,-558.21 342.36,-558.21z"/>
  <path id="6" class="fil3 str1" d="M10216.91 9620.41l919.17 0 0 -163.74 -582.39 0c346.08,-377.72 532.15,-604.72 532.15,-824.28 0,-234.45 -160.02,-424.24 -433.54,-424.24 -150.71,0 -290.26,61.41 -368.41,135.83l0 193.51c78.15,-87.45 202.81,-165.6 353.53,-165.6 176.76,0 273.52,132.11 273.52,269.8 0,161.88 -78.15,290.27 -694.03,978.72z"/>
  <path id="7" class="fil3 str1" d="M11389.14 8332.82l0 184.21c70.7,-83.73 189.78,-147 321.89,-147 171.19,0 266.08,104.2 266.08,230.73 0,139.55 -104.2,238.16 -314.45,238.16l-133.97 0 0 147 173.04 0c200.95,0 320.04,102.34 320.04,247.47 0,143.27 -117.23,251.19 -305.16,251.19 -150.71,0 -277.24,-66.98 -364.69,-169.32l0 193.51c98.62,87.45 223.28,135.83 379.58,135.83 301.43,0 463.31,-191.65 463.31,-396.33 0,-186.06 -119.08,-301.43 -253.05,-347.94l0 -3.72c130.24,-57.69 206.53,-174.91 206.53,-318.18 0,-195.37 -158.16,-370.28 -418.65,-370.28 -139.55,0 -262.36,50.24 -340.5,124.67z"/>
 </g>
</svg>
