<?xml version="1.0" encoding="UTF-8"?>
<!DOCTYPE svg PUBLIC "-//W3C//DTD SVG 1.1//EN" "http://www.w3.org/Graphics/SVG/1.1/DTD/svg11.dtd">
<!-- Creator: CorelDRAW 2020 (64 Bit) -->
<svg xmlns="http://www.w3.org/2000/svg" xml:space="preserve" width="200mm" height="92.68mm" version="1.1" style="shape-rendering:geometricPrecision; text-rendering:geometricPrecision; image-rendering:optimizeQuality; fill-rule:evenodd; clip-rule:evenodd"
viewBox="0 0 20000 9268"
 xmlns:xlink="http://www.w3.org/1999/xlink"
 xmlns:xodm="http://www.corel.com/coreldraw/odm/2003">
 <defs>
  <style type="text/css">
   <![CDATA[
    .str0 {stroke:black;stroke-width:7.62;stroke-miterlimit:22.9256}
    .fil1 {fill:black}
    .fil0 {fill:black;fill-rule:nonzero}
   ]]>
  </style>
 </defs>
 <g id="Camada_x0020_1">
  <metadata id="CorelCorpID_0Corel-Layer"/>
  <path class="fil0 str0" d="M2628.23 4760.75l-314.3 0 0 -314.29 -314.3 0 0 -314.3 -314.29 0 0 -314.29 -314.29 0 0 -314.29 0 -314.29 0 -314.3 0 -314.29 0 -314.29 0 -314.29 0 -314.3 0 -314.29 314.29 0 314.29 0 0 314.29 0 314.3 0 314.29 0 314.29 0 314.29 0 314.3 0 314.29 314.3 0 0 314.29 314.3 0 314.29 0 0 -314.29 314.29 0 0 -314.29 0 -314.3 0 -314.29 0 -314.29 0 -314.29 0 -314.3 0 -314.29 314.29 0 314.3 0 0 314.29 0 314.3 0 314.29 0 314.29 0 314.29 0 314.3 0 314.29 0 314.29 -314.3 0 0 314.29 -314.29 0 0 314.3 -314.29 0 0 314.29 -314.29 0zm2828.63 0l-314.29 0 -314.29 0 -314.3 0 0 -314.29 0 -314.3 314.3 0 0 -314.29 0 -314.29 0 -314.29 0 -314.3 0 -314.29 0 -314.29 0 -314.29 -314.3 0 0 -314.3 0 -314.29 314.3 0 314.29 0 314.29 0 314.29 0 0 314.29 0 314.3 -314.29 0 0 314.29 0 314.29 0 314.29 0 314.3 0 314.29 0 314.29 0 314.29 314.29 0 0 314.3 0 314.29 -314.29 0zm2828.64 0l-314.29 0 -314.3 0 -314.29 0 -314.29 0 0 -314.29 -314.29 0 0 -314.3 0 -314.29 0 -314.29 0 -314.29 0 -314.3 0 -314.29 0 -314.29 0 -314.29 0 -314.3 314.29 0 0 -314.29 314.29 0 314.29 0 314.3 0 314.29 0 314.29 0 0 314.29 314.29 0 0 314.3 0 314.29 -314.29 0 -314.29 0 0 -314.29 -314.29 0 -314.3 0 -314.29 0 0 314.29 0 314.29 0 314.29 0 314.3 0 314.29 0 314.29 0 314.29 314.29 0 314.3 0 314.29 0 0 -314.29 314.29 0 314.29 0 0 314.29 0 314.3 -314.29 0 0 314.29 -314.29 0zm2514.34 0l-314.29 0 0 -314.29 0 -314.3 0 -314.29 0 -314.29 0 -314.29 0 -314.3 0 -314.29 0 -314.29 0 -314.29 -314.29 0 -314.29 0 -314.3 0 0 -314.3 0 -314.29 314.3 0 314.29 0 314.29 0 314.29 0 314.3 0 314.29 0 314.29 0 314.29 0 0 314.29 0 314.3 -314.29 0 -314.29 0 -314.29 0 0 314.29 0 314.29 0 314.29 0 314.3 0 314.29 0 314.29 0 314.29 0 314.3 0 314.29 -314.3 0zm4085.82 0l-314.29 0 -314.29 0 -314.31 0 -314.29 0 -314.29 0 0 -314.29 -314.29 0 0 -314.3 0 -314.29 0 -314.29 0 -314.29 0 -314.3 0 -314.29 0 -314.29 0 -314.29 0 -314.3 314.29 0 0 -314.29 314.29 0 314.29 0 314.31 0 314.29 0 314.29 0 314.29 0 0 314.29 314.3 0 0 314.3 0 314.29 0 314.29 0 314.29 0 314.3 0 314.29 0 314.29 0 314.29 0 314.3 -314.3 0 0 314.29 -314.29 0zm-314.29 -628.59l314.29 0 0 -314.29 0 -314.29 0 -314.29 0 -314.3 0 -314.29 0 -314.29 0 -314.29 -314.29 0 -314.29 0 -314.31 0 -314.29 0 0 314.29 0 314.29 0 314.29 0 314.3 0 314.29 0 314.29 0 314.29 314.29 0 314.31 0 314.29 0zm3771.51 628.59l-314.29 0 0 -314.29 0 -314.3 0 -314.29 0 -314.29 0 -314.29 -314.29 0 -314.3 0 -314.29 0 -314.29 0 0 314.29 0 314.29 0 314.29 0 314.3 0 314.29 -314.29 0 -314.3 0 0 -314.29 0 -314.3 0 -314.29 0 -314.29 0 -314.29 0 -314.3 0 -314.29 0 -314.29 0 -314.29 0 -314.3 0 -314.29 314.3 0 314.29 0 314.29 0 314.29 0 314.3 0 314.29 0 314.29 0 0 314.29 314.29 0 0 314.3 0 314.29 0 314.29 0 314.29 -314.29 0 0 314.3 314.29 0 0 314.29 0 314.29 0 314.29 0 314.3 0 314.29 -314.29 0zm-628.58 -2200.05l314.29 0 0 -314.29 0 -314.29 -314.29 0 -314.3 0 -314.29 0 -314.29 0 0 314.29 0 314.29 314.29 0 314.29 0 314.3 0z"/>
  <path class="fil0 str0" d="M1574.57 7656.55l0 -237.55 712.67 0 0 237.55 -712.67 0zm712.67 -237.55l0 -237.55 237.55 0 0 237.55 -237.55 0zm-950.22 0l0 -1187.77 237.55 0 0 1187.77 -237.55 0zm950.22 -950.22l0 -237.55 237.55 0 0 237.55 -237.55 0zm-712.67 -237.55l0 -237.57 712.67 0 0 237.57 -712.67 0z"/>
  <path class="fil0 str0" d="M4139.92 7656.55l0 -237.55 237.55 0 0 237.55 -237.55 0zm-237.56 -237.55l0 -237.55 237.56 0 0 237.55 -237.56 0zm237.56 -712.67l0 -475.1 237.55 0 0 475.1 -237.55 0zm-950.22 950.22l0 -1662.89 950.22 0 0 237.57 -712.67 0 0 475.1 712.67 0 0 237.56 -237.56 0 0 237.56 -237.56 0 0 -237.56 -237.55 0 0 712.66 -237.55 0z"/>
  <polygon class="fil0 str0" points="5042.33,7656.55 5042.33,7419 5279.88,7419 5279.88,6231.23 5042.33,6231.23 5042.33,5993.66 5755,5993.66 5755,6231.23 5517.44,6231.23 5517.44,7419 5755,7419 5755,7656.55 "/>
  <path class="fil0 str0" d="M7607.68 7656.55l0 -237.55 -950.23 0 0 237.55 950.23 0zm-950.23 -237.55l0 -475.11 -237.55 0 0 475.11 237.55 0zm712.67 -475.11l0 -237.56 -712.67 0 0 237.56 712.67 0zm237.56 -237.56l0 -475.1 -237.56 0 0 475.1 237.56 0zm-237.56 -475.1l0 -237.57 -950.22 0 0 237.57 950.22 0z"/>
  <path class="fil0 str0" d="M8510.06 7656.55l0 -237.55 712.67 0 0 237.55 -712.67 0zm-237.55 -237.55l0 -1187.77 237.55 0 0 1187.77 -237.55 0zm950.22 0l0 -1187.77 237.55 0 0 1187.77 -237.55 0zm-712.67 -1187.77l0 -237.57 712.67 0 0 237.57 -712.67 0z"/>
  <path class="fil0 str0" d="M11312.99 7656.55l0 -237.55 -950.22 0 0 237.55 950.22 0zm-950.22 -237.55l0 -475.11 -237.56 0 0 475.11 237.56 0zm712.66 -475.11l0 -237.56 -712.66 0 0 237.56 712.66 0zm237.56 -237.56l0 -475.1 -237.56 0 0 475.1 237.56 0zm-237.56 -475.1l0 -237.57 -950.22 0 0 237.57 950.22 0z"/>
  <polygon class="fil0 str0" points="12452.91,7656.55 12452.91,6231.23 11977.81,6231.23 11977.81,5993.66 13165.58,5993.66 13165.58,6231.23 12690.48,6231.23 12690.48,7656.55 "/>
  <path class="fil0 str0" d="M14068.02 7656.55l0 -237.55 712.67 0 0 237.55 -712.67 0zm-237.56 -237.55l0 -1187.77 237.56 0 0 1187.77 -237.56 0zm950.23 0l0 -1187.77 237.55 0 0 1187.77 -237.55 0zm-712.67 -1187.77l0 -237.57 712.67 0 0 237.57 -712.67 0z"/>
  <path class="fil0 str0" d="M16158.23 6943.89l0 -475.11 237.56 0 0 475.11 -237.56 0zm-475.11 712.66l0 -1662.89 237.55 0 0 237.57 237.56 0 0 237.55 -237.56 0 0 1187.77 -237.55 0zm950.22 0l0 -1187.77 -237.55 0 0 -237.55 237.55 0 0 -237.57 237.55 0 0 1662.89 -237.55 0z"/>
  <path class="fil0 str0" d="M17773.33 7656.55l0 -237.55 712.67 0 0 237.55 -712.67 0zm-237.55 -237.55l0 -1187.77 237.55 0 0 1187.77 -237.55 0zm950.22 0l0 -1187.77 237.55 0 0 1187.77 -237.55 0zm-712.67 -1187.77l0 -237.57 712.67 0 0 237.57 -712.67 0z"/>
  <polygon class="fil1" points="3899.67,0.78 3899.67,303.4 295.5,303.4 295.5,3848.64 -7.12,3848.64 -7.12,303.4 -7.12,299.72 -7.12,0.78 "/>
  <polygon class="fil1" points="19690.27,5993.62 19992.89,5993.62 19992.89,8520.97 19992.89,8823.58 19690.27,8823.58 17162.92,8823.58 17162.92,8520.97 19690.27,8520.97 "/>
  <path class="fil0 str0" d="M6348.11 9162.83l0 -527.7 105.54 0 0 527.7 -105.54 0zm-422.17 105.54l0 -738.79 422.17 0 0 105.55 -316.63 0 0 527.7 316.63 0 0 105.54 -422.17 0zm1227.75 0l0 -738.79 527.71 0 0 105.55 -422.17 0 0 211.07 316.63 0 0 105.54 -316.63 0 0 211.09 422.17 0 0 105.54 -527.71 0zm1438.83 0l0 -105.54 105.55 0 0 105.54 -105.55 0zm-105.54 -105.54l0 -211.09 105.54 0 0 211.09 -105.54 0zm211.09 0l0 -211.09 105.54 0 0 211.09 -105.54 0zm-316.63 -211.09l0 -422.16 105.54 0 0 422.16 -105.54 0zm422.17 0l0 -422.16 105.54 0 0 422.16 -105.54 0zm805.58 316.63l0 -738.79 527.71 0 0 105.55 -422.17 0 0 211.07 316.63 0 0 105.54 -316.63 0 0 211.09 422.17 0 0 105.54 -527.71 0zm1227.75 0l0 -738.79 105.54 0 0 633.25 422.17 0 0 105.54 -527.71 0zm1333.29 0l0 -105.54 316.63 0 0 105.54 -316.63 0zm-105.54 -105.54l0 -527.7 105.54 0 0 527.7 -105.54 0zm422.17 0l0 -527.7 105.54 0 0 527.7 -105.54 0zm-316.63 -527.7l0 -105.55 316.63 0 0 105.55 -316.63 0zm1544.38 211.07l0 -211.07 105.54 0 0 211.07 -105.54 0zm-422.17 422.17l0 -738.79 422.17 0 0 105.55 -316.63 0 0 211.07 316.63 0 0 105.54 -316.63 0 0 316.63 -105.54 0zm1227.75 0l0 -738.79 527.71 0 0 105.55 -422.17 0 0 211.07 316.63 0 0 105.54 -316.63 0 0 211.09 422.17 0 0 105.54 -527.71 0zm1649.92 0l0 -105.54 105.54 0 0 105.54 -105.54 0zm-105.54 -105.54l0 -105.54 105.54 0 0 105.54 -105.54 0zm105.54 -316.63l0 -211.07 105.54 0 0 211.07 -105.54 0zm-422.17 422.17l0 -738.79 422.17 0 0 105.55 -316.63 0 0 211.07 316.63 0 0 105.54 -105.54 0 0 105.55 -105.55 0 0 -105.55 -105.54 0 0 316.63 -105.54 0z"/>
  <polygon class="fil0" points="9042.2,5577.96 9270.5,5575.72 9271.74,5722.88 9064.27,5724.91 9065.29,5830.55 8754.2,5833.48 8755.21,5938.98 8506.08,5941.27 8504.67,5794.1 8712.14,5792.2 8711.13,5686.57 9022.24,5683.65 9021.37,5578.16 "/>
 </g>
</svg>
