<?xml version="1.0" encoding="UTF-8"?>
<!DOCTYPE svg PUBLIC "-//W3C//DTD SVG 1.1//EN" "http://www.w3.org/Graphics/SVG/1.1/DTD/svg11.dtd">
<!-- Creator: CorelDRAW 2020 (64 Bit) -->
<svg xmlns="http://www.w3.org/2000/svg" xml:space="preserve" width="200mm" height="34.88mm" version="1.1" style="shape-rendering:geometricPrecision; text-rendering:geometricPrecision; image-rendering:optimizeQuality; fill-rule:evenodd; clip-rule:evenodd"
viewBox="0 0 20000 3488"
 xmlns:xlink="http://www.w3.org/1999/xlink"
 xmlns:xodm="http://www.corel.com/coreldraw/odm/2003">
 <defs>
  <style type="text/css">
   <![CDATA[
    .str0 {stroke:#333333;stroke-width:7.62;stroke-miterlimit:22.9256}
    .fil2 {fill:none;fill-rule:nonzero}
    .fil0 {fill:white}
    .fil1 {fill:#333333;fill-rule:nonzero}
   ]]>
  </style>
 </defs>
 <g id="Camada_x0020_1">
  <metadata id="CorelCorpID_0Corel-Layer"/>
  <g id="_2321991111504">
   <rect class="fil0" x="-7.13" y="0.41" width="20000" height="3488.24"/>
   <path class="fil1" d="M4501.98 2950.22c-176.38,0 -310.9,-50.24 -403.56,-150.71 -92.65,-100.47 -138.98,-242.24 -138.98,-425.32l0 -1259.24c0,-183.08 46.33,-324.85 138.98,-425.33 92.66,-100.47 227.18,-150.7 403.56,-150.7 176.38,0 310.9,50.23 403.56,150.7 92.65,100.48 138.98,242.25 138.98,425.33l0 247.83 -348.3 0 0 -271.27c0,-145.13 -61.4,-217.69 -184.19,-217.69 -122.8,0 -184.2,72.56 -184.2,217.69l0 1309.47c0,142.89 61.4,214.34 184.2,214.34 122.79,0 184.19,-71.45 184.19,-214.34l0 -358.35 348.3 0 0 331.56c0,183.08 -46.33,324.85 -138.98,425.32 -92.66,100.47 -227.18,150.71 -403.56,150.71z"/>
   <path id="1" class="fil1" d="M6079.98 572.41l499 0 381.79 2344.32 -368.39 0 -66.98 -465.52 0 6.7 -418.63 0 -66.98 458.82 -341.6 0 381.79 -2344.32zm401.88 1567.35l-164.1 -1158.77 -6.7 0 -160.75 1158.77 331.55 0z"/>
   <polygon id="2" class="fil1" points="7668.02,572.41 8193.82,572.41 8428.25,2250.27 8434.95,2250.27 8669.38,572.41 9195.18,572.41 9195.18,2916.73 8846.88,2916.73 8846.88,1141.74 8840.18,1141.74 8572.26,2916.73 8264.15,2916.73 7996.23,1141.74 7989.53,1141.74 7989.53,2916.73 7668.02,2916.73 "/>
   <path id="3" class="fil1" d="M9999.55 572.41l542.54 0c183.08,0 320.39,49.12 411.93,147.36 91.54,98.23 137.31,242.24 137.31,432.02l0 231.08c0,189.78 -45.77,333.79 -137.31,432.03 -91.54,98.24 -228.85,147.36 -411.93,147.36l-174.15 0 0 954.47 -368.39 0 0 -2344.32zm542.54 1054.94c60.29,0 105.5,-16.74 135.64,-50.23 30.14,-33.49 45.21,-90.43 45.21,-170.8l0 -277.97c0,-80.38 -15.07,-137.31 -45.21,-170.8 -30.14,-33.49 -75.35,-50.24 -135.64,-50.24l-174.15 0 0 720.04 174.15 0z"/>
   <polygon id="4" class="fil1" points="11822.03,572.41 12190.42,572.41 12190.42,2916.73 11822.03,2916.73 "/>
   <polygon id="5" class="fil1" points="12994.79,572.41 13456.96,572.41 13815.3,1975.65 13822,1975.65 13822,572.41 14150.21,572.41 14150.21,2916.73 13771.77,2916.73 13329.69,1205.38 13323,1205.38 13323,2916.73 12994.79,2916.73 "/>
   <path id="6" class="fil1" d="M15477.03 2950.22c-178.62,0 -314.81,-50.79 -408.58,-152.38 -93.78,-101.59 -140.66,-247.27 -140.66,-437.05l0 -1232.44c0,-189.78 46.88,-335.46 140.66,-437.05 93.77,-101.59 229.96,-152.38 408.58,-152.38 178.61,0 314.81,50.79 408.58,152.38 93.77,101.59 140.66,247.27 140.66,437.05l0 200.94 -348.3 0 0 -224.39c0,-154.05 -63.63,-231.08 -190.89,-231.08 -127.27,0 -190.9,77.03 -190.9,231.08l0 1282.68c0,151.83 63.63,227.74 190.9,227.74 127.26,0 190.89,-75.91 190.89,-227.74l0 -458.81 -184.2 0 0 -334.91 532.5 0 0 766.93c0,189.78 -46.89,335.46 -140.66,437.05 -93.77,101.59 -229.97,152.38 -408.58,152.38z"/>
   <path id="7" class="fil2 str0" d="M4501.98 2950.22c-176.38,0 -310.9,-50.24 -403.56,-150.71 -92.65,-100.47 -138.98,-242.24 -138.98,-425.32l0 -1259.24c0,-183.08 46.33,-324.85 138.98,-425.33 92.66,-100.47 227.18,-150.7 403.56,-150.7 176.38,0 310.9,50.23 403.56,150.7 92.65,100.48 138.98,242.25 138.98,425.33l0 247.83 -348.3 0 0 -271.27c0,-145.13 -61.4,-217.69 -184.19,-217.69 -122.8,0 -184.2,72.56 -184.2,217.69l0 1309.47c0,142.89 61.4,214.34 184.2,214.34 122.79,0 184.19,-71.45 184.19,-214.34l0 -358.35 348.3 0 0 331.56c0,183.08 -46.33,324.85 -138.98,425.32 -92.66,100.47 -227.18,150.71 -403.56,150.71z"/>
   <path id="8" class="fil2 str0" d="M6079.98 572.41l499 0 381.79 2344.32 -368.39 0 -66.98 -465.52 0 6.7 -418.63 0 -66.98 458.82 -341.6 0 381.79 -2344.32zm401.88 1567.35l-164.1 -1158.77 -6.7 0 -160.75 1158.77 331.55 0z"/>
   <polygon id="9" class="fil2 str0" points="7668.02,572.41 8193.82,572.41 8428.25,2250.27 8434.95,2250.27 8669.38,572.41 9195.18,572.41 9195.18,2916.73 8846.88,2916.73 8846.88,1141.74 8840.18,1141.74 8572.26,2916.73 8264.15,2916.73 7996.23,1141.74 7989.53,1141.74 7989.53,2916.73 7668.02,2916.73 "/>
   <path id="10" class="fil2 str0" d="M9999.55 572.41l542.54 0c183.08,0 320.39,49.12 411.93,147.36 91.54,98.23 137.31,242.24 137.31,432.02l0 231.08c0,189.78 -45.77,333.79 -137.31,432.03 -91.54,98.24 -228.85,147.36 -411.93,147.36l-174.15 0 0 954.47 -368.39 0 0 -2344.32zm542.54 1054.94c60.29,0 105.5,-16.74 135.64,-50.23 30.14,-33.49 45.21,-90.43 45.21,-170.8l0 -277.97c0,-80.38 -15.07,-137.31 -45.21,-170.8 -30.14,-33.49 -75.35,-50.24 -135.64,-50.24l-174.15 0 0 720.04 174.15 0z"/>
   <polygon id="11" class="fil2 str0" points="11822.03,572.41 12190.42,572.41 12190.42,2916.73 11822.03,2916.73 "/>
   <polygon id="12" class="fil2 str0" points="12994.79,572.41 13456.96,572.41 13815.3,1975.65 13822,1975.65 13822,572.41 14150.21,572.41 14150.21,2916.73 13771.77,2916.73 13329.69,1205.38 13323,1205.38 13323,2916.73 12994.79,2916.73 "/>
   <path id="13" class="fil2 str0" d="M15477.03 2950.22c-178.62,0 -314.81,-50.79 -408.58,-152.38 -93.78,-101.59 -140.66,-247.27 -140.66,-437.05l0 -1232.44c0,-189.78 46.88,-335.46 140.66,-437.05 93.77,-101.59 229.96,-152.38 408.58,-152.38 178.61,0 314.81,50.79 408.58,152.38 93.77,101.59 140.66,247.27 140.66,437.05l0 200.94 -348.3 0 0 -224.39c0,-154.05 -63.63,-231.08 -190.89,-231.08 -127.27,0 -190.9,77.03 -190.9,231.08l0 1282.68c0,151.83 63.63,227.74 190.9,227.74 127.26,0 190.89,-75.91 190.89,-227.74l0 -458.81 -184.2 0 0 -334.91 532.5 0 0 766.93c0,189.78 -46.89,335.46 -140.66,437.05 -93.77,101.59 -229.97,152.38 -408.58,152.38z"/>
  </g>
 </g>
</svg>
